{"glyphs":{"0":{"ha":865,"x_min":50,"x_max":817,"o":"m 433 -4 q 278 28 349 -4 q 156 120 207 60 q 78 267 106 181 q 50 460 50 353 q 76 663 50 576 q 153 808 103 750 q 275 895 204 867 q 433 924 346 924 q 588 892 518 924 q 709 799 658 860 q 788 653 760 739 q 817 460 817 568 q 788 264 817 350 q 709 118 760 178 q 588 27 658 58 q 433 -4 518 -4 m 432 125 q 567 167 513 125 q 650 286 622 210 q 678 463 678 363 q 650 637 678 563 q 567 753 622 711 q 432 794 513 794 q 297 752 351 794 q 216 635 243 710 q 189 460 189 560 q 216 285 189 361 q 297 167 243 210 q 432 125 351 125 z "},"1":{"ha":457,"x_min":74,"x_max":313,"o":"m 74 914 l 313 914 l 313 0 l 178 0 l 178 785 l 74 785 l 74 914 z "},"2":{"ha":757,"x_min":57,"x_max":697,"o":"m 74 0 q 243 169 163 86 q 388 331 324 253 q 490 481 453 408 q 528 622 528 554 q 513 701 528 668 q 473 754 497 733 q 418 785 449 775 q 356 796 388 796 q 278 781 310 796 q 226 743 246 767 q 197 693 206 719 q 188 640 188 667 q 201 558 188 594 q 242 493 215 521 l 158 419 q 103 478 126 440 q 69 559 81 515 q 57 638 57 603 q 94 778 57 713 q 202 885 131 844 q 376 925 274 925 q 529 885 464 925 q 631 778 594 844 q 667 633 667 713 q 639 497 667 564 q 565 365 611 431 q 462 237 518 300 q 350 110 406 174 l 292 129 l 697 129 l 697 0 l 74 0 z "},"3":{"ha":726,"x_min":74,"x_max":639,"o":"m 607 914 l 363 521 l 282 558 q 322 572 300 568 q 367 576 344 576 q 467 565 418 579 q 554 519 515 551 q 616 435 593 488 q 639 304 639 382 q 594 136 639 207 q 477 27 550 65 q 315 -11 404 -11 q 183 16 249 -11 q 74 88 117 43 l 142 199 q 215 143 168 168 q 311 118 261 118 q 406 142 364 118 q 474 209 449 165 q 500 311 500 253 q 453 438 500 392 q 326 483 407 483 q 258 477 286 483 q 208 463 231 471 l 204 468 l 419 803 l 461 785 l 126 785 l 126 914 l 607 914 z "},"4":{"ha":743,"x_min":18,"x_max":694,"o":"m 18 221 l 18 222 l 575 925 l 576 925 l 576 324 l 694 324 l 694 221 l 576 221 l 576 0 l 442 0 l 442 221 l 18 221 m 450 621 l 215 317 l 194 324 l 442 324 l 442 646 l 450 621 z "},"5":{"ha":726,"x_min":90,"x_max":642,"o":"m 340 -11 q 199 15 267 -11 q 90 83 132 42 l 163 188 q 237 136 190 156 q 329 117 283 117 q 420 140 381 117 q 482 202 460 163 q 504 293 504 242 q 484 392 504 349 q 424 459 464 435 q 325 483 385 483 q 235 470 276 483 q 149 431 193 457 l 147 431 l 147 914 l 585 914 l 585 785 l 264 785 l 264 551 l 246 579 q 299 592 269 588 q 357 597 329 597 q 513 556 450 597 q 609 447 576 515 q 642 297 642 379 q 603 141 642 211 q 496 30 564 71 q 340 -11 428 -11 z "},"6":{"ha":757,"x_min":53,"x_max":700,"o":"m 381 -11 q 215 33 289 -11 q 97 158 140 76 q 53 350 53 239 q 88 522 53 440 q 183 674 124 603 q 319 808 243 746 q 474 921 394 869 l 563 824 q 374 698 450 768 q 256 556 297 628 q 206 419 214 483 l 172 424 q 271 543 210 501 q 425 585 332 585 q 558 547 496 585 q 660 444 621 510 q 700 294 700 379 q 655 133 700 201 q 537 26 610 64 q 381 -11 464 -11 m 375 110 q 469 133 426 110 q 536 197 511 156 q 561 293 561 239 q 536 388 561 347 q 469 450 511 428 q 375 472 426 472 q 282 451 324 472 q 215 392 240 429 q 190 311 190 356 l 190 288 q 215 199 190 240 q 281 134 239 158 q 375 110 324 110 z "},"7":{"ha":679,"x_min":43,"x_max":640,"o":"m 640 914 l 275 0 l 124 0 l 453 804 l 500 785 l 43 785 l 43 914 l 640 914 z "},"8":{"ha":726,"x_min":39,"x_max":688,"o":"m 39 288 q 66 410 39 358 q 134 497 93 461 q 218 550 175 532 q 149 615 176 576 q 122 715 122 654 q 153 824 122 776 q 239 898 185 871 q 363 925 293 925 q 485 898 431 925 q 571 825 539 871 q 603 721 603 779 q 576 617 603 656 q 507 550 549 578 q 592 495 550 531 q 660 408 633 460 q 688 288 688 357 q 644 140 688 208 q 527 31 600 72 q 361 -11 454 -11 q 196 31 268 -11 q 81 140 124 72 q 39 288 39 208 l 39 288 m 176 294 q 201 199 176 242 q 268 129 226 156 q 361 103 310 103 q 458 129 414 103 q 527 199 501 156 q 553 293 553 242 q 528 388 553 346 q 460 457 503 431 q 367 483 418 483 q 272 459 315 485 q 203 390 229 433 q 176 294 176 347 l 176 294 m 253 699 q 287 626 253 656 q 365 596 321 596 q 442 626 410 596 q 475 699 475 656 q 442 781 475 749 q 365 813 410 813 q 286 781 319 813 q 253 699 253 749 l 253 699 z "},"9":{"ha":746,"x_min":53,"x_max":700,"o":"m 328 300 q 194 338 257 300 q 92 441 132 375 q 53 590 53 507 q 98 759 53 688 q 215 869 143 831 q 371 908 288 908 q 538 868 464 908 q 656 756 613 828 q 700 589 700 683 q 659 392 700 481 q 551 230 618 303 q 404 97 485 157 q 243 -18 324 36 l 154 81 q 354 206 269 140 q 488 337 439 271 q 544 461 536 403 l 583 460 q 484 341 542 382 q 328 300 426 300 m 376 414 q 510 461 458 414 q 563 583 563 508 l 563 608 q 536 700 561 660 q 469 764 511 740 q 376 788 428 788 q 283 764 325 788 q 216 698 240 740 q 192 599 192 656 q 217 501 192 543 q 283 436 242 458 q 376 414 325 414 z "},"A":{"ha":974,"x_min":44,"x_max":929,"o":"m 44 0 l 483 1046 l 492 1046 l 929 0 l 775 0 l 447 835 l 543 897 l 176 0 l 44 0 m 301 381 l 675 381 l 719 264 l 263 264 l 301 381 z "},"Á":{"ha":974,"x_min":44,"x_max":929,"o":"m 44 0 l 483 1046 l 492 1046 l 929 0 l 775 0 l 447 835 l 543 897 l 176 0 l 44 0 m 301 381 l 675 381 l 719 264 l 263 264 l 301 381 m 701 1268 l 525 1082 l 443 1082 l 558 1268 l 701 1268 z "},"Ă":{"ha":974,"x_min":44,"x_max":929,"o":"m 44 0 l 483 1046 l 492 1046 l 929 0 l 775 0 l 447 835 l 543 897 l 176 0 l 44 0 m 301 381 l 675 381 l 719 264 l 263 264 l 301 381 m 488 1090 q 385 1119 429 1090 q 315 1202 342 1147 q 278 1335 288 1257 l 365 1335 q 387 1255 372 1290 q 427 1199 401 1219 q 488 1179 453 1179 q 549 1199 525 1179 q 588 1255 574 1219 q 607 1335 601 1290 l 696 1335 q 659 1201 686 1256 q 589 1118 632 1146 q 488 1090 546 1090 z "},"Ắ":{"ha":974,"x_min":44,"x_max":929,"o":"m 44 0 l 483 1046 l 492 1046 l 929 0 l 775 0 l 447 835 l 543 897 l 176 0 l 44 0 m 301 381 l 675 381 l 719 264 l 263 264 l 301 381 m 488 1090 q 385 1119 429 1090 q 315 1202 342 1147 q 278 1335 288 1257 l 365 1335 q 387 1255 372 1290 q 427 1199 401 1219 q 488 1179 453 1179 q 549 1199 525 1179 q 588 1255 574 1219 q 607 1335 601 1290 l 696 1335 q 659 1201 686 1256 q 589 1118 632 1146 q 488 1090 546 1090 m 700 1572 l 524 1386 l 442 1386 l 557 1572 l 700 1572 z "},"Ặ":{"ha":974,"x_min":44,"x_max":929,"o":"m 44 0 l 483 1046 l 492 1046 l 929 0 l 775 0 l 447 835 l 543 897 l 176 0 l 44 0 m 301 381 l 675 381 l 719 264 l 263 264 l 301 381 m 408 -142 q 433 -90 408 -111 q 486 -69 457 -69 q 538 -90 515 -69 q 561 -142 561 -111 q 538 -194 561 -174 q 486 -214 515 -214 q 433 -193 457 -214 q 408 -142 408 -172 m 488 1090 q 385 1119 429 1090 q 315 1202 342 1147 q 278 1335 288 1257 l 365 1335 q 387 1255 372 1290 q 427 1199 401 1219 q 488 1179 453 1179 q 549 1199 525 1179 q 588 1255 574 1219 q 607 1335 601 1290 l 696 1335 q 659 1201 686 1256 q 589 1118 632 1146 q 488 1090 546 1090 z "},"Ằ":{"ha":974,"x_min":44,"x_max":929,"o":"m 44 0 l 483 1046 l 492 1046 l 929 0 l 775 0 l 447 835 l 543 897 l 176 0 l 44 0 m 301 381 l 675 381 l 719 264 l 263 264 l 301 381 m 488 1090 q 385 1119 429 1090 q 315 1202 342 1147 q 278 1335 288 1257 l 365 1335 q 387 1255 372 1290 q 427 1199 401 1219 q 488 1179 453 1179 q 549 1199 525 1179 q 588 1255 574 1219 q 607 1335 601 1290 l 696 1335 q 659 1201 686 1256 q 589 1118 632 1146 q 488 1090 546 1090 m 276 1581 l 419 1581 l 521 1394 l 438 1394 l 276 1581 z "},"Ẳ":{"ha":974,"x_min":44,"x_max":929,"o":"m 44 0 l 483 1046 l 492 1046 l 929 0 l 775 0 l 447 835 l 543 897 l 176 0 l 44 0 m 301 381 l 675 381 l 719 264 l 263 264 l 301 381 m 488 1090 q 385 1119 429 1090 q 315 1202 342 1147 q 278 1335 288 1257 l 365 1335 q 387 1255 372 1290 q 427 1199 401 1219 q 488 1179 453 1179 q 549 1199 525 1179 q 588 1255 574 1219 q 607 1335 601 1290 l 696 1335 q 659 1201 686 1256 q 589 1118 632 1146 q 488 1090 546 1090 m 476 1435 q 520 1474 503 1456 q 538 1519 538 1493 q 526 1554 538 1540 q 493 1568 515 1568 q 456 1556 471 1568 q 428 1525 440 1544 l 379 1557 q 437 1622 403 1601 q 510 1643 471 1643 q 567 1628 544 1643 q 602 1589 590 1614 q 614 1535 614 1564 q 583 1453 614 1486 q 508 1394 551 1421 l 476 1435 z "},"Ẵ":{"ha":974,"x_min":44,"x_max":929,"o":"m 44 0 l 483 1046 l 492 1046 l 929 0 l 775 0 l 447 835 l 543 897 l 176 0 l 44 0 m 301 381 l 675 381 l 719 264 l 263 264 l 301 381 m 488 1090 q 385 1119 429 1090 q 315 1202 342 1147 q 278 1335 288 1257 l 365 1335 q 387 1255 372 1290 q 427 1199 401 1219 q 488 1179 453 1179 q 549 1199 525 1179 q 588 1255 574 1219 q 607 1335 601 1290 l 696 1335 q 659 1201 686 1256 q 589 1118 632 1146 q 488 1090 546 1090 m 592 1435 q 519 1455 547 1435 q 465 1497 490 1475 q 432 1526 449 1513 q 394 1539 415 1539 q 365 1526 378 1539 q 344 1490 351 1513 q 338 1433 338 1467 l 268 1435 q 280 1532 264 1489 q 327 1600 296 1575 q 401 1625 358 1625 q 464 1606 438 1625 q 513 1565 490 1586 q 550 1531 532 1546 q 589 1517 568 1517 q 628 1547 617 1517 q 640 1626 640 1576 l 710 1625 q 701 1525 715 1568 q 657 1458 686 1482 q 592 1435 628 1435 z "},"Â":{"ha":974,"x_min":44,"x_max":929,"o":"m 44 0 l 483 1046 l 492 1046 l 929 0 l 775 0 l 447 835 l 543 897 l 176 0 l 44 0 m 301 381 l 675 381 l 719 264 l 263 264 l 301 381 m 592 1108 l 463 1244 l 500 1253 l 368 1108 l 249 1108 l 478 1346 l 479 1346 l 711 1108 l 592 1108 z "},"Ấ":{"ha":974,"x_min":44,"x_max":929,"o":"m 44 0 l 483 1046 l 492 1046 l 929 0 l 775 0 l 447 835 l 543 897 l 176 0 l 44 0 m 301 381 l 675 381 l 719 264 l 263 264 l 301 381 m 600 1132 l 471 1268 l 508 1276 l 376 1132 l 257 1132 l 486 1369 l 488 1369 l 719 1132 l 600 1132 m 867 1453 l 690 1267 l 608 1267 l 724 1453 l 867 1453 z "},"Ậ":{"ha":974,"x_min":44,"x_max":929,"o":"m 44 0 l 483 1046 l 492 1046 l 929 0 l 775 0 l 447 835 l 543 897 l 176 0 l 44 0 m 301 381 l 675 381 l 719 264 l 263 264 l 301 381 m 408 -142 q 433 -90 408 -111 q 486 -69 457 -69 q 538 -90 515 -69 q 561 -142 561 -111 q 538 -194 561 -174 q 486 -214 515 -214 q 433 -193 457 -214 q 408 -142 408 -172 m 592 1108 l 463 1244 l 500 1253 l 368 1108 l 249 1108 l 478 1346 l 479 1346 l 711 1108 l 592 1108 z "},"Ầ":{"ha":974,"x_min":44,"x_max":929,"o":"m 44 0 l 483 1046 l 492 1046 l 929 0 l 775 0 l 447 835 l 543 897 l 176 0 l 44 0 m 301 381 l 675 381 l 719 264 l 263 264 l 301 381 m 592 1128 l 463 1264 l 500 1272 l 368 1128 l 249 1128 l 478 1365 l 479 1365 l 711 1128 l 592 1128 m 63 1461 l 206 1461 l 307 1275 l 224 1275 l 63 1461 z "},"Ẩ":{"ha":974,"x_min":44,"x_max":929,"o":"m 44 0 l 483 1046 l 492 1046 l 929 0 l 775 0 l 447 835 l 543 897 l 176 0 l 44 0 m 301 381 l 675 381 l 719 264 l 263 264 l 301 381 m 594 1132 l 465 1268 l 503 1276 l 371 1132 l 251 1132 l 481 1369 l 482 1369 l 714 1132 l 594 1132 m 699 1276 q 742 1316 725 1297 q 760 1361 760 1335 q 749 1396 760 1382 q 715 1410 738 1410 q 678 1398 693 1410 q 650 1367 663 1386 l 601 1399 q 659 1464 625 1443 q 732 1485 693 1485 q 790 1470 767 1485 q 824 1431 813 1456 q 836 1376 836 1406 q 805 1295 836 1328 q 731 1236 774 1263 l 699 1276 z "},"Ẫ":{"ha":974,"x_min":44,"x_max":929,"o":"m 44 0 l 483 1046 l 492 1046 l 929 0 l 775 0 l 447 835 l 543 897 l 176 0 l 44 0 m 301 381 l 675 381 l 719 264 l 263 264 l 301 381 m 590 1121 l 461 1257 l 499 1265 l 367 1121 l 247 1121 l 476 1358 l 478 1358 l 710 1121 l 590 1121 m 588 1393 q 515 1413 543 1393 q 461 1456 486 1433 q 428 1484 444 1471 q 390 1497 411 1497 q 360 1484 374 1497 q 340 1447 347 1471 q 333 1392 333 1424 l 264 1392 q 276 1490 260 1446 q 323 1558 292 1533 q 397 1583 354 1583 q 460 1563 433 1583 q 508 1522 486 1543 q 546 1490 528 1504 q 585 1475 564 1475 q 624 1504 613 1475 q 636 1583 636 1533 l 706 1583 q 697 1482 711 1525 q 653 1416 682 1439 q 588 1393 624 1393 z "},"Ȁ":{"ha":974,"x_min":44,"x_max":929,"o":"m 44 0 l 483 1046 l 492 1046 l 929 0 l 775 0 l 447 835 l 543 897 l 176 0 l 44 0 m 301 381 l 675 381 l 719 264 l 263 264 l 301 381 m 208 1290 l 351 1290 l 453 1104 l 369 1104 l 208 1290 m 406 1290 l 549 1290 l 650 1104 l 567 1104 l 406 1290 z "},"Ä":{"ha":974,"x_min":44,"x_max":929,"o":"m 44 0 l 483 1046 l 492 1046 l 929 0 l 775 0 l 447 835 l 543 897 l 176 0 l 44 0 m 301 381 l 675 381 l 719 264 l 263 264 l 301 381 m 279 1167 q 301 1219 279 1197 q 351 1240 324 1240 q 401 1219 378 1240 q 424 1165 424 1197 q 401 1113 424 1133 q 351 1093 378 1093 q 301 1114 324 1093 q 279 1167 279 1135 l 279 1167 m 539 1167 q 562 1219 539 1197 q 613 1240 585 1240 q 660 1219 638 1240 q 683 1165 683 1197 q 660 1113 683 1133 q 613 1093 638 1093 q 562 1114 585 1093 q 539 1167 539 1135 l 539 1167 z "},"Ạ":{"ha":974,"x_min":44,"x_max":929,"o":"m 44 0 l 483 1046 l 492 1046 l 929 0 l 775 0 l 447 835 l 543 897 l 176 0 l 44 0 m 301 381 l 675 381 l 719 264 l 263 264 l 301 381 m 408 -142 q 433 -90 408 -111 q 486 -69 457 -69 q 538 -90 515 -69 q 561 -142 561 -111 q 538 -194 561 -174 q 486 -214 515 -214 q 433 -193 457 -214 q 408 -142 408 -172 z "},"À":{"ha":974,"x_min":44,"x_max":929,"o":"m 44 0 l 483 1046 l 492 1046 l 929 0 l 775 0 l 447 835 l 543 897 l 176 0 l 44 0 m 301 381 l 675 381 l 719 264 l 263 264 l 301 381 m 278 1278 l 421 1278 l 522 1092 l 439 1092 l 278 1278 z "},"Ả":{"ha":974,"x_min":44,"x_max":929,"o":"m 44 0 l 483 1046 l 492 1046 l 929 0 l 775 0 l 447 835 l 543 897 l 176 0 l 44 0 m 301 381 l 675 381 l 719 264 l 263 264 l 301 381 m 478 1131 q 522 1170 504 1151 q 539 1215 539 1189 q 528 1250 539 1236 q 494 1264 517 1264 q 457 1252 472 1264 q 429 1221 442 1240 l 381 1253 q 438 1318 404 1297 q 511 1339 472 1339 q 569 1324 546 1339 q 603 1285 592 1310 q 615 1231 615 1260 q 584 1149 615 1182 q 510 1090 553 1117 l 478 1131 z "},"Ȃ":{"ha":974,"x_min":44,"x_max":929,"o":"m 44 0 l 483 1046 l 492 1046 l 929 0 l 775 0 l 447 835 l 543 897 l 176 0 l 44 0 m 301 381 l 675 381 l 719 264 l 263 264 l 301 381 m 481 1303 q 583 1274 540 1303 q 654 1191 626 1246 q 690 1058 682 1136 l 603 1058 q 582 1138 597 1103 q 542 1194 567 1174 q 481 1214 518 1214 q 421 1194 446 1214 q 381 1138 396 1174 q 361 1058 367 1103 l 272 1058 q 309 1192 282 1138 q 380 1275 336 1247 q 481 1303 424 1303 z "},"Ā":{"ha":974,"x_min":44,"x_max":929,"o":"m 44 0 l 483 1046 l 492 1046 l 929 0 l 775 0 l 447 835 l 543 897 l 176 0 l 44 0 m 301 381 l 675 381 l 719 264 l 263 264 l 301 381 m 313 1188 l 654 1188 l 654 1096 l 313 1096 l 313 1188 z "},"Ą":{"ha":974,"x_min":44,"x_max":982,"o":"m 44 0 l 483 1046 l 492 1046 l 929 0 l 775 0 l 447 835 l 543 897 l 176 0 l 44 0 m 301 381 l 675 381 l 719 264 l 263 264 l 301 381 m 826 -299 q 711 -257 758 -299 q 664 -147 664 -215 q 698 -54 664 -99 q 789 15 732 -10 l 931 0 q 815 -65 858 -33 q 771 -137 771 -97 q 792 -190 771 -174 q 838 -206 813 -206 q 889 -188 865 -206 q 932 -140 913 -171 l 982 -206 q 914 -272 958 -246 q 826 -299 869 -299 z "},"Å":{"ha":974,"x_min":44,"x_max":929,"o":"m 44 0 l 483 1046 l 492 1046 l 929 0 l 775 0 l 447 835 l 543 897 l 176 0 l 44 0 m 301 381 l 675 381 l 719 264 l 263 264 l 301 381 m 360 1215 q 397 1305 360 1271 q 490 1339 433 1339 q 582 1305 544 1339 q 619 1215 619 1271 q 582 1126 619 1161 q 489 1092 544 1092 q 397 1126 433 1092 q 360 1215 360 1161 m 431 1214 q 447 1170 431 1188 q 490 1153 464 1153 q 532 1170 515 1153 q 549 1214 549 1188 q 532 1258 549 1242 q 490 1275 515 1275 q 447 1258 464 1275 q 431 1214 431 1242 z "},"Ǻ":{"ha":974,"x_min":44,"x_max":929,"o":"m 44 0 l 483 1046 l 492 1046 l 929 0 l 775 0 l 447 835 l 543 897 l 176 0 l 44 0 m 301 381 l 675 381 l 719 264 l 263 264 l 301 381 m 360 1215 q 397 1305 360 1271 q 490 1339 433 1339 q 582 1305 544 1339 q 619 1215 619 1271 q 582 1126 619 1161 q 489 1092 544 1092 q 397 1126 433 1092 q 360 1215 360 1161 m 431 1214 q 447 1170 431 1188 q 490 1153 464 1153 q 532 1170 515 1153 q 549 1214 549 1188 q 532 1258 549 1242 q 490 1275 515 1275 q 447 1258 464 1275 q 431 1214 431 1242 m 701 1578 l 525 1392 l 443 1392 l 558 1578 l 701 1578 z "},"Ã":{"ha":974,"x_min":44,"x_max":929,"o":"m 44 0 l 483 1046 l 492 1046 l 929 0 l 775 0 l 447 835 l 543 897 l 176 0 l 44 0 m 301 381 l 675 381 l 719 264 l 263 264 l 301 381 m 593 1131 q 520 1151 549 1131 q 467 1193 492 1171 q 433 1222 450 1208 q 396 1235 417 1235 q 366 1222 379 1235 q 346 1185 353 1208 q 339 1129 339 1163 l 269 1131 q 281 1228 265 1185 q 328 1296 297 1271 q 403 1321 360 1321 q 465 1301 439 1321 q 514 1261 492 1282 q 551 1227 533 1242 q 590 1213 569 1213 q 630 1242 618 1213 q 642 1322 642 1272 l 711 1321 q 702 1221 717 1264 q 658 1154 688 1178 q 593 1131 629 1131 z "},"Æ":{"ha":1319,"x_min":18,"x_max":1231,"o":"m 663 1004 l 1211 1004 l 1211 874 l 797 874 l 797 567 l 1154 567 l 1154 438 l 797 438 l 797 129 l 1231 129 l 1231 0 l 663 0 l 663 1004 m 682 854 q 674 824 679 840 q 668 806 669 808 l 172 0 l 18 0 l 663 1004 l 682 854 m 321 356 l 682 356 l 682 249 l 281 249 l 321 356 z "},"Ǽ":{"ha":1319,"x_min":18,"x_max":1231,"o":"m 663 1004 l 1211 1004 l 1211 874 l 797 874 l 797 567 l 1154 567 l 1154 438 l 797 438 l 797 129 l 1231 129 l 1231 0 l 663 0 l 663 1004 m 682 854 q 674 824 679 840 q 668 806 669 808 l 172 0 l 18 0 l 663 1004 l 682 854 m 321 356 l 682 356 l 682 249 l 281 249 l 321 356 m 1121 1251 l 944 1065 l 863 1065 l 978 1251 l 1121 1251 z "},"B":{"ha":858,"x_min":144,"x_max":776,"o":"m 403 1004 q 641 942 554 1004 q 728 750 728 881 q 692 613 728 671 q 591 521 656 554 q 439 483 526 488 l 419 553 q 601 517 521 550 q 729 424 682 483 q 776 282 776 364 q 749 153 776 207 q 674 66 721 100 q 567 16 626 32 q 443 0 507 0 l 144 0 l 144 1004 l 403 1004 m 431 564 q 551 610 514 564 q 589 724 589 657 q 540 839 589 803 q 410 875 492 875 l 279 875 l 279 564 l 431 564 m 436 125 q 538 142 492 125 q 612 193 585 158 q 639 281 639 228 q 608 372 639 339 q 528 420 576 406 q 428 435 479 435 l 279 435 l 279 125 l 436 125 z "},"C":{"ha":964,"x_min":82,"x_max":882,"o":"m 882 75 q 814 38 857 58 q 713 3 771 17 q 588 -11 656 -11 q 377 31 471 -10 q 218 140 283 71 q 117 301 153 210 q 82 494 82 392 q 119 702 82 607 q 222 867 156 797 q 380 976 289 938 q 579 1015 471 1015 q 743 991 669 1015 q 869 933 817 967 l 815 808 q 715 861 774 836 q 583 886 656 886 q 444 857 510 886 q 329 775 379 828 q 251 652 279 722 q 222 501 222 582 q 248 349 222 419 q 322 228 274 279 q 438 147 369 176 q 590 118 506 118 q 726 142 667 118 q 825 194 786 165 l 882 75 z "},"Ć":{"ha":964,"x_min":82,"x_max":882,"o":"m 882 75 q 814 38 857 58 q 713 3 771 17 q 588 -11 656 -11 q 377 31 471 -10 q 218 140 283 71 q 117 301 153 210 q 82 494 82 392 q 119 702 82 607 q 222 867 156 797 q 380 976 289 938 q 579 1015 471 1015 q 743 991 669 1015 q 869 933 817 967 l 815 808 q 715 861 774 836 q 583 886 656 886 q 444 857 510 886 q 329 775 379 828 q 251 652 279 722 q 222 501 222 582 q 248 349 222 419 q 322 228 274 279 q 438 147 369 176 q 590 118 506 118 q 726 142 667 118 q 825 194 786 165 l 882 75 m 768 1256 l 592 1069 l 510 1069 l 625 1256 l 768 1256 z "},"Č":{"ha":964,"x_min":82,"x_max":882,"o":"m 882 75 q 814 38 857 58 q 713 3 771 17 q 588 -11 656 -11 q 377 31 471 -10 q 218 140 283 71 q 117 301 153 210 q 82 494 82 392 q 119 702 82 607 q 222 867 156 797 q 380 976 289 938 q 579 1015 471 1015 q 743 991 669 1015 q 869 933 817 967 l 815 808 q 715 861 774 836 q 583 886 656 886 q 444 857 510 886 q 329 775 379 828 q 251 652 279 722 q 222 501 222 582 q 248 349 222 419 q 322 228 274 279 q 438 147 369 176 q 590 118 506 118 q 726 142 667 118 q 825 194 786 165 l 882 75 m 438 1300 l 569 1163 l 531 1154 l 663 1300 l 782 1300 l 553 1061 l 551 1061 l 318 1300 l 438 1300 z "},"Ç":{"ha":964,"x_min":82,"x_max":882,"o":"m 882 75 q 814 38 857 58 q 713 3 771 17 q 588 -11 656 -11 q 377 31 471 -10 q 218 140 283 71 q 117 301 153 210 q 82 494 82 392 q 119 702 82 607 q 222 867 156 797 q 380 976 289 938 q 579 1015 471 1015 q 743 991 669 1015 q 869 933 817 967 l 815 808 q 715 861 774 836 q 583 886 656 886 q 444 857 510 886 q 329 775 379 828 q 251 652 279 722 q 222 501 222 582 q 248 349 222 419 q 322 228 274 279 q 438 147 369 176 q 590 118 506 118 q 726 142 667 118 q 825 194 786 165 l 882 75 m 450 -214 q 489 -240 465 -229 q 543 -250 513 -250 q 608 -234 579 -250 q 638 -187 638 -218 q 618 -144 638 -164 q 547 -124 599 -124 q 500 -129 525 -124 q 457 -142 475 -135 l 433 -79 l 531 11 l 629 6 l 529 -111 l 499 -79 q 536 -69 514 -72 q 579 -64 558 -65 q 700 -93 653 -62 q 747 -185 747 -124 q 720 -262 747 -232 q 650 -306 693 -292 q 556 -321 607 -321 q 467 -305 504 -321 q 408 -268 431 -289 l 450 -214 z "},"Ĉ":{"ha":964,"x_min":82,"x_max":882,"o":"m 882 75 q 814 38 857 58 q 713 3 771 17 q 588 -11 656 -11 q 377 31 471 -10 q 218 140 283 71 q 117 301 153 210 q 82 494 82 392 q 119 702 82 607 q 222 867 156 797 q 380 976 289 938 q 579 1015 471 1015 q 743 991 669 1015 q 869 933 817 967 l 815 808 q 715 861 774 836 q 583 886 656 886 q 444 857 510 886 q 329 775 379 828 q 251 652 279 722 q 222 501 222 582 q 248 349 222 419 q 322 228 274 279 q 438 147 369 176 q 590 118 506 118 q 726 142 667 118 q 825 194 786 165 l 882 75 m 658 1096 l 529 1232 l 567 1240 l 435 1096 l 315 1096 l 544 1333 l 546 1333 l 778 1096 l 658 1096 z "},"Ċ":{"ha":964,"x_min":82,"x_max":882,"o":"m 882 75 q 814 38 857 58 q 713 3 771 17 q 588 -11 656 -11 q 377 31 471 -10 q 218 140 283 71 q 117 301 153 210 q 82 494 82 392 q 119 702 82 607 q 222 867 156 797 q 380 976 289 938 q 579 1015 471 1015 q 743 991 669 1015 q 869 933 817 967 l 815 808 q 715 861 774 836 q 583 886 656 886 q 444 857 510 886 q 329 775 379 828 q 251 652 279 722 q 222 501 222 582 q 248 349 222 419 q 322 228 274 279 q 438 147 369 176 q 590 118 506 118 q 726 142 667 118 q 825 194 786 165 l 882 75 m 478 1151 q 502 1203 478 1182 q 556 1224 526 1224 q 608 1203 585 1224 q 631 1151 631 1182 q 608 1099 631 1119 q 556 1079 585 1079 q 502 1100 526 1079 q 478 1151 478 1121 z "},"D":{"ha":1046,"x_min":144,"x_max":964,"o":"m 144 0 l 144 1004 l 418 1004 q 672 958 567 1004 q 840 838 776 913 q 934 672 904 763 q 964 490 964 581 q 924 286 964 376 q 815 132 885 196 q 656 34 746 68 q 467 0 567 0 l 144 0 m 279 129 l 440 129 q 594 154 524 129 q 716 226 664 179 q 797 342 768 274 q 826 499 826 411 q 796 662 826 592 q 713 779 765 732 q 593 851 660 826 q 453 875 526 875 l 279 875 l 279 129 z "},"Ǆ":{"ha":1971,"x_min":144,"x_max":1894,"o":"m 144 0 l 144 1004 l 418 1004 q 672 958 567 1004 q 840 838 776 913 q 934 672 904 763 q 964 490 964 581 q 924 286 964 376 q 815 132 885 196 q 656 34 746 68 q 467 0 567 0 l 144 0 m 279 129 l 440 129 q 594 154 524 129 q 716 226 664 179 q 797 342 768 274 q 826 499 826 411 q 796 662 826 592 q 713 779 765 732 q 593 851 660 826 q 453 875 526 875 l 279 875 l 279 129 m 1051 0 q 1098 68 1067 22 q 1171 176 1129 114 q 1260 311 1213 239 q 1359 458 1308 383 q 1458 605 1410 533 q 1547 738 1506 676 q 1620 845 1589 800 q 1667 911 1651 890 l 1685 875 l 1221 875 q 1168 885 1194 875 q 1125 914 1142 894 q 1108 960 1108 933 l 1108 1054 l 1233 1054 l 1233 1036 q 1243 1008 1233 1011 q 1276 1004 1253 1004 l 1878 1004 l 1271 113 l 1263 129 l 1894 129 l 1894 0 l 1051 0 m 1360 1278 l 1492 1140 l 1453 1132 l 1585 1278 l 1704 1278 l 1475 1039 l 1474 1039 l 1240 1278 l 1360 1278 z "},"Ð":{"ha":1046,"x_min":24,"x_max":964,"o":"m 144 0 l 144 1004 l 418 1004 q 672 958 567 1004 q 840 838 776 913 q 934 672 904 763 q 964 490 964 581 q 924 286 964 376 q 815 132 885 196 q 656 34 746 68 q 467 0 567 0 l 144 0 m 279 129 l 440 129 q 594 154 524 129 q 716 226 664 179 q 797 342 768 274 q 826 499 826 411 q 796 662 826 592 q 713 779 765 732 q 593 851 660 826 q 453 875 526 875 l 279 875 l 279 129 m 24 558 l 408 558 l 408 438 l 24 438 l 24 558 z "},"Ď":{"ha":1046,"x_min":144,"x_max":964,"o":"m 144 0 l 144 1004 l 418 1004 q 672 958 567 1004 q 840 838 776 913 q 934 672 904 763 q 964 490 964 581 q 924 286 964 376 q 815 132 885 196 q 656 34 746 68 q 467 0 567 0 l 144 0 m 279 129 l 440 129 q 594 154 524 129 q 716 226 664 179 q 797 342 768 274 q 826 499 826 411 q 796 662 826 592 q 713 779 765 732 q 593 851 660 826 q 453 875 526 875 l 279 875 l 279 129 m 311 1278 l 443 1140 l 404 1132 l 536 1278 l 656 1278 l 426 1039 l 425 1039 l 192 1278 l 311 1278 z "},"Đ":{"ha":1056,"x_min":33,"x_max":974,"o":"m 154 0 l 154 1004 l 428 1004 q 681 958 576 1004 q 850 838 786 913 q 944 672 914 763 q 974 490 974 581 q 934 286 974 376 q 825 132 894 196 q 666 34 756 68 q 476 0 576 0 l 154 0 m 289 129 l 450 129 q 603 154 533 129 q 726 226 674 179 q 807 342 778 274 q 836 499 836 411 q 806 662 836 592 q 722 779 775 732 q 603 851 669 826 q 463 875 536 875 l 289 875 l 289 129 m 33 558 l 418 558 l 418 438 l 33 438 l 33 558 z "},"ǅ":{"ha":1689,"x_min":144,"x_max":1622,"o":"m 144 0 l 144 1004 l 418 1004 q 672 958 567 1004 q 840 838 776 913 q 934 672 904 763 q 964 490 964 581 q 924 286 964 376 q 815 132 885 196 q 656 34 746 68 q 467 0 567 0 l 144 0 m 279 129 l 440 129 q 594 154 524 129 q 716 226 664 179 q 797 342 768 274 q 826 499 826 411 q 796 662 826 592 q 713 779 765 732 q 593 851 660 826 q 453 875 526 875 l 279 875 l 279 129 m 1211 469 q 1138 496 1168 469 q 1107 575 1107 522 l 1107 629 l 1206 629 l 1206 611 q 1217 582 1206 589 q 1253 575 1228 575 l 1621 575 l 1276 79 l 1251 107 l 1617 107 l 1617 0 l 1085 0 l 1436 506 l 1458 469 l 1211 469 m 1268 885 l 1400 747 l 1361 739 l 1493 885 l 1613 885 l 1383 646 l 1382 646 l 1149 885 l 1268 885 z "},"E":{"ha":906,"x_min":144,"x_max":817,"o":"m 144 1004 l 797 1004 l 797 875 l 279 875 l 279 569 l 742 569 l 742 440 l 279 440 l 279 129 l 817 129 l 817 0 l 144 0 l 144 1004 z "},"É":{"ha":906,"x_min":144,"x_max":817,"o":"m 144 1004 l 797 1004 l 797 875 l 279 875 l 279 569 l 742 569 l 742 440 l 279 440 l 279 129 l 817 129 l 817 0 l 144 0 l 144 1004 m 679 1251 l 503 1065 l 421 1065 l 536 1251 l 679 1251 z "},"Ĕ":{"ha":906,"x_min":144,"x_max":817,"o":"m 144 1004 l 797 1004 l 797 875 l 279 875 l 279 569 l 742 569 l 742 440 l 279 440 l 279 129 l 817 129 l 817 0 l 144 0 l 144 1004 m 465 1074 q 363 1102 407 1074 q 292 1185 319 1131 q 256 1318 265 1240 l 343 1318 q 365 1238 350 1274 q 405 1183 379 1203 q 465 1163 431 1163 q 527 1183 503 1163 q 565 1238 551 1203 q 585 1318 579 1274 l 674 1318 q 637 1184 664 1239 q 567 1101 610 1129 q 465 1074 524 1074 z "},"Ě":{"ha":906,"x_min":144,"x_max":817,"o":"m 144 1004 l 797 1004 l 797 875 l 279 875 l 279 569 l 742 569 l 742 440 l 279 440 l 279 129 l 817 129 l 817 0 l 144 0 l 144 1004 m 349 1294 l 481 1157 l 442 1149 l 574 1294 l 693 1294 l 464 1056 l 463 1056 l 229 1294 l 349 1294 z "},"Ê":{"ha":906,"x_min":144,"x_max":817,"o":"m 144 1004 l 797 1004 l 797 875 l 279 875 l 279 569 l 742 569 l 742 440 l 279 440 l 279 129 l 817 129 l 817 0 l 144 0 l 144 1004 m 569 1090 l 440 1226 l 478 1235 l 346 1090 l 226 1090 l 456 1328 l 457 1328 l 689 1090 l 569 1090 z "},"Ế":{"ha":906,"x_min":144,"x_max":844,"o":"m 144 1004 l 797 1004 l 797 875 l 279 875 l 279 569 l 742 569 l 742 440 l 279 440 l 279 129 l 817 129 l 817 0 l 144 0 l 144 1004 m 578 1114 l 449 1250 l 486 1258 l 354 1114 l 235 1114 l 464 1351 l 465 1351 l 697 1114 l 578 1114 m 844 1435 l 668 1249 l 586 1249 l 701 1435 l 844 1435 z "},"Ệ":{"ha":906,"x_min":144,"x_max":817,"o":"m 144 1004 l 797 1004 l 797 875 l 279 875 l 279 569 l 742 569 l 742 440 l 279 440 l 279 129 l 817 129 l 817 0 l 144 0 l 144 1004 m 386 -142 q 410 -90 386 -111 q 464 -69 435 -69 q 516 -90 493 -69 q 539 -142 539 -111 q 516 -194 539 -174 q 464 -214 493 -214 q 410 -193 435 -214 q 386 -142 386 -172 m 569 1090 l 440 1226 l 478 1235 l 346 1090 l 226 1090 l 456 1328 l 457 1328 l 689 1090 l 569 1090 z "},"Ề":{"ha":906,"x_min":40,"x_max":817,"o":"m 144 1004 l 797 1004 l 797 875 l 279 875 l 279 569 l 742 569 l 742 440 l 279 440 l 279 129 l 817 129 l 817 0 l 144 0 l 144 1004 m 569 1110 l 440 1246 l 478 1254 l 346 1110 l 226 1110 l 456 1347 l 457 1347 l 689 1110 l 569 1110 m 40 1443 l 183 1443 l 285 1257 l 201 1257 l 40 1443 z "},"Ể":{"ha":906,"x_min":144,"x_max":817,"o":"m 144 1004 l 797 1004 l 797 875 l 279 875 l 279 569 l 742 569 l 742 440 l 279 440 l 279 129 l 817 129 l 817 0 l 144 0 l 144 1004 m 572 1114 l 443 1250 l 481 1258 l 349 1114 l 229 1114 l 458 1351 l 460 1351 l 692 1114 l 572 1114 m 676 1258 q 720 1298 703 1279 q 738 1343 738 1317 q 726 1378 738 1364 q 693 1392 715 1392 q 656 1380 671 1392 q 628 1349 640 1368 l 579 1381 q 637 1446 603 1425 q 710 1467 671 1467 q 767 1452 744 1467 q 802 1413 790 1438 q 814 1358 814 1388 q 783 1277 814 1310 q 708 1218 751 1244 l 676 1258 z "},"Ễ":{"ha":906,"x_min":144,"x_max":817,"o":"m 144 1004 l 797 1004 l 797 875 l 279 875 l 279 569 l 742 569 l 742 440 l 279 440 l 279 129 l 817 129 l 817 0 l 144 0 l 144 1004 m 568 1104 l 439 1240 l 476 1249 l 344 1104 l 225 1104 l 454 1342 l 456 1342 l 688 1104 l 568 1104 m 565 1376 q 492 1397 521 1376 q 439 1439 464 1417 q 406 1467 422 1454 q 368 1481 389 1481 q 338 1467 351 1481 q 318 1431 325 1454 q 311 1375 311 1407 l 242 1375 q 253 1473 238 1429 q 301 1542 269 1517 q 375 1567 332 1567 q 438 1547 411 1567 q 486 1506 464 1526 q 524 1473 506 1488 q 563 1458 542 1458 q 602 1488 590 1458 q 614 1567 614 1517 l 683 1567 q 674 1465 689 1508 q 631 1399 660 1422 q 565 1376 601 1376 z "},"Ȅ":{"ha":906,"x_min":144,"x_max":817,"o":"m 144 1004 l 797 1004 l 797 875 l 279 875 l 279 569 l 742 569 l 742 440 l 279 440 l 279 129 l 817 129 l 817 0 l 144 0 l 144 1004 m 186 1274 l 329 1274 l 431 1088 l 347 1088 l 186 1274 m 383 1274 l 526 1274 l 628 1088 l 544 1088 l 383 1274 z "},"Ë":{"ha":906,"x_min":144,"x_max":817,"o":"m 144 1004 l 797 1004 l 797 875 l 279 875 l 279 569 l 742 569 l 742 440 l 279 440 l 279 129 l 817 129 l 817 0 l 144 0 l 144 1004 m 257 1150 q 279 1202 257 1181 q 329 1224 301 1224 q 378 1202 356 1224 q 401 1149 401 1181 q 378 1097 401 1117 q 329 1076 356 1076 q 279 1097 301 1076 q 257 1150 257 1118 l 257 1150 m 517 1150 q 540 1202 517 1181 q 590 1224 563 1224 q 638 1202 615 1224 q 661 1149 661 1181 q 638 1097 661 1117 q 590 1076 615 1076 q 540 1097 563 1076 q 517 1150 517 1118 l 517 1150 z "},"Ė":{"ha":906,"x_min":144,"x_max":817,"o":"m 144 1004 l 797 1004 l 797 875 l 279 875 l 279 569 l 742 569 l 742 440 l 279 440 l 279 129 l 817 129 l 817 0 l 144 0 l 144 1004 m 389 1147 q 413 1199 389 1178 q 467 1219 438 1219 q 519 1199 496 1219 q 542 1147 542 1178 q 519 1095 542 1115 q 467 1075 496 1075 q 413 1096 438 1075 q 389 1147 389 1117 z "},"Ẹ":{"ha":906,"x_min":144,"x_max":817,"o":"m 144 1004 l 797 1004 l 797 875 l 279 875 l 279 569 l 742 569 l 742 440 l 279 440 l 279 129 l 817 129 l 817 0 l 144 0 l 144 1004 m 386 -142 q 410 -90 386 -111 q 464 -69 435 -69 q 516 -90 493 -69 q 539 -142 539 -111 q 516 -194 539 -174 q 464 -214 493 -214 q 410 -193 435 -214 q 386 -142 386 -172 z "},"È":{"ha":906,"x_min":144,"x_max":817,"o":"m 144 1004 l 797 1004 l 797 875 l 279 875 l 279 569 l 742 569 l 742 440 l 279 440 l 279 129 l 817 129 l 817 0 l 144 0 l 144 1004 m 256 1260 l 399 1260 l 500 1074 l 417 1074 l 256 1260 z "},"Ẻ":{"ha":906,"x_min":144,"x_max":817,"o":"m 144 1004 l 797 1004 l 797 875 l 279 875 l 279 569 l 742 569 l 742 440 l 279 440 l 279 129 l 817 129 l 817 0 l 144 0 l 144 1004 m 456 1114 q 499 1153 482 1135 q 517 1199 517 1172 q 506 1233 517 1219 q 472 1247 494 1247 q 435 1235 450 1247 q 407 1204 419 1224 l 358 1236 q 416 1301 382 1281 q 489 1322 450 1322 q 547 1308 524 1322 q 581 1268 569 1293 q 593 1214 593 1243 q 562 1133 593 1165 q 488 1074 531 1100 l 456 1114 z "},"Ȇ":{"ha":906,"x_min":144,"x_max":817,"o":"m 144 1004 l 797 1004 l 797 875 l 279 875 l 279 569 l 742 569 l 742 440 l 279 440 l 279 129 l 817 129 l 817 0 l 144 0 l 144 1004 m 458 1286 q 561 1258 518 1286 q 632 1174 604 1229 q 668 1042 660 1119 l 581 1042 q 560 1122 575 1086 q 520 1177 544 1157 q 458 1197 496 1197 q 399 1177 424 1197 q 359 1122 374 1157 q 339 1042 344 1086 l 250 1042 q 287 1176 260 1121 q 358 1258 314 1231 q 458 1286 401 1286 z "},"Ē":{"ha":906,"x_min":144,"x_max":817,"o":"m 144 1004 l 797 1004 l 797 875 l 279 875 l 279 569 l 742 569 l 742 440 l 279 440 l 279 129 l 817 129 l 817 0 l 144 0 l 144 1004 m 290 1171 l 632 1171 l 632 1079 l 290 1079 l 290 1171 z "},"Ę":{"ha":906,"x_min":144,"x_max":868,"o":"m 144 1004 l 797 1004 l 797 875 l 279 875 l 279 569 l 742 569 l 742 440 l 279 440 l 279 129 l 817 129 l 817 0 l 144 0 l 144 1004 m 713 -299 q 597 -257 644 -299 q 550 -147 550 -215 q 584 -54 550 -99 q 675 15 618 -10 l 817 0 q 701 -65 744 -33 q 657 -137 657 -97 q 678 -190 657 -174 q 724 -206 699 -206 q 775 -188 751 -206 q 818 -140 799 -171 l 868 -206 q 800 -272 844 -246 q 713 -299 756 -299 z "},"Ẽ":{"ha":906,"x_min":144,"x_max":817,"o":"m 144 1004 l 797 1004 l 797 875 l 279 875 l 279 569 l 742 569 l 742 440 l 279 440 l 279 129 l 817 129 l 817 0 l 144 0 l 144 1004 m 571 1114 q 498 1134 526 1114 q 444 1176 469 1154 q 411 1205 428 1192 q 374 1218 394 1218 q 344 1205 357 1218 q 324 1169 331 1192 q 317 1113 317 1146 l 247 1114 q 259 1211 243 1168 q 306 1279 275 1254 q 381 1304 338 1304 q 443 1285 417 1304 q 492 1244 469 1265 q 529 1210 511 1225 q 568 1196 547 1196 q 608 1226 596 1196 q 619 1306 619 1256 l 689 1304 q 680 1204 694 1247 q 636 1138 665 1161 q 571 1114 607 1114 z "},"F":{"ha":818,"x_min":144,"x_max":740,"o":"m 144 1004 l 740 1004 l 740 875 l 279 875 l 279 554 l 683 554 l 683 426 l 279 426 l 279 0 l 144 0 l 144 1004 z "},"G":{"ha":1043,"x_min":82,"x_max":931,"o":"m 931 86 q 872 51 910 68 q 790 19 835 33 q 697 -3 744 6 q 607 -11 649 -11 q 390 26 486 -11 q 224 131 293 64 q 119 288 156 197 q 82 483 82 378 q 123 708 82 608 q 235 876 164 807 q 400 980 307 944 q 597 1015 493 1015 q 760 994 685 1015 q 892 942 835 974 l 846 818 q 777 849 818 835 q 693 872 736 863 q 613 881 650 881 q 451 853 524 881 q 328 776 379 826 q 249 653 276 725 q 221 493 221 582 q 249 343 221 411 q 328 226 276 275 q 451 149 379 176 q 608 122 522 122 q 710 133 660 122 q 796 163 760 143 l 796 363 l 596 363 l 596 492 l 931 492 l 931 86 z "},"Ğ":{"ha":1043,"x_min":82,"x_max":931,"o":"m 931 86 q 872 51 910 68 q 790 19 835 33 q 697 -3 744 6 q 607 -11 649 -11 q 390 26 486 -11 q 224 131 293 64 q 119 288 156 197 q 82 483 82 378 q 123 708 82 608 q 235 876 164 807 q 400 980 307 944 q 597 1015 493 1015 q 760 994 685 1015 q 892 942 835 974 l 846 818 q 777 849 818 835 q 693 872 736 863 q 613 881 650 881 q 451 853 524 881 q 328 776 379 826 q 249 653 276 725 q 221 493 221 582 q 249 343 221 411 q 328 226 276 275 q 451 149 379 176 q 608 122 522 122 q 710 133 660 122 q 796 163 760 143 l 796 363 l 596 363 l 596 492 l 931 492 l 931 86 m 567 1056 q 465 1084 508 1056 q 394 1167 421 1113 q 357 1300 367 1222 l 444 1300 q 466 1220 451 1256 q 506 1165 481 1185 q 567 1144 532 1144 q 628 1165 604 1144 q 667 1220 653 1185 q 686 1300 681 1256 l 775 1300 q 738 1166 765 1221 q 668 1083 711 1111 q 567 1056 625 1056 z "},"Ǧ":{"ha":1043,"x_min":82,"x_max":931,"o":"m 931 86 q 872 51 910 68 q 790 19 835 33 q 697 -3 744 6 q 607 -11 649 -11 q 390 26 486 -11 q 224 131 293 64 q 119 288 156 197 q 82 483 82 378 q 123 708 82 608 q 235 876 164 807 q 400 980 307 944 q 597 1015 493 1015 q 760 994 685 1015 q 892 942 835 974 l 846 818 q 777 849 818 835 q 693 872 736 863 q 613 881 650 881 q 451 853 524 881 q 328 776 379 826 q 249 653 276 725 q 221 493 221 582 q 249 343 221 411 q 328 226 276 275 q 451 149 379 176 q 608 122 522 122 q 710 133 660 122 q 796 163 760 143 l 796 363 l 596 363 l 596 492 l 931 492 l 931 86 m 450 1278 l 582 1140 l 543 1132 l 675 1278 l 794 1278 l 565 1039 l 564 1039 l 331 1278 l 450 1278 z "},"Ĝ":{"ha":1043,"x_min":82,"x_max":931,"o":"m 931 86 q 872 51 910 68 q 790 19 835 33 q 697 -3 744 6 q 607 -11 649 -11 q 390 26 486 -11 q 224 131 293 64 q 119 288 156 197 q 82 483 82 378 q 123 708 82 608 q 235 876 164 807 q 400 980 307 944 q 597 1015 493 1015 q 760 994 685 1015 q 892 942 835 974 l 846 818 q 777 849 818 835 q 693 872 736 863 q 613 881 650 881 q 451 853 524 881 q 328 776 379 826 q 249 653 276 725 q 221 493 221 582 q 249 343 221 411 q 328 226 276 275 q 451 149 379 176 q 608 122 522 122 q 710 133 660 122 q 796 163 760 143 l 796 363 l 596 363 l 596 492 l 931 492 l 931 86 m 669 1074 l 540 1210 l 578 1218 l 446 1074 l 326 1074 l 556 1311 l 557 1311 l 789 1074 l 669 1074 z "},"Ģ":{"ha":1043,"x_min":82,"x_max":931,"o":"m 931 86 q 872 51 910 68 q 790 19 835 33 q 697 -3 744 6 q 607 -11 649 -11 q 390 26 486 -11 q 224 131 293 64 q 119 288 156 197 q 82 483 82 378 q 123 708 82 608 q 235 876 164 807 q 400 980 307 944 q 597 1015 493 1015 q 760 994 685 1015 q 892 942 835 974 l 846 818 q 777 849 818 835 q 693 872 736 863 q 613 881 650 881 q 451 853 524 881 q 328 776 379 826 q 249 653 276 725 q 221 493 221 582 q 249 343 221 411 q 328 226 276 275 q 451 149 379 176 q 608 122 522 122 q 710 133 660 122 q 796 163 760 143 l 796 363 l 596 363 l 596 492 l 931 492 l 931 86 m 489 -297 l 422 -251 q 471 -171 457 -224 q 476 -67 485 -118 l 592 -67 q 588 -149 597 -104 q 553 -233 578 -193 q 489 -297 529 -272 z "},"Ġ":{"ha":1043,"x_min":82,"x_max":931,"o":"m 931 86 q 872 51 910 68 q 790 19 835 33 q 697 -3 744 6 q 607 -11 649 -11 q 390 26 486 -11 q 224 131 293 64 q 119 288 156 197 q 82 483 82 378 q 123 708 82 608 q 235 876 164 807 q 400 980 307 944 q 597 1015 493 1015 q 760 994 685 1015 q 892 942 835 974 l 846 818 q 777 849 818 835 q 693 872 736 863 q 613 881 650 881 q 451 853 524 881 q 328 776 379 826 q 249 653 276 725 q 221 493 221 582 q 249 343 221 411 q 328 226 276 275 q 451 149 379 176 q 608 122 522 122 q 710 133 660 122 q 796 163 760 143 l 796 363 l 596 363 l 596 492 l 931 492 l 931 86 m 489 1129 q 513 1181 489 1160 q 567 1201 538 1201 q 619 1181 596 1201 q 642 1129 642 1160 q 619 1077 642 1097 q 567 1057 596 1057 q 513 1078 538 1057 q 489 1129 489 1099 z "},"H":{"ha":1083,"x_min":144,"x_max":939,"o":"m 939 1004 l 939 0 l 806 0 l 806 440 l 279 440 l 279 0 l 144 0 l 144 1004 l 279 1004 l 279 568 l 806 568 l 806 1004 l 939 1004 z "},"Ħ":{"ha":1310,"x_min":144,"x_max":1165,"o":"m 144 790 l 1165 790 l 1165 689 l 144 689 l 144 790 m 1044 1004 l 1044 0 l 910 0 l 910 440 l 385 440 l 385 0 l 250 0 l 250 1004 l 385 1004 l 385 568 l 910 568 l 910 1004 l 1044 1004 z "},"Ĥ":{"ha":1083,"x_min":144,"x_max":939,"o":"m 939 1004 l 939 0 l 806 0 l 806 440 l 279 440 l 279 0 l 144 0 l 144 1004 l 279 1004 l 279 568 l 806 568 l 806 1004 l 939 1004 m 647 1074 l 518 1210 l 556 1218 l 424 1074 l 304 1074 l 533 1311 l 535 1311 l 767 1074 l 647 1074 z "},"I":{"ha":424,"x_min":144,"x_max":279,"o":"m 144 1004 l 279 1004 l 279 0 l 144 0 l 144 1004 z "},"Ĳ":{"ha":931,"x_min":144,"x_max":786,"o":"m 144 1004 l 279 1004 l 279 0 l 144 0 l 144 1004 m 786 182 q 740 -26 786 60 q 613 -158 693 -112 q 428 -207 532 -203 l 428 -207 l 428 -76 q 588 -8 525 -71 q 651 186 651 56 l 651 1004 l 786 1004 l 786 182 z "},"Í":{"ha":424,"x_min":144,"x_max":426,"o":"m 144 1004 l 279 1004 l 279 0 l 144 0 l 144 1004 m 426 1251 l 250 1065 l 168 1065 l 283 1251 l 426 1251 z "},"Ĭ":{"ha":424,"x_min":4,"x_max":422,"o":"m 144 1004 l 279 1004 l 279 0 l 144 0 l 144 1004 m 214 1074 q 112 1102 156 1074 q 41 1185 68 1131 q 4 1318 14 1240 l 92 1318 q 113 1238 99 1274 q 153 1183 128 1203 q 214 1163 179 1163 q 276 1183 251 1163 q 314 1238 300 1203 q 333 1318 328 1274 l 422 1318 q 385 1184 413 1239 q 315 1101 358 1129 q 214 1074 272 1074 z "},"Î":{"ha":424,"x_min":-25,"x_max":438,"o":"m 144 1004 l 279 1004 l 279 0 l 144 0 l 144 1004 m 317 1090 l 188 1226 l 225 1235 l 93 1090 l -26 1090 l 203 1328 l 204 1328 l 436 1090 l 317 1090 z "},"Ȉ":{"ha":424,"x_min":-65,"x_max":375,"o":"m 144 1004 l 279 1004 l 279 0 l 144 0 l 144 1004 m -65 1274 l 78 1274 l 179 1088 l 96 1088 l -65 1274 m 132 1274 l 275 1274 l 376 1088 l 293 1088 l 132 1274 z "},"Ï":{"ha":424,"x_min":4,"x_max":408,"o":"m 144 1004 l 279 1004 l 279 0 l 144 0 l 144 1004 m 4 1150 q 26 1202 4 1181 q 76 1224 49 1224 q 126 1202 103 1224 q 149 1149 149 1181 q 126 1097 149 1117 q 76 1076 103 1076 q 26 1097 49 1076 q 4 1150 4 1118 l 4 1150 m 264 1150 q 287 1202 264 1181 q 338 1224 310 1224 q 385 1202 363 1224 q 408 1149 408 1181 q 385 1097 408 1117 q 338 1076 363 1076 q 287 1097 310 1076 q 264 1150 264 1118 l 264 1150 z "},"İ":{"ha":424,"x_min":136,"x_max":289,"o":"m 144 1004 l 279 1004 l 279 0 l 144 0 l 144 1004 m 136 1147 q 160 1199 136 1178 q 214 1219 185 1219 q 266 1199 243 1219 q 289 1147 289 1178 q 266 1095 289 1115 q 214 1075 243 1075 q 160 1096 185 1075 q 136 1147 136 1117 z "},"Ị":{"ha":424,"x_min":133,"x_max":286,"o":"m 144 1004 l 279 1004 l 279 0 l 144 0 l 144 1004 m 133 -142 q 158 -90 133 -111 q 211 -69 182 -69 q 263 -90 240 -69 q 286 -142 286 -111 q 263 -194 286 -174 q 211 -214 240 -214 q 158 -193 182 -214 q 133 -142 133 -172 z "},"Ì":{"ha":424,"x_min":3,"x_max":279,"o":"m 144 1004 l 279 1004 l 279 0 l 144 0 l 144 1004 m 3 1260 l 146 1260 l 247 1074 l 164 1074 l 3 1260 z "},"Ỉ":{"ha":424,"x_min":106,"x_max":342,"o":"m 144 1004 l 279 1004 l 279 0 l 144 0 l 144 1004 m 204 1114 q 248 1153 231 1135 q 265 1199 265 1172 q 254 1233 265 1219 q 221 1247 243 1247 q 183 1235 199 1247 q 156 1204 168 1224 l 107 1236 q 165 1301 131 1281 q 238 1322 199 1322 q 295 1308 272 1322 q 330 1268 318 1293 q 342 1214 342 1243 q 310 1133 342 1165 q 236 1074 279 1100 l 204 1114 z "},"Ȋ":{"ha":424,"x_min":-1,"x_max":417,"o":"m 144 1004 l 279 1004 l 279 0 l 144 0 l 144 1004 m 206 1286 q 308 1258 265 1286 q 379 1174 351 1229 q 415 1042 407 1119 l 328 1042 q 307 1122 322 1086 q 267 1177 292 1157 q 206 1197 243 1197 q 146 1177 171 1197 q 106 1122 121 1157 q 86 1042 92 1086 l -3 1042 q 34 1176 7 1121 q 105 1258 61 1231 q 206 1286 149 1286 z "},"Ī":{"ha":424,"x_min":38,"x_max":379,"o":"m 144 1004 l 279 1004 l 279 0 l 144 0 l 144 1004 m 38 1171 l 379 1171 l 379 1079 l 38 1079 l 38 1171 z "},"Į":{"ha":379,"x_min":19,"x_max":339,"o":"m 182 -299 q 67 -261 115 -299 q 19 -156 19 -224 q 54 -62 19 -107 q 144 7 89 -18 l 250 8 l 274 0 q 167 -62 206 -31 q 128 -137 128 -94 q 149 -190 128 -174 q 194 -206 169 -206 q 246 -188 222 -206 q 289 -140 269 -171 l 339 -206 q 270 -272 314 -246 q 182 -299 226 -299 m 144 1004 l 279 1004 l 279 0 l 144 0 l 144 1004 z "},"Ĩ":{"ha":424,"x_min":-10,"x_max":442,"o":"m 144 1004 l 279 1004 l 279 0 l 144 0 l 144 1004 m 318 1114 q 245 1134 274 1114 q 192 1176 217 1154 q 158 1205 175 1192 q 121 1218 142 1218 q 91 1205 104 1218 q 71 1169 78 1192 q 64 1113 64 1146 l -6 1114 q 6 1211 -10 1168 q 53 1279 22 1254 q 128 1304 85 1304 q 190 1285 164 1304 q 239 1244 217 1265 q 276 1210 258 1225 q 315 1196 294 1196 q 355 1226 343 1196 q 367 1306 367 1256 l 436 1304 q 427 1204 442 1247 q 383 1138 413 1161 q 318 1114 354 1114 z "},"J":{"ha":507,"x_min":4,"x_max":363,"o":"m 363 182 q 316 -26 363 60 q 189 -158 269 -112 q 4 -207 108 -203 l 4 -207 l 4 -76 q 165 -8 101 -71 q 228 186 228 56 l 228 1004 l 363 1004 l 363 182 z "},"Ĵ":{"ha":507,"x_min":4,"x_max":519,"o":"m 363 182 q 316 -26 363 60 q 189 -158 269 -112 q 4 -207 108 -203 l 4 -207 l 4 -76 q 165 -8 101 -71 q 228 186 228 56 l 228 1004 l 363 1004 l 363 182 m 400 1090 l 271 1226 l 308 1235 l 176 1090 l 57 1090 l 286 1328 l 288 1328 l 519 1090 l 400 1090 z "},"K":{"ha":943,"x_min":144,"x_max":903,"o":"m 281 600 l 276 550 l 294 575 l 706 1004 l 879 1004 l 464 574 l 903 0 l 732 0 l 365 488 l 281 406 l 281 0 l 144 0 l 144 1004 l 281 1004 l 281 600 z "},"Ķ":{"ha":943,"x_min":144,"x_max":903,"o":"m 281 600 l 276 550 l 294 575 l 706 1004 l 879 1004 l 464 574 l 903 0 l 732 0 l 365 488 l 281 406 l 281 0 l 144 0 l 144 1004 l 281 1004 l 281 600 m 400 -297 l 333 -251 q 382 -171 368 -224 q 388 -67 396 -118 l 503 -67 q 499 -149 508 -104 q 465 -233 489 -193 q 400 -297 440 -272 z "},"L":{"ha":864,"x_min":144,"x_max":789,"o":"m 144 1004 l 279 1004 l 279 129 l 789 129 l 789 0 l 144 0 l 144 1004 z "},"Ǉ":{"ha":1371,"x_min":144,"x_max":1226,"o":"m 144 1004 l 279 1004 l 279 129 l 789 129 l 789 0 l 144 0 l 144 1004 m 1226 182 q 1180 -26 1226 60 q 1053 -158 1133 -112 q 868 -207 972 -203 l 868 -207 l 868 -76 q 1028 -8 965 -71 q 1092 186 1092 56 l 1092 1004 l 1226 1004 l 1226 182 z "},"Ĺ":{"ha":864,"x_min":144,"x_max":789,"o":"m 144 1004 l 279 1004 l 279 129 l 789 129 l 789 0 l 144 0 l 144 1004 m 424 1251 l 247 1065 l 165 1065 l 281 1251 l 424 1251 z "},"Ľ":{"ha":853,"x_min":144,"x_max":789,"o":"m 144 1004 l 279 1004 l 279 129 l 789 129 l 789 0 l 144 0 l 144 1004 m 572 783 l 507 817 q 553 893 536 844 q 561 990 571 942 l 664 1000 q 661 919 672 961 q 626 840 650 876 q 572 783 603 804 l 572 783 z "},"Ļ":{"ha":864,"x_min":144,"x_max":789,"o":"m 144 1004 l 279 1004 l 279 129 l 789 129 l 789 0 l 144 0 l 144 1004 m 401 -297 l 335 -251 q 383 -171 369 -224 q 389 -67 397 -118 l 504 -67 q 500 -149 510 -104 q 466 -233 490 -193 q 401 -297 442 -272 z "},"Ŀ":{"ha":874,"x_min":144,"x_max":810,"o":"m 144 1004 l 279 1004 l 279 129 l 789 129 l 789 0 l 144 0 l 144 1004 m 665 535 q 688 587 665 565 q 739 608 711 608 q 787 587 764 608 q 810 535 810 565 q 787 481 810 501 q 739 461 764 461 q 688 481 711 461 q 665 535 665 501 l 665 535 z "},"ǈ":{"ha":1224,"x_min":144,"x_max":1133,"o":"m 144 1004 l 279 1004 l 279 129 l 789 129 l 789 0 l 144 0 l 144 1004 m 983 -276 l 907 -197 q 968 -115 946 -164 q 990 1 990 -65 l 990 575 l 1121 575 l 1121 -4 q 1088 -169 1121 -101 q 983 -276 1056 -236 m 979 783 q 1003 835 979 814 q 1057 856 1028 856 q 1109 835 1086 856 q 1132 783 1132 814 q 1109 731 1132 751 q 1057 711 1086 711 q 1003 732 1028 711 q 979 783 979 753 z "},"Ł":{"ha":853,"x_min":22,"x_max":789,"o":"m 538 642 l 564 536 l 47 367 l 22 472 l 538 642 m 144 1004 l 279 1004 l 279 129 l 789 129 l 789 0 l 144 0 l 144 1004 z "},"M":{"ha":1288,"x_min":144,"x_max":1143,"o":"m 144 0 l 144 1036 l 146 1036 l 672 289 l 615 300 l 1140 1036 l 1143 1036 l 1143 0 l 1010 0 l 1010 731 l 1018 663 l 639 126 l 636 126 l 251 663 l 275 725 l 275 0 l 144 0 z "},"N":{"ha":1163,"x_min":144,"x_max":1018,"o":"m 1014 -32 l 238 756 l 276 746 l 279 0 l 144 0 l 144 1035 l 151 1035 l 919 244 l 888 251 l 885 1004 l 1018 1004 l 1018 -32 l 1014 -32 z "},"Ǌ":{"ha":1669,"x_min":144,"x_max":1525,"o":"m 1014 -32 l 238 756 l 276 746 l 279 0 l 144 0 l 144 1035 l 151 1035 l 919 244 l 888 251 l 885 1004 l 1018 1004 l 1018 -32 l 1014 -32 m 1525 182 q 1478 -26 1525 60 q 1351 -158 1432 -112 q 1167 -207 1271 -203 l 1167 -207 l 1167 -76 q 1327 -8 1264 -71 q 1390 186 1390 56 l 1390 1004 l 1525 1004 l 1525 182 z "},"Ń":{"ha":1163,"x_min":144,"x_max":1018,"o":"m 1014 -32 l 238 756 l 276 746 l 279 0 l 144 0 l 144 1035 l 151 1035 l 919 244 l 888 251 l 885 1004 l 1018 1004 l 1018 -32 l 1014 -32 m 779 1233 l 603 1047 l 521 1047 l 636 1233 l 779 1233 z "},"Ň":{"ha":1163,"x_min":144,"x_max":1018,"o":"m 1014 -32 l 238 756 l 276 746 l 279 0 l 144 0 l 144 1035 l 151 1035 l 919 244 l 888 251 l 885 1004 l 1018 1004 l 1018 -32 l 1014 -32 m 449 1278 l 581 1140 l 542 1132 l 674 1278 l 793 1278 l 564 1039 l 563 1039 l 329 1278 l 449 1278 z "},"Ņ":{"ha":1163,"x_min":144,"x_max":1018,"o":"m 1014 -32 l 238 756 l 276 746 l 279 0 l 144 0 l 144 1035 l 151 1035 l 919 244 l 888 251 l 885 1004 l 1018 1004 l 1018 -32 l 1014 -32 m 538 -297 l 471 -251 q 519 -171 506 -224 q 525 -67 533 -118 l 640 -67 q 636 -149 646 -104 q 602 -233 626 -193 q 538 -297 578 -272 z "},"Ŋ":{"ha":1119,"x_min":124,"x_max":996,"o":"m 992 -32 l 217 758 l 254 746 l 257 0 l 124 0 l 124 1035 l 129 1035 l 897 242 l 865 251 l 863 1004 l 996 1004 l 996 -3 l 992 -32 m 996 58 l 996 -4 q 963 -165 996 -96 q 861 -276 929 -233 l 785 -197 q 846 -115 824 -164 q 868 1 868 -65 l 868 175 l 996 58 z "},"Ɲ":{"ha":1140,"x_min":40,"x_max":996,"o":"m 992 -32 l 217 757 l 254 746 l 257 0 l 124 0 l 124 1035 l 129 1035 l 897 244 l 865 251 l 863 1004 l 996 1004 l 996 -3 l 992 -32 m 257 58 l 257 -4 q 224 -165 257 -96 q 122 -276 192 -233 l 40 -197 q 101 -115 79 -164 q 124 1 124 -65 l 124 175 l 257 58 z "},"ǋ":{"ha":1524,"x_min":144,"x_max":1432,"o":"m 1014 -32 l 238 756 l 276 746 l 279 0 l 144 0 l 144 1035 l 151 1035 l 919 244 l 888 251 l 885 1004 l 1018 1004 l 1018 -32 l 1014 -32 m 1282 -276 l 1206 -197 q 1267 -115 1244 -164 q 1289 1 1289 -65 l 1289 575 l 1419 575 l 1419 -4 q 1387 -169 1419 -101 q 1282 -276 1354 -236 m 1279 783 q 1303 835 1279 814 q 1357 856 1328 856 q 1409 835 1386 856 q 1432 783 1432 814 q 1409 731 1432 751 q 1357 711 1386 711 q 1303 732 1328 711 q 1279 783 1279 753 z "},"Ñ":{"ha":1163,"x_min":144,"x_max":1018,"o":"m 1014 -32 l 238 756 l 276 746 l 279 0 l 144 0 l 144 1035 l 151 1035 l 919 244 l 888 251 l 885 1004 l 1018 1004 l 1018 -32 l 1014 -32 m 671 1096 q 598 1116 626 1096 q 544 1158 569 1136 q 511 1187 528 1174 q 474 1200 494 1200 q 444 1187 457 1200 q 424 1151 431 1174 q 417 1094 417 1128 l 347 1096 q 359 1193 343 1150 q 406 1261 375 1236 q 481 1286 438 1286 q 543 1267 517 1286 q 592 1226 569 1247 q 629 1192 611 1207 q 668 1178 647 1178 q 708 1208 696 1178 q 719 1288 719 1238 l 789 1286 q 780 1186 794 1229 q 736 1119 765 1143 q 671 1096 707 1096 z "},"O":{"ha":1190,"x_min":82,"x_max":1108,"o":"m 82 501 q 122 698 82 606 q 232 862 161 790 q 395 974 303 933 q 594 1015 488 1015 q 792 974 700 1015 q 956 862 885 933 q 1068 698 1028 790 q 1108 501 1108 606 q 1068 301 1108 394 q 956 138 1028 208 q 792 28 885 68 q 594 -11 700 -11 q 395 28 488 -11 q 232 136 303 67 q 122 299 161 206 q 82 501 82 392 m 221 500 q 250 352 221 421 q 331 231 279 283 q 450 148 382 178 q 597 118 518 118 q 743 148 675 118 q 861 231 811 178 q 940 352 911 283 q 969 501 969 421 q 940 651 969 581 q 860 774 911 721 q 740 856 808 826 q 594 886 672 886 q 447 856 515 886 q 328 772 379 825 q 249 649 276 719 q 221 500 221 579 z "},"Ó":{"ha":1190,"x_min":82,"x_max":1108,"o":"m 82 501 q 122 698 82 606 q 232 862 161 790 q 395 974 303 933 q 594 1015 488 1015 q 792 974 700 1015 q 956 862 885 933 q 1068 698 1028 790 q 1108 501 1108 606 q 1068 301 1108 394 q 956 138 1028 208 q 792 28 885 68 q 594 -11 700 -11 q 395 28 488 -11 q 232 136 303 67 q 122 299 161 206 q 82 501 82 392 m 221 500 q 250 352 221 421 q 331 231 279 283 q 450 148 382 178 q 597 118 518 118 q 743 148 675 118 q 861 231 811 178 q 940 352 911 283 q 969 501 969 421 q 940 651 969 581 q 860 774 911 721 q 740 856 808 826 q 594 886 672 886 q 447 856 515 886 q 328 772 379 825 q 249 649 276 719 q 221 500 221 579 m 810 1242 l 633 1056 l 551 1056 l 667 1242 l 810 1242 z "},"Ŏ":{"ha":1190,"x_min":82,"x_max":1108,"o":"m 82 501 q 122 698 82 606 q 232 862 161 790 q 395 974 303 933 q 594 1015 488 1015 q 792 974 700 1015 q 956 862 885 933 q 1068 698 1028 790 q 1108 501 1108 606 q 1068 301 1108 394 q 956 138 1028 208 q 792 28 885 68 q 594 -11 700 -11 q 395 28 488 -11 q 232 136 303 67 q 122 299 161 206 q 82 501 82 392 m 221 500 q 250 352 221 421 q 331 231 279 283 q 450 148 382 178 q 597 118 518 118 q 743 148 675 118 q 861 231 811 178 q 940 352 911 283 q 969 501 969 421 q 940 651 969 581 q 860 774 911 721 q 740 856 808 826 q 594 886 672 886 q 447 856 515 886 q 328 772 379 825 q 249 649 276 719 q 221 500 221 579 m 596 1064 q 494 1092 538 1064 q 423 1176 450 1121 q 386 1308 396 1231 l 474 1308 q 495 1228 481 1264 q 535 1173 510 1193 q 596 1153 561 1153 q 658 1173 633 1153 q 696 1228 682 1193 q 715 1308 710 1264 l 804 1308 q 767 1174 794 1229 q 697 1092 740 1119 q 596 1064 654 1064 z "},"Ô":{"ha":1190,"x_min":82,"x_max":1108,"o":"m 82 501 q 122 698 82 606 q 232 862 161 790 q 395 974 303 933 q 594 1015 488 1015 q 792 974 700 1015 q 956 862 885 933 q 1068 698 1028 790 q 1108 501 1108 606 q 1068 301 1108 394 q 956 138 1028 208 q 792 28 885 68 q 594 -11 700 -11 q 395 28 488 -11 q 232 136 303 67 q 122 299 161 206 q 82 501 82 392 m 221 500 q 250 352 221 421 q 331 231 279 283 q 450 148 382 178 q 597 118 518 118 q 743 148 675 118 q 861 231 811 178 q 940 352 911 283 q 969 501 969 421 q 940 651 969 581 q 860 774 911 721 q 740 856 808 826 q 594 886 672 886 q 447 856 515 886 q 328 772 379 825 q 249 649 276 719 q 221 500 221 579 m 700 1082 l 571 1218 l 608 1226 l 476 1082 l 357 1082 l 586 1319 l 588 1319 l 819 1082 l 700 1082 z "},"Ố":{"ha":1190,"x_min":82,"x_max":1108,"o":"m 82 501 q 122 698 82 606 q 232 862 161 790 q 395 974 303 933 q 594 1015 488 1015 q 792 974 700 1015 q 956 862 885 933 q 1068 698 1028 790 q 1108 501 1108 606 q 1068 301 1108 394 q 956 138 1028 208 q 792 28 885 68 q 594 -11 700 -11 q 395 28 488 -11 q 232 136 303 67 q 122 299 161 206 q 82 501 82 392 m 221 500 q 250 352 221 421 q 331 231 279 283 q 450 148 382 178 q 597 118 518 118 q 743 148 675 118 q 861 231 811 178 q 940 352 911 283 q 969 501 969 421 q 940 651 969 581 q 860 774 911 721 q 740 856 808 826 q 594 886 672 886 q 447 856 515 886 q 328 772 379 825 q 249 649 276 719 q 221 500 221 579 m 708 1106 l 579 1242 l 617 1250 l 485 1106 l 365 1106 l 594 1343 l 596 1343 l 828 1106 l 708 1106 m 975 1426 l 799 1240 l 717 1240 l 832 1426 l 975 1426 z "},"Ộ":{"ha":1190,"x_min":82,"x_max":1108,"o":"m 82 501 q 122 698 82 606 q 232 862 161 790 q 395 974 303 933 q 594 1015 488 1015 q 792 974 700 1015 q 956 862 885 933 q 1068 698 1028 790 q 1108 501 1108 606 q 1068 301 1108 394 q 956 138 1028 208 q 792 28 885 68 q 594 -11 700 -11 q 395 28 488 -11 q 232 136 303 67 q 122 299 161 206 q 82 501 82 392 m 221 500 q 250 352 221 421 q 331 231 279 283 q 450 148 382 178 q 597 118 518 118 q 743 148 675 118 q 861 231 811 178 q 940 352 911 283 q 969 501 969 421 q 940 651 969 581 q 860 774 911 721 q 740 856 808 826 q 594 886 672 886 q 447 856 515 886 q 328 772 379 825 q 249 649 276 719 q 221 500 221 579 m 517 -142 q 541 -90 517 -111 q 594 -69 565 -69 q 647 -90 624 -69 q 669 -142 669 -111 q 647 -194 669 -174 q 594 -214 624 -214 q 541 -193 565 -214 q 517 -142 517 -172 m 700 1082 l 571 1218 l 608 1226 l 476 1082 l 357 1082 l 586 1319 l 588 1319 l 819 1082 l 700 1082 z "},"Ồ":{"ha":1190,"x_min":82,"x_max":1108,"o":"m 82 501 q 122 698 82 606 q 232 862 161 790 q 395 974 303 933 q 594 1015 488 1015 q 792 974 700 1015 q 956 862 885 933 q 1068 698 1028 790 q 1108 501 1108 606 q 1068 301 1108 394 q 956 138 1028 208 q 792 28 885 68 q 594 -11 700 -11 q 395 28 488 -11 q 232 136 303 67 q 122 299 161 206 q 82 501 82 392 m 221 500 q 250 352 221 421 q 331 231 279 283 q 450 148 382 178 q 597 118 518 118 q 743 148 675 118 q 861 231 811 178 q 940 352 911 283 q 969 501 969 421 q 940 651 969 581 q 860 774 911 721 q 740 856 808 826 q 594 886 672 886 q 447 856 515 886 q 328 772 379 825 q 249 649 276 719 q 221 500 221 579 m 700 1101 l 571 1238 l 608 1246 l 476 1101 l 357 1101 l 586 1339 l 588 1339 l 819 1101 l 700 1101 m 171 1435 l 314 1435 l 415 1249 l 332 1249 l 171 1435 z "},"Ổ":{"ha":1190,"x_min":82,"x_max":1108,"o":"m 82 501 q 122 698 82 606 q 232 862 161 790 q 395 974 303 933 q 594 1015 488 1015 q 792 974 700 1015 q 956 862 885 933 q 1068 698 1028 790 q 1108 501 1108 606 q 1068 301 1108 394 q 956 138 1028 208 q 792 28 885 68 q 594 -11 700 -11 q 395 28 488 -11 q 232 136 303 67 q 122 299 161 206 q 82 501 82 392 m 221 500 q 250 352 221 421 q 331 231 279 283 q 450 148 382 178 q 597 118 518 118 q 743 148 675 118 q 861 231 811 178 q 940 352 911 283 q 969 501 969 421 q 940 651 969 581 q 860 774 911 721 q 740 856 808 826 q 594 886 672 886 q 447 856 515 886 q 328 772 379 825 q 249 649 276 719 q 221 500 221 579 m 703 1106 l 574 1242 l 611 1250 l 479 1106 l 360 1106 l 589 1343 l 590 1343 l 822 1106 l 703 1106 m 807 1250 q 851 1290 833 1271 q 868 1335 868 1308 q 857 1369 868 1356 q 824 1383 846 1383 q 786 1372 801 1383 q 758 1340 771 1360 l 710 1372 q 767 1438 733 1417 q 840 1458 801 1458 q 898 1444 875 1458 q 933 1404 921 1429 q 944 1350 944 1379 q 913 1269 944 1301 q 839 1210 882 1236 l 807 1250 z "},"Ỗ":{"ha":1190,"x_min":82,"x_max":1108,"o":"m 82 501 q 122 698 82 606 q 232 862 161 790 q 395 974 303 933 q 594 1015 488 1015 q 792 974 700 1015 q 956 862 885 933 q 1068 698 1028 790 q 1108 501 1108 606 q 1068 301 1108 394 q 956 138 1028 208 q 792 28 885 68 q 594 -11 700 -11 q 395 28 488 -11 q 232 136 303 67 q 122 299 161 206 q 82 501 82 392 m 221 500 q 250 352 221 421 q 331 231 279 283 q 450 148 382 178 q 597 118 518 118 q 743 148 675 118 q 861 231 811 178 q 940 352 911 283 q 969 501 969 421 q 940 651 969 581 q 860 774 911 721 q 740 856 808 826 q 594 886 672 886 q 447 856 515 886 q 328 772 379 825 q 249 649 276 719 q 221 500 221 579 m 699 1094 l 569 1231 l 607 1239 l 475 1094 l 356 1094 l 585 1332 l 586 1332 l 818 1094 l 699 1094 m 696 1367 q 623 1387 651 1367 q 569 1429 594 1407 q 536 1458 553 1444 q 499 1471 519 1471 q 469 1458 482 1471 q 449 1421 456 1444 q 442 1365 442 1397 l 372 1365 q 384 1463 368 1419 q 431 1532 400 1507 q 506 1557 463 1557 q 568 1537 542 1557 q 617 1496 594 1517 q 654 1463 636 1478 q 693 1449 672 1449 q 733 1478 721 1449 q 744 1557 744 1507 l 814 1557 q 805 1456 819 1499 q 761 1390 790 1413 q 696 1367 732 1367 z "},"Ȍ":{"ha":1190,"x_min":82,"x_max":1108,"o":"m 82 501 q 122 698 82 606 q 232 862 161 790 q 395 974 303 933 q 594 1015 488 1015 q 792 974 700 1015 q 956 862 885 933 q 1068 698 1028 790 q 1108 501 1108 606 q 1068 301 1108 394 q 956 138 1028 208 q 792 28 885 68 q 594 -11 700 -11 q 395 28 488 -11 q 232 136 303 67 q 122 299 161 206 q 82 501 82 392 m 221 500 q 250 352 221 421 q 331 231 279 283 q 450 148 382 178 q 597 118 518 118 q 743 148 675 118 q 861 231 811 178 q 940 352 911 283 q 969 501 969 421 q 940 651 969 581 q 860 774 911 721 q 740 856 808 826 q 594 886 672 886 q 447 856 515 886 q 328 772 379 825 q 249 649 276 719 q 221 500 221 579 m 317 1264 l 460 1264 l 561 1078 l 478 1078 l 317 1264 m 514 1264 l 657 1264 l 758 1078 l 675 1078 l 514 1264 z "},"Ö":{"ha":1190,"x_min":82,"x_max":1108,"o":"m 82 501 q 122 698 82 606 q 232 862 161 790 q 395 974 303 933 q 594 1015 488 1015 q 792 974 700 1015 q 956 862 885 933 q 1068 698 1028 790 q 1108 501 1108 606 q 1068 301 1108 394 q 956 138 1028 208 q 792 28 885 68 q 594 -11 700 -11 q 395 28 488 -11 q 232 136 303 67 q 122 299 161 206 q 82 501 82 392 m 221 500 q 250 352 221 421 q 331 231 279 283 q 450 148 382 178 q 597 118 518 118 q 743 148 675 118 q 861 231 811 178 q 940 352 911 283 q 969 501 969 421 q 940 651 969 581 q 860 774 911 721 q 740 856 808 826 q 594 886 672 886 q 447 856 515 886 q 328 772 379 825 q 249 649 276 719 q 221 500 221 579 m 388 1140 q 410 1192 388 1171 q 460 1214 432 1214 q 509 1192 486 1214 q 532 1139 532 1171 q 509 1087 532 1107 q 460 1067 486 1067 q 410 1088 432 1067 q 388 1140 388 1108 l 388 1140 m 647 1140 q 670 1192 647 1171 q 721 1214 693 1214 q 769 1192 746 1214 q 792 1139 792 1171 q 769 1087 792 1107 q 721 1067 746 1067 q 670 1088 693 1067 q 647 1140 647 1108 l 647 1140 z "},"Ȫ":{"ha":1190,"x_min":82,"x_max":1108,"o":"m 82 501 q 122 698 82 606 q 232 862 161 790 q 395 974 303 933 q 594 1015 488 1015 q 792 974 700 1015 q 956 862 885 933 q 1068 698 1028 790 q 1108 501 1108 606 q 1068 301 1108 394 q 956 138 1028 208 q 792 28 885 68 q 594 -11 700 -11 q 395 28 488 -11 q 232 136 303 67 q 122 299 161 206 q 82 501 82 392 m 221 500 q 250 352 221 421 q 331 231 279 283 q 450 148 382 178 q 597 118 518 118 q 743 148 675 118 q 861 231 811 178 q 940 352 911 283 q 969 501 969 421 q 940 651 969 581 q 860 774 911 721 q 740 856 808 826 q 594 886 672 886 q 447 856 515 886 q 328 772 379 825 q 249 649 276 719 q 221 500 221 579 m 388 1140 q 410 1192 388 1171 q 460 1214 432 1214 q 509 1192 486 1214 q 532 1139 532 1171 q 509 1087 532 1107 q 460 1067 486 1067 q 410 1088 432 1067 q 388 1140 388 1108 l 388 1140 m 647 1140 q 670 1192 647 1171 q 721 1214 693 1214 q 769 1192 746 1214 q 792 1139 792 1171 q 769 1087 792 1107 q 721 1067 746 1067 q 670 1088 693 1067 q 647 1140 647 1108 l 647 1140 m 421 1364 l 763 1364 l 763 1272 l 421 1272 l 421 1364 z "},"Ȱ":{"ha":1190,"x_min":82,"x_max":1108,"o":"m 82 501 q 122 698 82 606 q 232 862 161 790 q 395 974 303 933 q 594 1015 488 1015 q 792 974 700 1015 q 956 862 885 933 q 1068 698 1028 790 q 1108 501 1108 606 q 1068 301 1108 394 q 956 138 1028 208 q 792 28 885 68 q 594 -11 700 -11 q 395 28 488 -11 q 232 136 303 67 q 122 299 161 206 q 82 501 82 392 m 221 500 q 250 352 221 421 q 331 231 279 283 q 450 148 382 178 q 597 118 518 118 q 743 148 675 118 q 861 231 811 178 q 940 352 911 283 q 969 501 969 421 q 940 651 969 581 q 860 774 911 721 q 740 856 808 826 q 594 886 672 886 q 447 856 515 886 q 328 772 379 825 q 249 649 276 719 q 221 500 221 579 m 519 1138 q 544 1189 519 1168 q 597 1210 568 1210 q 649 1189 626 1210 q 672 1138 672 1168 q 649 1085 672 1106 q 597 1065 626 1065 q 544 1086 568 1065 q 519 1138 519 1107 m 421 1358 l 763 1358 l 763 1267 l 421 1267 l 421 1358 z "},"Ọ":{"ha":1190,"x_min":82,"x_max":1108,"o":"m 82 501 q 122 698 82 606 q 232 862 161 790 q 395 974 303 933 q 594 1015 488 1015 q 792 974 700 1015 q 956 862 885 933 q 1068 698 1028 790 q 1108 501 1108 606 q 1068 301 1108 394 q 956 138 1028 208 q 792 28 885 68 q 594 -11 700 -11 q 395 28 488 -11 q 232 136 303 67 q 122 299 161 206 q 82 501 82 392 m 221 500 q 250 352 221 421 q 331 231 279 283 q 450 148 382 178 q 597 118 518 118 q 743 148 675 118 q 861 231 811 178 q 940 352 911 283 q 969 501 969 421 q 940 651 969 581 q 860 774 911 721 q 740 856 808 826 q 594 886 672 886 q 447 856 515 886 q 328 772 379 825 q 249 649 276 719 q 221 500 221 579 m 517 -142 q 541 -90 517 -111 q 594 -69 565 -69 q 647 -90 624 -69 q 669 -142 669 -111 q 647 -194 669 -174 q 594 -214 624 -214 q 541 -193 565 -214 q 517 -142 517 -172 z "},"Ò":{"ha":1190,"x_min":82,"x_max":1108,"o":"m 82 501 q 122 698 82 606 q 232 862 161 790 q 395 974 303 933 q 594 1015 488 1015 q 792 974 700 1015 q 956 862 885 933 q 1068 698 1028 790 q 1108 501 1108 606 q 1068 301 1108 394 q 956 138 1028 208 q 792 28 885 68 q 594 -11 700 -11 q 395 28 488 -11 q 232 136 303 67 q 122 299 161 206 q 82 501 82 392 m 221 500 q 250 352 221 421 q 331 231 279 283 q 450 148 382 178 q 597 118 518 118 q 743 148 675 118 q 861 231 811 178 q 940 352 911 283 q 969 501 969 421 q 940 651 969 581 q 860 774 911 721 q 740 856 808 826 q 594 886 672 886 q 447 856 515 886 q 328 772 379 825 q 249 649 276 719 q 221 500 221 579 m 386 1251 l 529 1251 l 631 1065 l 547 1065 l 386 1251 z "},"Ỏ":{"ha":1190,"x_min":82,"x_max":1108,"o":"m 82 501 q 122 698 82 606 q 232 862 161 790 q 395 974 303 933 q 594 1015 488 1015 q 792 974 700 1015 q 956 862 885 933 q 1068 698 1028 790 q 1108 501 1108 606 q 1068 301 1108 394 q 956 138 1028 208 q 792 28 885 68 q 594 -11 700 -11 q 395 28 488 -11 q 232 136 303 67 q 122 299 161 206 q 82 501 82 392 m 221 500 q 250 352 221 421 q 331 231 279 283 q 450 148 382 178 q 597 118 518 118 q 743 148 675 118 q 861 231 811 178 q 940 352 911 283 q 969 501 969 421 q 940 651 969 581 q 860 774 911 721 q 740 856 808 826 q 594 886 672 886 q 447 856 515 886 q 328 772 379 825 q 249 649 276 719 q 221 500 221 579 m 586 1104 q 630 1144 613 1125 q 647 1189 647 1163 q 636 1224 647 1210 q 603 1238 625 1238 q 565 1226 581 1238 q 538 1194 550 1214 l 489 1226 q 547 1292 513 1271 q 619 1313 581 1313 q 677 1298 654 1313 q 712 1258 700 1283 q 724 1204 724 1233 q 692 1123 724 1156 q 618 1064 661 1090 l 586 1104 z "},"Ơ":{"ha":1190,"x_min":82,"x_max":1108,"o":"m 82 501 q 122 698 82 606 q 232 862 161 790 q 395 974 303 933 q 594 1015 488 1015 q 792 974 700 1015 q 956 862 885 933 q 1068 698 1028 790 q 1108 501 1108 606 q 1068 301 1108 394 q 956 138 1028 208 q 792 28 885 68 q 594 -11 700 -11 q 395 28 488 -11 q 232 136 303 67 q 122 299 161 206 q 82 501 82 392 m 221 500 q 250 352 221 421 q 331 231 279 283 q 450 148 382 178 q 597 118 518 118 q 743 148 675 118 q 861 231 811 178 q 940 352 911 283 q 969 501 969 421 q 940 651 969 581 q 860 774 911 721 q 740 856 808 826 q 594 886 672 886 q 447 856 515 886 q 328 772 379 825 q 249 649 276 719 q 221 500 221 579 m 694 1004 q 777 1031 753 1004 q 808 1131 801 1058 l 906 1131 q 868 999 896 1043 q 797 940 840 954 q 694 925 753 925 l 694 1004 z "},"Ớ":{"ha":1190,"x_min":82,"x_max":1108,"o":"m 82 501 q 122 698 82 606 q 232 862 161 790 q 395 974 303 933 q 594 1015 488 1015 q 792 974 700 1015 q 956 862 885 933 q 1068 698 1028 790 q 1108 501 1108 606 q 1068 301 1108 394 q 956 138 1028 208 q 792 28 885 68 q 594 -11 700 -11 q 395 28 488 -11 q 232 136 303 67 q 122 299 161 206 q 82 501 82 392 m 221 500 q 250 352 221 421 q 331 231 279 283 q 450 148 382 178 q 597 118 518 118 q 743 148 675 118 q 861 231 811 178 q 940 352 911 283 q 969 501 969 421 q 940 651 969 581 q 860 774 911 721 q 740 856 808 826 q 594 886 672 886 q 447 856 515 886 q 328 772 379 825 q 249 649 276 719 q 221 500 221 579 m 694 1004 q 777 1031 753 1004 q 808 1131 801 1058 l 906 1131 q 868 999 896 1043 q 797 940 840 954 q 694 925 753 925 l 694 1004 m 810 1242 l 633 1056 l 551 1056 l 667 1242 l 810 1242 z "},"Ợ":{"ha":1190,"x_min":82,"x_max":1108,"o":"m 82 501 q 122 698 82 606 q 232 862 161 790 q 395 974 303 933 q 594 1015 488 1015 q 792 974 700 1015 q 956 862 885 933 q 1068 698 1028 790 q 1108 501 1108 606 q 1068 301 1108 394 q 956 138 1028 208 q 792 28 885 68 q 594 -11 700 -11 q 395 28 488 -11 q 232 136 303 67 q 122 299 161 206 q 82 501 82 392 m 221 500 q 250 352 221 421 q 331 231 279 283 q 450 148 382 178 q 597 118 518 118 q 743 148 675 118 q 861 231 811 178 q 940 352 911 283 q 969 501 969 421 q 940 651 969 581 q 860 774 911 721 q 740 856 808 826 q 594 886 672 886 q 447 856 515 886 q 328 772 379 825 q 249 649 276 719 q 221 500 221 579 m 694 1004 q 777 1031 753 1004 q 808 1131 801 1058 l 906 1131 q 868 999 896 1043 q 797 940 840 954 q 694 925 753 925 l 694 1004 m 517 -142 q 541 -90 517 -111 q 594 -69 565 -69 q 647 -90 624 -69 q 669 -142 669 -111 q 647 -194 669 -174 q 594 -214 624 -214 q 541 -193 565 -214 q 517 -142 517 -172 z "},"Ờ":{"ha":1190,"x_min":82,"x_max":1108,"o":"m 82 501 q 122 698 82 606 q 232 862 161 790 q 395 974 303 933 q 594 1015 488 1015 q 792 974 700 1015 q 956 862 885 933 q 1068 698 1028 790 q 1108 501 1108 606 q 1068 301 1108 394 q 956 138 1028 208 q 792 28 885 68 q 594 -11 700 -11 q 395 28 488 -11 q 232 136 303 67 q 122 299 161 206 q 82 501 82 392 m 221 500 q 250 352 221 421 q 331 231 279 283 q 450 148 382 178 q 597 118 518 118 q 743 148 675 118 q 861 231 811 178 q 940 352 911 283 q 969 501 969 421 q 940 651 969 581 q 860 774 911 721 q 740 856 808 826 q 594 886 672 886 q 447 856 515 886 q 328 772 379 825 q 249 649 276 719 q 221 500 221 579 m 694 1004 q 777 1031 753 1004 q 808 1131 801 1058 l 906 1131 q 868 999 896 1043 q 797 940 840 954 q 694 925 753 925 l 694 1004 m 413 1251 l 556 1251 l 657 1065 l 574 1065 l 413 1251 z "},"Ở":{"ha":1190,"x_min":82,"x_max":1108,"o":"m 82 501 q 122 698 82 606 q 232 862 161 790 q 395 974 303 933 q 594 1015 488 1015 q 792 974 700 1015 q 956 862 885 933 q 1068 698 1028 790 q 1108 501 1108 606 q 1068 301 1108 394 q 956 138 1028 208 q 792 28 885 68 q 594 -11 700 -11 q 395 28 488 -11 q 232 136 303 67 q 122 299 161 206 q 82 501 82 392 m 221 500 q 250 352 221 421 q 331 231 279 283 q 450 148 382 178 q 597 118 518 118 q 743 148 675 118 q 861 231 811 178 q 940 352 911 283 q 969 501 969 421 q 940 651 969 581 q 860 774 911 721 q 740 856 808 826 q 594 886 672 886 q 447 856 515 886 q 328 772 379 825 q 249 649 276 719 q 221 500 221 579 m 694 1004 q 777 1031 753 1004 q 808 1131 801 1058 l 906 1131 q 868 999 896 1043 q 797 940 840 954 q 694 925 753 925 l 694 1004 m 586 1104 q 630 1144 613 1125 q 647 1189 647 1163 q 636 1224 647 1210 q 603 1238 625 1238 q 565 1226 581 1238 q 538 1194 550 1214 l 489 1226 q 547 1292 513 1271 q 619 1313 581 1313 q 677 1298 654 1313 q 712 1258 700 1283 q 724 1204 724 1233 q 692 1123 724 1156 q 618 1064 661 1090 l 586 1104 z "},"Ỡ":{"ha":1190,"x_min":82,"x_max":1108,"o":"m 82 501 q 122 698 82 606 q 232 862 161 790 q 395 974 303 933 q 594 1015 488 1015 q 792 974 700 1015 q 956 862 885 933 q 1068 698 1028 790 q 1108 501 1108 606 q 1068 301 1108 394 q 956 138 1028 208 q 792 28 885 68 q 594 -11 700 -11 q 395 28 488 -11 q 232 136 303 67 q 122 299 161 206 q 82 501 82 392 m 221 500 q 250 352 221 421 q 331 231 279 283 q 450 148 382 178 q 597 118 518 118 q 743 148 675 118 q 861 231 811 178 q 940 352 911 283 q 969 501 969 421 q 940 651 969 581 q 860 774 911 721 q 740 856 808 826 q 594 886 672 886 q 447 856 515 886 q 328 772 379 825 q 249 649 276 719 q 221 500 221 579 m 694 1004 q 777 1031 753 1004 q 808 1131 801 1058 l 906 1131 q 868 999 896 1043 q 797 940 840 954 q 694 925 753 925 l 694 1004 m 701 1104 q 628 1124 657 1104 q 575 1167 600 1144 q 542 1195 558 1182 q 504 1208 525 1208 q 474 1195 488 1208 q 454 1159 461 1182 q 447 1103 447 1136 l 378 1104 q 390 1201 374 1158 q 437 1269 406 1244 q 511 1294 468 1294 q 574 1275 547 1294 q 622 1235 600 1256 q 660 1201 642 1215 q 699 1186 678 1186 q 738 1216 726 1186 q 750 1296 750 1246 l 819 1294 q 810 1194 825 1238 q 767 1128 796 1151 q 701 1104 738 1104 z "},"Ő":{"ha":1190,"x_min":82,"x_max":1108,"o":"m 82 501 q 122 698 82 606 q 232 862 161 790 q 395 974 303 933 q 594 1015 488 1015 q 792 974 700 1015 q 956 862 885 933 q 1068 698 1028 790 q 1108 501 1108 606 q 1068 301 1108 394 q 956 138 1028 208 q 792 28 885 68 q 594 -11 700 -11 q 395 28 488 -11 q 232 136 303 67 q 122 299 161 206 q 82 501 82 392 m 221 500 q 250 352 221 421 q 331 231 279 283 q 450 148 382 178 q 597 118 518 118 q 743 148 675 118 q 861 231 811 178 q 940 352 911 283 q 969 501 969 421 q 940 651 969 581 q 860 774 911 721 q 740 856 808 826 q 594 886 672 886 q 447 856 515 886 q 328 772 379 825 q 249 649 276 719 q 221 500 221 579 m 675 1260 l 499 1074 l 417 1074 l 532 1260 l 675 1260 m 883 1257 l 707 1071 l 625 1071 l 740 1257 l 883 1257 z "},"Ȏ":{"ha":1190,"x_min":82,"x_max":1108,"o":"m 82 501 q 122 698 82 606 q 232 862 161 790 q 395 974 303 933 q 594 1015 488 1015 q 792 974 700 1015 q 956 862 885 933 q 1068 698 1028 790 q 1108 501 1108 606 q 1068 301 1108 394 q 956 138 1028 208 q 792 28 885 68 q 594 -11 700 -11 q 395 28 488 -11 q 232 136 303 67 q 122 299 161 206 q 82 501 82 392 m 221 500 q 250 352 221 421 q 331 231 279 283 q 450 148 382 178 q 597 118 518 118 q 743 148 675 118 q 861 231 811 178 q 940 352 911 283 q 969 501 969 421 q 940 651 969 581 q 860 774 911 721 q 740 856 808 826 q 594 886 672 886 q 447 856 515 886 q 328 772 379 825 q 249 649 276 719 q 221 500 221 579 m 589 1276 q 692 1248 649 1276 q 763 1165 735 1219 q 799 1032 790 1110 l 711 1032 q 690 1112 706 1076 q 651 1167 675 1147 q 589 1188 626 1188 q 529 1167 554 1188 q 490 1112 504 1147 q 469 1032 475 1076 l 381 1032 q 417 1166 390 1111 q 488 1249 444 1221 q 589 1276 532 1276 z "},"Ō":{"ha":1190,"x_min":82,"x_max":1108,"o":"m 82 501 q 122 698 82 606 q 232 862 161 790 q 395 974 303 933 q 594 1015 488 1015 q 792 974 700 1015 q 956 862 885 933 q 1068 698 1028 790 q 1108 501 1108 606 q 1068 301 1108 394 q 956 138 1028 208 q 792 28 885 68 q 594 -11 700 -11 q 395 28 488 -11 q 232 136 303 67 q 122 299 161 206 q 82 501 82 392 m 221 500 q 250 352 221 421 q 331 231 279 283 q 450 148 382 178 q 597 118 518 118 q 743 148 675 118 q 861 231 811 178 q 940 352 911 283 q 969 501 969 421 q 940 651 969 581 q 860 774 911 721 q 740 856 808 826 q 594 886 672 886 q 447 856 515 886 q 328 772 379 825 q 249 649 276 719 q 221 500 221 579 m 421 1161 l 763 1161 l 763 1069 l 421 1069 l 421 1161 z "},"Ǫ":{"ha":1190,"x_min":82,"x_max":1108,"o":"m 594 -11 q 395 28 488 -11 q 232 136 303 67 q 122 299 161 206 q 82 501 82 392 q 122 698 82 606 q 232 862 161 790 q 395 974 303 933 q 594 1015 488 1015 q 792 974 700 1015 q 956 862 885 933 q 1068 698 1028 790 q 1108 500 1108 606 q 1080 321 1108 399 q 1007 187 1051 243 q 913 90 963 131 q 828 27 869 54 q 753 -24 788 0 q 698 -74 718 -47 q 678 -136 678 -100 q 699 -190 678 -174 q 744 -206 719 -206 q 797 -188 774 -206 q 839 -140 819 -171 l 889 -206 q 820 -272 864 -246 q 733 -299 776 -299 q 618 -261 665 -299 q 571 -156 571 -224 q 589 -86 571 -118 q 638 -29 607 -54 q 706 11 668 -4 l 818 47 q 713 4 771 19 q 594 -11 654 -11 m 599 119 q 744 149 676 119 q 862 230 811 178 q 941 351 913 282 q 969 501 969 421 q 940 649 969 579 q 860 770 911 718 q 740 852 808 822 q 594 882 672 882 q 447 852 515 882 q 328 769 379 822 q 249 647 276 717 q 221 500 221 578 q 250 352 221 421 q 331 231 279 283 q 451 149 382 178 q 599 119 519 119 z "},"Ø":{"ha":1190,"x_min":82,"x_max":1108,"o":"m 1046 954 l 214 -19 l 129 57 l 963 1032 l 1046 954 m 82 501 q 122 698 82 606 q 232 862 161 790 q 395 974 303 933 q 594 1015 488 1015 q 792 974 700 1015 q 956 862 885 933 q 1068 698 1028 790 q 1108 501 1108 606 q 1068 301 1108 394 q 956 138 1028 208 q 792 28 885 68 q 594 -11 700 -11 q 395 28 488 -11 q 232 136 303 67 q 122 299 161 206 q 82 501 82 392 m 221 500 q 250 352 221 421 q 331 231 279 283 q 450 148 382 178 q 597 118 518 118 q 743 148 675 118 q 861 231 811 178 q 940 352 911 283 q 969 501 969 421 q 940 651 969 581 q 860 774 911 721 q 740 856 808 826 q 594 886 672 886 q 447 856 515 886 q 328 772 379 825 q 249 649 276 719 q 221 500 221 579 z "},"Ǿ":{"ha":1190,"x_min":82,"x_max":1108,"o":"m 1046 954 l 214 -19 l 129 57 l 963 1032 l 1046 954 m 82 501 q 122 698 82 606 q 232 862 161 790 q 395 974 303 933 q 594 1015 488 1015 q 792 974 700 1015 q 956 862 885 933 q 1068 698 1028 790 q 1108 501 1108 606 q 1068 301 1108 394 q 956 138 1028 208 q 792 28 885 68 q 594 -11 700 -11 q 395 28 488 -11 q 232 136 303 67 q 122 299 161 206 q 82 501 82 392 m 221 500 q 250 352 221 421 q 331 231 279 283 q 450 148 382 178 q 597 118 518 118 q 743 148 675 118 q 861 231 811 178 q 940 352 911 283 q 969 501 969 421 q 940 651 969 581 q 860 774 911 721 q 740 856 808 826 q 594 886 672 886 q 447 856 515 886 q 328 772 379 825 q 249 649 276 719 q 221 500 221 579 m 807 1240 l 631 1054 l 549 1054 l 664 1240 l 807 1240 z "},"Õ":{"ha":1190,"x_min":82,"x_max":1108,"o":"m 82 501 q 122 698 82 606 q 232 862 161 790 q 395 974 303 933 q 594 1015 488 1015 q 792 974 700 1015 q 956 862 885 933 q 1068 698 1028 790 q 1108 501 1108 606 q 1068 301 1108 394 q 956 138 1028 208 q 792 28 885 68 q 594 -11 700 -11 q 395 28 488 -11 q 232 136 303 67 q 122 299 161 206 q 82 501 82 392 m 221 500 q 250 352 221 421 q 331 231 279 283 q 450 148 382 178 q 597 118 518 118 q 743 148 675 118 q 861 231 811 178 q 940 352 911 283 q 969 501 969 421 q 940 651 969 581 q 860 774 911 721 q 740 856 808 826 q 594 886 672 886 q 447 856 515 886 q 328 772 379 825 q 249 649 276 719 q 221 500 221 579 m 701 1104 q 628 1124 657 1104 q 575 1167 600 1144 q 542 1195 558 1182 q 504 1208 525 1208 q 474 1195 488 1208 q 454 1159 461 1182 q 447 1103 447 1136 l 378 1104 q 390 1201 374 1158 q 437 1269 406 1244 q 511 1294 468 1294 q 574 1275 547 1294 q 622 1235 600 1256 q 660 1201 642 1215 q 699 1186 678 1186 q 738 1216 726 1186 q 750 1296 750 1246 l 819 1294 q 810 1194 825 1238 q 767 1128 796 1151 q 701 1104 738 1104 z "},"Ȭ":{"ha":1190,"x_min":82,"x_max":1108,"o":"m 82 501 q 122 698 82 606 q 232 862 161 790 q 395 974 303 933 q 594 1015 488 1015 q 792 974 700 1015 q 956 862 885 933 q 1068 698 1028 790 q 1108 501 1108 606 q 1068 301 1108 394 q 956 138 1028 208 q 792 28 885 68 q 594 -11 700 -11 q 395 28 488 -11 q 232 136 303 67 q 122 299 161 206 q 82 501 82 392 m 221 500 q 250 352 221 421 q 331 231 279 283 q 450 148 382 178 q 597 118 518 118 q 743 148 675 118 q 861 231 811 178 q 940 352 911 283 q 969 501 969 421 q 940 651 969 581 q 860 774 911 721 q 740 856 808 826 q 594 886 672 886 q 447 856 515 886 q 328 772 379 825 q 249 649 276 719 q 221 500 221 579 m 701 1104 q 628 1124 657 1104 q 575 1167 600 1144 q 542 1195 558 1182 q 504 1208 525 1208 q 474 1195 488 1208 q 454 1159 461 1182 q 447 1103 447 1136 l 378 1104 q 390 1201 374 1158 q 437 1269 406 1244 q 511 1294 468 1294 q 574 1275 547 1294 q 622 1235 600 1256 q 660 1201 642 1215 q 699 1186 678 1186 q 738 1216 726 1186 q 750 1296 750 1246 l 819 1294 q 810 1194 825 1238 q 767 1128 796 1151 q 701 1104 738 1104 m 421 1469 l 763 1469 l 763 1378 l 421 1378 l 421 1469 z "},"Œ":{"ha":1411,"x_min":93,"x_max":1307,"o":"m 688 872 q 647 880 668 878 q 606 882 626 882 q 460 852 528 882 q 340 769 392 822 q 260 647 289 717 q 231 500 231 578 q 260 352 231 421 q 341 231 289 283 q 462 149 393 178 q 608 119 531 119 q 690 129 650 119 l 731 4 q 668 -7 700 -3 q 604 -11 636 -11 q 406 28 499 -11 q 242 138 313 68 q 133 301 172 208 q 93 501 93 394 q 133 698 93 606 q 242 863 172 790 q 406 975 313 935 q 604 1015 499 1015 q 671 1010 639 1015 q 733 997 703 1006 l 688 872 m 678 1004 l 1288 1004 l 1288 879 l 815 879 l 815 567 l 1232 567 l 1232 440 l 815 440 l 815 129 l 1307 129 l 1307 0 l 678 0 l 678 1004 z "},"P":{"ha":826,"x_min":144,"x_max":763,"o":"m 413 1004 q 600 967 522 1004 q 720 861 678 931 q 763 693 763 792 q 744 576 763 633 q 687 472 726 518 q 583 397 647 425 q 428 369 519 369 l 279 369 l 279 0 l 144 0 l 144 1004 l 413 1004 m 426 499 q 525 518 486 499 q 586 567 564 538 q 618 631 608 597 q 628 690 628 664 q 618 753 628 721 q 585 813 608 786 q 526 858 563 840 q 435 875 489 875 l 279 875 l 279 499 l 426 499 z "},"Þ":{"ha":826,"x_min":144,"x_max":763,"o":"m 438 814 q 573 794 513 814 q 675 734 633 774 q 740 637 717 694 q 763 503 763 579 q 745 386 763 443 q 691 283 728 329 q 591 208 654 236 q 436 179 528 179 l 283 179 l 283 0 l 144 0 l 144 997 l 283 997 l 283 814 l 438 814 m 424 310 q 517 326 479 310 q 578 372 554 343 q 613 433 601 400 q 624 500 624 467 q 602 590 624 549 q 537 658 581 632 q 425 685 493 685 l 283 685 l 283 310 l 424 310 z "},"Q":{"ha":1232,"x_min":82,"x_max":1150,"o":"m 806 131 l 1150 131 l 1150 0 l 626 0 l 806 131 m 82 501 q 122 698 82 606 q 232 862 161 790 q 395 974 303 933 q 594 1015 488 1015 q 792 974 700 1015 q 956 862 885 933 q 1068 698 1028 790 q 1108 501 1108 606 q 1068 301 1108 394 q 956 138 1028 208 q 792 28 885 68 q 594 -11 700 -11 q 395 28 488 -11 q 232 136 303 67 q 122 299 161 206 q 82 501 82 392 m 221 500 q 250 352 221 421 q 331 231 279 283 q 450 149 382 178 q 597 119 518 119 q 743 149 675 119 q 861 231 811 178 q 940 352 911 283 q 969 501 969 421 q 940 649 969 579 q 860 770 911 718 q 740 852 808 822 q 594 882 672 882 q 447 852 515 882 q 328 769 379 822 q 249 647 276 717 q 221 500 221 578 z "},"R":{"ha":915,"x_min":144,"x_max":853,"o":"m 411 1004 q 552 984 488 1004 q 665 924 617 964 q 740 827 713 885 q 767 693 767 769 q 749 576 767 633 q 692 473 732 519 q 587 398 651 426 q 428 369 522 369 l 279 369 l 279 0 l 144 0 l 144 1004 l 411 1004 m 425 499 q 524 517 485 499 q 586 563 564 535 q 618 625 608 592 q 628 688 628 658 q 617 751 628 718 q 584 811 607 783 q 524 857 561 839 q 435 875 488 875 l 279 875 l 279 499 l 425 499 m 590 422 l 853 0 l 697 0 l 431 418 l 590 422 z "},"Ŕ":{"ha":915,"x_min":144,"x_max":853,"o":"m 411 1004 q 552 984 488 1004 q 665 924 617 964 q 740 827 713 885 q 767 693 767 769 q 749 576 767 633 q 692 473 732 519 q 587 398 651 426 q 428 369 522 369 l 279 369 l 279 0 l 144 0 l 144 1004 l 411 1004 m 425 499 q 524 517 485 499 q 586 563 564 535 q 618 625 608 592 q 628 688 628 658 q 617 751 628 718 q 584 811 607 783 q 524 857 561 839 q 435 875 488 875 l 279 875 l 279 499 l 425 499 m 590 422 l 853 0 l 697 0 l 431 418 l 590 422 m 629 1251 l 453 1065 l 371 1065 l 486 1251 l 629 1251 z "},"Ř":{"ha":915,"x_min":144,"x_max":853,"o":"m 411 1004 q 552 984 488 1004 q 665 924 617 964 q 740 827 713 885 q 767 693 767 769 q 749 576 767 633 q 692 473 732 519 q 587 398 651 426 q 428 369 522 369 l 279 369 l 279 0 l 144 0 l 144 1004 l 411 1004 m 425 499 q 524 517 485 499 q 586 563 564 535 q 618 625 608 592 q 628 688 628 658 q 617 751 628 718 q 584 811 607 783 q 524 857 561 839 q 435 875 488 875 l 279 875 l 279 499 l 425 499 m 590 422 l 853 0 l 697 0 l 431 418 l 590 422 m 300 1294 l 432 1157 l 393 1149 l 525 1294 l 644 1294 l 415 1056 l 414 1056 l 181 1294 l 300 1294 z "},"Ŗ":{"ha":915,"x_min":144,"x_max":853,"o":"m 411 1004 q 552 984 488 1004 q 665 924 617 964 q 740 827 713 885 q 767 693 767 769 q 749 576 767 633 q 692 473 732 519 q 587 398 651 426 q 428 369 522 369 l 279 369 l 279 0 l 144 0 l 144 1004 l 411 1004 m 425 499 q 524 517 485 499 q 586 563 564 535 q 618 625 608 592 q 628 688 628 658 q 617 751 628 718 q 584 811 607 783 q 524 857 561 839 q 435 875 488 875 l 279 875 l 279 499 l 425 499 m 590 422 l 853 0 l 697 0 l 431 418 l 590 422 m 404 -297 l 338 -251 q 386 -171 372 -224 q 392 -67 400 -118 l 507 -67 q 503 -149 513 -104 q 469 -233 493 -193 q 404 -297 444 -272 z "},"Ȑ":{"ha":915,"x_min":138,"x_max":853,"o":"m 411 1004 q 552 984 488 1004 q 665 924 617 964 q 740 827 713 885 q 767 693 767 769 q 749 576 767 633 q 692 473 732 519 q 587 398 651 426 q 428 369 522 369 l 279 369 l 279 0 l 144 0 l 144 1004 l 411 1004 m 425 499 q 524 517 485 499 q 586 563 564 535 q 618 625 608 592 q 628 688 628 658 q 617 751 628 718 q 584 811 607 783 q 524 857 561 839 q 435 875 488 875 l 279 875 l 279 499 l 425 499 m 590 422 l 853 0 l 697 0 l 431 418 l 590 422 m 138 1274 l 281 1274 l 382 1088 l 299 1088 l 138 1274 m 335 1274 l 478 1274 l 579 1088 l 496 1088 l 335 1274 z "},"Ȓ":{"ha":915,"x_min":144,"x_max":853,"o":"m 411 1004 q 552 984 488 1004 q 665 924 617 964 q 740 827 713 885 q 767 693 767 769 q 749 576 767 633 q 692 473 732 519 q 587 398 651 426 q 428 369 522 369 l 279 369 l 279 0 l 144 0 l 144 1004 l 411 1004 m 425 499 q 524 517 485 499 q 586 563 564 535 q 618 625 608 592 q 628 688 628 658 q 617 751 628 718 q 584 811 607 783 q 524 857 561 839 q 435 875 488 875 l 279 875 l 279 499 l 425 499 m 590 422 l 853 0 l 697 0 l 431 418 l 590 422 m 408 1286 q 511 1258 468 1286 q 582 1174 554 1229 q 618 1042 610 1119 l 531 1042 q 510 1122 525 1086 q 470 1177 494 1157 q 408 1197 446 1197 q 349 1177 374 1197 q 309 1122 324 1157 q 289 1042 294 1086 l 200 1042 q 237 1176 210 1121 q 308 1258 264 1231 q 408 1286 351 1286 z "},"S":{"ha":808,"x_min":68,"x_max":726,"o":"m 664 825 q 551 871 613 851 q 432 890 490 890 q 303 853 351 890 q 256 753 256 815 q 286 673 256 706 q 367 617 317 640 q 471 572 417 593 q 564 532 518 554 q 647 476 610 510 q 705 394 683 443 q 726 274 726 346 q 687 129 726 194 q 574 26 647 64 q 399 -11 500 -11 q 272 4 332 -11 q 160 44 211 19 q 68 94 108 68 l 128 200 q 204 155 161 176 q 294 120 247 133 q 386 107 342 107 q 480 124 433 107 q 557 178 526 142 q 588 274 588 214 q 560 359 588 325 q 489 417 533 393 q 394 461 444 442 q 299 501 347 479 q 208 553 250 522 q 142 631 167 585 q 117 742 117 676 q 155 880 117 821 q 260 973 193 939 q 413 1010 326 1007 q 584 986 510 1010 q 715 928 658 963 l 664 825 z "},"Ś":{"ha":808,"x_min":68,"x_max":726,"o":"m 664 825 q 551 871 613 851 q 432 890 490 890 q 303 853 351 890 q 256 753 256 815 q 286 673 256 706 q 367 617 317 640 q 471 572 417 593 q 564 532 518 554 q 647 476 610 510 q 705 394 683 443 q 726 274 726 346 q 687 129 726 194 q 574 26 647 64 q 399 -11 500 -11 q 272 4 332 -11 q 160 44 211 19 q 68 94 108 68 l 128 200 q 204 155 161 176 q 294 120 247 133 q 386 107 342 107 q 480 124 433 107 q 557 178 526 142 q 588 274 588 214 q 560 359 588 325 q 489 417 533 393 q 394 461 444 442 q 299 501 347 479 q 208 553 250 522 q 142 631 167 585 q 117 742 117 676 q 155 880 117 821 q 260 973 193 939 q 413 1010 326 1007 q 584 986 510 1010 q 715 928 658 963 l 664 825 m 617 1244 l 440 1058 l 358 1058 l 474 1244 l 617 1244 z "},"Š":{"ha":808,"x_min":68,"x_max":726,"o":"m 664 825 q 551 871 613 851 q 432 890 490 890 q 303 853 351 890 q 256 753 256 815 q 286 673 256 706 q 367 617 317 640 q 471 572 417 593 q 564 532 518 554 q 647 476 610 510 q 705 394 683 443 q 726 274 726 346 q 687 129 726 194 q 574 26 647 64 q 399 -11 500 -11 q 272 4 332 -11 q 160 44 211 19 q 68 94 108 68 l 128 200 q 204 155 161 176 q 294 120 247 133 q 386 107 342 107 q 480 124 433 107 q 557 178 526 142 q 588 274 588 214 q 560 359 588 325 q 489 417 533 393 q 394 461 444 442 q 299 501 347 479 q 208 553 250 522 q 142 631 167 585 q 117 742 117 676 q 155 880 117 821 q 260 973 193 939 q 413 1010 326 1007 q 584 986 510 1010 q 715 928 658 963 l 664 825 m 288 1288 l 419 1150 l 381 1142 l 513 1288 l 632 1288 l 403 1049 l 401 1049 l 168 1288 l 288 1288 z "},"Ş":{"ha":808,"x_min":68,"x_max":726,"o":"m 664 825 q 551 871 613 851 q 432 890 490 890 q 303 853 351 890 q 256 753 256 815 q 286 673 256 706 q 367 617 317 640 q 471 572 417 593 q 564 532 518 554 q 647 476 610 510 q 705 394 683 443 q 726 274 726 346 q 687 129 726 194 q 574 26 647 64 q 399 -11 500 -11 q 272 4 332 -11 q 160 44 211 19 q 68 94 108 68 l 128 200 q 204 155 161 176 q 294 120 247 133 q 386 107 342 107 q 480 124 433 107 q 557 178 526 142 q 588 274 588 214 q 560 359 588 325 q 489 417 533 393 q 394 461 444 442 q 299 501 347 479 q 208 553 250 522 q 142 631 167 585 q 117 742 117 676 q 155 880 117 821 q 260 973 193 939 q 413 1010 326 1007 q 584 986 510 1010 q 715 928 658 963 l 664 825 m 290 -222 q 329 -248 306 -237 q 383 -258 353 -258 q 449 -242 419 -258 q 478 -196 478 -226 q 458 -152 478 -172 q 388 -132 439 -132 q 340 -137 365 -132 q 297 -150 315 -143 l 274 -87 l 371 3 l 469 -3 l 369 -119 l 339 -87 q 376 -77 354 -81 q 419 -72 399 -74 q 540 -101 493 -71 q 588 -193 588 -132 q 560 -270 588 -240 q 490 -315 533 -300 q 396 -329 447 -329 q 308 -313 344 -329 q 249 -276 271 -297 l 290 -222 z "},"Ŝ":{"ha":808,"x_min":68,"x_max":726,"o":"m 664 825 q 551 871 613 851 q 432 890 490 890 q 303 853 351 890 q 256 753 256 815 q 286 673 256 706 q 367 617 317 640 q 471 572 417 593 q 564 532 518 554 q 647 476 610 510 q 705 394 683 443 q 726 274 726 346 q 687 129 726 194 q 574 26 647 64 q 399 -11 500 -11 q 272 4 332 -11 q 160 44 211 19 q 68 94 108 68 l 128 200 q 204 155 161 176 q 294 120 247 133 q 386 107 342 107 q 480 124 433 107 q 557 178 526 142 q 588 274 588 214 q 560 359 588 325 q 489 417 533 393 q 394 461 444 442 q 299 501 347 479 q 208 553 250 522 q 142 631 167 585 q 117 742 117 676 q 155 880 117 821 q 260 973 193 939 q 413 1010 326 1007 q 584 986 510 1010 q 715 928 658 963 l 664 825 m 507 1083 l 378 1219 l 415 1228 l 283 1083 l 164 1083 l 393 1321 l 394 1321 l 626 1083 l 507 1083 z "},"Ș":{"ha":808,"x_min":68,"x_max":726,"o":"m 664 825 q 551 871 613 851 q 432 890 490 890 q 303 853 351 890 q 256 753 256 815 q 286 673 256 706 q 367 617 317 640 q 471 572 417 593 q 564 532 518 554 q 647 476 610 510 q 705 394 683 443 q 726 274 726 346 q 687 129 726 194 q 574 26 647 64 q 399 -11 500 -11 q 272 4 332 -11 q 160 44 211 19 q 68 94 108 68 l 128 200 q 204 155 161 176 q 294 120 247 133 q 386 107 342 107 q 480 124 433 107 q 557 178 526 142 q 588 274 588 214 q 560 359 588 325 q 489 417 533 393 q 394 461 444 442 q 299 501 347 479 q 208 553 250 522 q 142 631 167 585 q 117 742 117 676 q 155 880 117 821 q 260 973 193 939 q 413 1010 326 1007 q 584 986 510 1010 q 715 928 658 963 l 664 825 m 357 -307 l 290 -261 q 339 -181 325 -233 q 344 -76 353 -128 l 460 -76 q 456 -158 465 -114 q 422 -242 446 -203 q 357 -307 397 -282 z "},"ẞ":{"ha":1165,"x_min":144,"x_max":1088,"o":"m 794 -11 q 628 13 707 -11 q 483 81 549 38 l 543 186 q 659 130 593 153 q 785 107 725 107 q 859 122 821 107 q 923 169 897 138 q 949 251 949 201 q 925 319 949 292 q 865 370 901 347 q 786 417 828 393 q 680 481 732 444 q 593 568 628 517 q 558 689 558 619 q 586 812 558 758 q 668 898 614 865 q 800 935 722 931 q 863 925 840 935 q 903 901 886 915 l 861 836 q 733 917 806 890 q 583 944 660 944 q 422 902 490 944 q 317 770 354 860 q 279 539 279 681 l 279 0 l 144 0 l 144 544 q 192 809 144 694 q 335 988 240 924 q 568 1051 431 1051 q 723 1031 647 1051 q 860 977 799 1010 q 953 907 921 944 l 915 808 q 881 830 906 817 q 819 843 856 843 q 754 826 783 843 q 709 779 725 808 q 693 713 693 750 q 718 635 693 667 q 782 578 743 603 q 863 528 821 553 q 942 482 901 506 q 1015 428 982 458 q 1067 355 1047 397 q 1088 253 1088 313 q 1053 122 1088 182 q 953 26 1018 63 q 794 -11 888 -11 z "},"Ə":{"ha":1104,"x_min":67,"x_max":1022,"o":"m 521 1014 q 726 976 633 1014 q 884 871 818 939 q 986 712 950 803 q 1022 515 1022 621 q 983 310 1022 404 q 874 145 944 215 q 713 35 804 75 q 519 -4 622 -4 q 310 45 401 -4 q 156 185 218 94 q 67 400 94 276 l 893 696 l 924 596 l 182 324 l 224 367 q 337 186 260 257 q 528 115 414 115 q 664 146 600 115 q 776 230 728 176 q 853 355 825 283 q 881 508 881 426 q 852 656 881 588 q 773 776 824 725 q 658 855 722 826 q 519 883 593 883 q 413 867 467 883 q 311 824 358 851 q 232 760 264 796 l 165 868 q 267 942 207 908 q 395 994 328 975 q 521 1014 463 1014 z "},"T":{"ha":807,"x_min":71,"x_max":738,"o":"m 71 1004 l 738 1004 l 738 875 l 468 875 l 468 0 l 333 0 l 333 875 l 71 875 l 71 1004 z "},"Ŧ":{"ha":807,"x_min":71,"x_max":738,"o":"m 71 1004 l 738 1004 l 738 875 l 468 875 l 468 0 l 333 0 l 333 875 l 71 875 l 71 1004 m 207 558 l 592 558 l 592 438 l 207 438 l 207 558 z "},"Ť":{"ha":807,"x_min":71,"x_max":738,"o":"m 71 1004 l 738 1004 l 738 875 l 468 875 l 468 0 l 333 0 l 333 875 l 71 875 l 71 1004 m 289 1278 l 421 1140 l 382 1132 l 514 1278 l 633 1278 l 404 1039 l 403 1039 l 169 1278 l 289 1278 z "},"Ţ":{"ha":807,"x_min":71,"x_max":738,"o":"m 71 1004 l 738 1004 l 738 875 l 468 875 l 468 0 l 333 0 l 333 875 l 71 875 l 71 1004 m 292 -214 q 331 -240 307 -229 q 385 -250 354 -250 q 450 -234 421 -250 q 479 -187 479 -218 q 460 -144 479 -164 q 389 -124 440 -124 q 342 -129 367 -124 q 299 -142 317 -135 l 275 -79 l 372 11 l 471 6 l 371 -111 l 340 -79 q 378 -69 356 -72 q 421 -64 400 -65 q 542 -93 494 -62 q 589 -185 589 -124 q 562 -262 589 -232 q 492 -306 535 -292 q 397 -321 449 -321 q 309 -305 346 -321 q 250 -268 272 -289 l 292 -214 z "},"Ț":{"ha":807,"x_min":71,"x_max":738,"o":"m 71 1004 l 738 1004 l 738 875 l 468 875 l 468 0 l 333 0 l 333 875 l 71 875 l 71 1004 m 358 -297 l 292 -251 q 340 -171 326 -224 q 346 -67 354 -118 l 461 -67 q 457 -149 467 -104 q 423 -233 447 -193 q 358 -297 399 -272 z "},"U":{"ha":1015,"x_min":132,"x_max":885,"o":"m 265 356 q 298 234 265 288 q 385 150 331 181 q 507 119 439 119 q 633 150 578 119 q 721 234 689 181 q 753 356 753 288 l 753 1004 l 885 1004 l 885 351 q 834 160 885 242 q 698 33 783 78 q 507 -11 613 -11 l 507 -11 q 317 33 401 -11 q 182 160 232 78 q 132 351 132 242 l 132 1004 l 265 1004 l 265 356 z "},"Ú":{"ha":1015,"x_min":132,"x_max":885,"o":"m 265 356 q 298 234 265 288 q 385 150 331 181 q 507 119 439 119 q 633 150 578 119 q 721 234 689 181 q 753 356 753 288 l 753 1004 l 885 1004 l 885 351 q 834 160 885 242 q 698 33 783 78 q 507 -11 613 -11 l 507 -11 q 317 33 401 -11 q 182 160 232 78 q 132 351 132 242 l 132 1004 l 265 1004 l 265 356 m 722 1251 l 546 1065 l 464 1065 l 579 1251 l 722 1251 z "},"Ŭ":{"ha":1015,"x_min":132,"x_max":885,"o":"m 265 356 q 298 234 265 288 q 385 150 331 181 q 507 119 439 119 q 633 150 578 119 q 721 234 689 181 q 753 356 753 288 l 753 1004 l 885 1004 l 885 351 q 834 160 885 242 q 698 33 783 78 q 507 -11 613 -11 l 507 -11 q 317 33 401 -11 q 182 160 232 78 q 132 351 132 242 l 132 1004 l 265 1004 l 265 356 m 510 1074 q 408 1102 451 1074 q 337 1185 364 1131 q 300 1318 310 1240 l 388 1318 q 409 1238 394 1274 q 449 1183 424 1203 q 510 1163 475 1163 q 572 1183 547 1163 q 610 1238 596 1203 q 629 1318 624 1274 l 718 1318 q 681 1184 708 1239 q 611 1101 654 1129 q 510 1074 568 1074 z "},"Ǔ":{"ha":1015,"x_min":132,"x_max":885,"o":"m 265 356 q 298 234 265 288 q 385 150 331 181 q 507 119 439 119 q 633 150 578 119 q 721 234 689 181 q 753 356 753 288 l 753 1004 l 885 1004 l 885 351 q 834 160 885 242 q 698 33 783 78 q 507 -11 613 -11 l 507 -11 q 317 33 401 -11 q 182 160 232 78 q 132 351 132 242 l 132 1004 l 265 1004 l 265 356 m 393 1294 l 525 1157 l 486 1149 l 618 1294 l 738 1294 l 508 1056 l 507 1056 l 274 1294 l 393 1294 z "},"Û":{"ha":1015,"x_min":132,"x_max":885,"o":"m 265 356 q 298 234 265 288 q 385 150 331 181 q 507 119 439 119 q 633 150 578 119 q 721 234 689 181 q 753 356 753 288 l 753 1004 l 885 1004 l 885 351 q 834 160 885 242 q 698 33 783 78 q 507 -11 613 -11 l 507 -11 q 317 33 401 -11 q 182 160 232 78 q 132 351 132 242 l 132 1004 l 265 1004 l 265 356 m 613 1090 l 483 1226 l 521 1235 l 389 1090 l 269 1090 l 499 1328 l 500 1328 l 732 1090 l 613 1090 z "},"Ȕ":{"ha":1015,"x_min":132,"x_max":885,"o":"m 265 356 q 298 234 265 288 q 385 150 331 181 q 507 119 439 119 q 633 150 578 119 q 721 234 689 181 q 753 356 753 288 l 753 1004 l 885 1004 l 885 351 q 834 160 885 242 q 698 33 783 78 q 507 -11 613 -11 l 507 -11 q 317 33 401 -11 q 182 160 232 78 q 132 351 132 242 l 132 1004 l 265 1004 l 265 356 m 231 1274 l 374 1274 l 475 1088 l 392 1088 l 231 1274 m 428 1274 l 571 1274 l 672 1088 l 589 1088 l 428 1274 z "},"Ü":{"ha":1015,"x_min":132,"x_max":885,"o":"m 265 356 q 298 234 265 288 q 385 150 331 181 q 507 119 439 119 q 633 150 578 119 q 721 234 689 181 q 753 356 753 288 l 753 1004 l 885 1004 l 885 351 q 834 160 885 242 q 698 33 783 78 q 507 -11 613 -11 l 507 -11 q 317 33 401 -11 q 182 160 232 78 q 132 351 132 242 l 132 1004 l 265 1004 l 265 356 m 300 1150 q 322 1202 300 1181 q 372 1224 344 1224 q 422 1202 399 1224 q 444 1149 444 1181 q 422 1097 444 1117 q 372 1076 399 1076 q 322 1097 344 1076 q 300 1150 300 1118 l 300 1150 m 560 1150 q 583 1202 560 1181 q 633 1224 606 1224 q 681 1202 658 1224 q 704 1149 704 1181 q 681 1097 704 1117 q 633 1076 658 1076 q 583 1097 606 1076 q 560 1150 560 1118 l 560 1150 z "},"Ụ":{"ha":1015,"x_min":132,"x_max":885,"o":"m 265 356 q 298 234 265 288 q 385 150 331 181 q 507 119 439 119 q 633 150 578 119 q 721 234 689 181 q 753 356 753 288 l 753 1004 l 885 1004 l 885 351 q 834 160 885 242 q 698 33 783 78 q 507 -11 613 -11 l 507 -11 q 317 33 401 -11 q 182 160 232 78 q 132 351 132 242 l 132 1004 l 265 1004 l 265 356 m 429 -142 q 453 -90 429 -111 q 507 -69 478 -69 q 559 -90 536 -69 q 582 -142 582 -111 q 559 -194 582 -174 q 507 -214 536 -214 q 453 -193 478 -214 q 429 -142 429 -172 z "},"Ù":{"ha":1015,"x_min":132,"x_max":885,"o":"m 265 356 q 298 234 265 288 q 385 150 331 181 q 507 119 439 119 q 633 150 578 119 q 721 234 689 181 q 753 356 753 288 l 753 1004 l 885 1004 l 885 351 q 834 160 885 242 q 698 33 783 78 q 507 -11 613 -11 l 507 -11 q 317 33 401 -11 q 182 160 232 78 q 132 351 132 242 l 132 1004 l 265 1004 l 265 356 m 299 1260 l 442 1260 l 543 1074 l 460 1074 l 299 1260 z "},"Ủ":{"ha":1015,"x_min":132,"x_max":885,"o":"m 265 356 q 298 234 265 288 q 385 150 331 181 q 507 119 439 119 q 633 150 578 119 q 721 234 689 181 q 753 356 753 288 l 753 1004 l 885 1004 l 885 351 q 834 160 885 242 q 698 33 783 78 q 507 -11 613 -11 l 507 -11 q 317 33 401 -11 q 182 160 232 78 q 132 351 132 242 l 132 1004 l 265 1004 l 265 356 m 500 1114 q 544 1153 526 1135 q 561 1199 561 1172 q 550 1233 561 1219 q 517 1247 539 1247 q 479 1235 494 1247 q 451 1204 464 1224 l 403 1236 q 460 1301 426 1281 q 533 1322 494 1322 q 591 1308 568 1322 q 626 1268 614 1293 q 638 1214 638 1243 q 606 1133 638 1165 q 532 1074 575 1100 l 500 1114 z "},"Ư":{"ha":1040,"x_min":132,"x_max":1069,"o":"m 265 356 q 298 234 265 288 q 385 150 331 181 q 507 119 439 119 q 633 150 578 119 q 721 234 689 181 q 753 356 753 288 l 753 1004 l 885 1004 l 885 351 q 834 160 885 242 q 698 33 783 78 q 507 -11 613 -11 l 507 -11 q 317 33 401 -11 q 182 160 232 78 q 132 351 132 242 l 132 1004 l 265 1004 l 265 356 m 858 942 q 941 969 917 942 q 972 1068 965 996 l 1069 1068 q 1032 936 1060 981 q 960 877 1004 892 q 858 863 917 863 l 858 942 z "},"Ứ":{"ha":1040,"x_min":132,"x_max":1069,"o":"m 265 356 q 298 234 265 288 q 385 150 331 181 q 507 119 439 119 q 633 150 578 119 q 721 234 689 181 q 753 356 753 288 l 753 1004 l 885 1004 l 885 351 q 834 160 885 242 q 698 33 783 78 q 507 -11 613 -11 l 507 -11 q 317 33 401 -11 q 182 160 232 78 q 132 351 132 242 l 132 1004 l 265 1004 l 265 356 m 858 942 q 941 969 917 942 q 972 1068 965 996 l 1069 1068 q 1032 936 1060 981 q 960 877 1004 892 q 858 863 917 863 l 858 942 m 722 1251 l 546 1065 l 464 1065 l 579 1251 l 722 1251 z "},"Ự":{"ha":1040,"x_min":132,"x_max":1069,"o":"m 265 356 q 298 234 265 288 q 385 150 331 181 q 507 119 439 119 q 633 150 578 119 q 721 234 689 181 q 753 356 753 288 l 753 1004 l 885 1004 l 885 351 q 834 160 885 242 q 698 33 783 78 q 507 -11 613 -11 l 507 -11 q 317 33 401 -11 q 182 160 232 78 q 132 351 132 242 l 132 1004 l 265 1004 l 265 356 m 858 942 q 941 969 917 942 q 972 1068 965 996 l 1069 1068 q 1032 936 1060 981 q 960 877 1004 892 q 858 863 917 863 l 858 942 m 429 -142 q 453 -90 429 -111 q 507 -69 478 -69 q 559 -90 536 -69 q 582 -142 582 -111 q 559 -194 582 -174 q 507 -214 536 -214 q 453 -193 478 -214 q 429 -142 429 -172 z "},"Ừ":{"ha":1040,"x_min":132,"x_max":1069,"o":"m 265 356 q 298 234 265 288 q 385 150 331 181 q 507 119 439 119 q 633 150 578 119 q 721 234 689 181 q 753 356 753 288 l 753 1004 l 885 1004 l 885 351 q 834 160 885 242 q 698 33 783 78 q 507 -11 613 -11 l 507 -11 q 317 33 401 -11 q 182 160 232 78 q 132 351 132 242 l 132 1004 l 265 1004 l 265 356 m 858 942 q 941 969 917 942 q 972 1068 965 996 l 1069 1068 q 1032 936 1060 981 q 960 877 1004 892 q 858 863 917 863 l 858 942 m 299 1260 l 442 1260 l 543 1074 l 460 1074 l 299 1260 z "},"Ử":{"ha":1040,"x_min":132,"x_max":1069,"o":"m 265 356 q 298 234 265 288 q 385 150 331 181 q 507 119 439 119 q 633 150 578 119 q 721 234 689 181 q 753 356 753 288 l 753 1004 l 885 1004 l 885 351 q 834 160 885 242 q 698 33 783 78 q 507 -11 613 -11 l 507 -11 q 317 33 401 -11 q 182 160 232 78 q 132 351 132 242 l 132 1004 l 265 1004 l 265 356 m 858 942 q 941 969 917 942 q 972 1068 965 996 l 1069 1068 q 1032 936 1060 981 q 960 877 1004 892 q 858 863 917 863 l 858 942 m 500 1114 q 544 1153 526 1135 q 561 1199 561 1172 q 550 1233 561 1219 q 517 1247 539 1247 q 479 1235 494 1247 q 451 1204 464 1224 l 403 1236 q 460 1301 426 1281 q 533 1322 494 1322 q 591 1308 568 1322 q 626 1268 614 1293 q 638 1214 638 1243 q 606 1133 638 1165 q 532 1074 575 1100 l 500 1114 z "},"Ữ":{"ha":1040,"x_min":132,"x_max":1069,"o":"m 265 356 q 298 234 265 288 q 385 150 331 181 q 507 119 439 119 q 633 150 578 119 q 721 234 689 181 q 753 356 753 288 l 753 1004 l 885 1004 l 885 351 q 834 160 885 242 q 698 33 783 78 q 507 -11 613 -11 l 507 -11 q 317 33 401 -11 q 182 160 232 78 q 132 351 132 242 l 132 1004 l 265 1004 l 265 356 m 858 942 q 941 969 917 942 q 972 1068 965 996 l 1069 1068 q 1032 936 1060 981 q 960 877 1004 892 q 858 863 917 863 l 858 942 m 614 1114 q 541 1134 569 1114 q 488 1176 513 1154 q 454 1205 471 1192 q 417 1218 438 1218 q 387 1205 400 1218 q 367 1169 374 1192 q 360 1113 360 1146 l 290 1114 q 302 1211 286 1168 q 349 1279 318 1254 q 424 1304 381 1304 q 486 1285 460 1304 q 535 1244 513 1265 q 572 1210 554 1225 q 611 1196 590 1196 q 651 1226 639 1196 q 663 1306 663 1256 l 732 1304 q 723 1204 738 1247 q 679 1138 708 1161 q 614 1114 650 1114 z "},"Ű":{"ha":1015,"x_min":132,"x_max":885,"o":"m 265 356 q 298 234 265 288 q 385 150 331 181 q 507 119 439 119 q 633 150 578 119 q 721 234 689 181 q 753 356 753 288 l 753 1004 l 885 1004 l 885 351 q 834 160 885 242 q 698 33 783 78 q 507 -11 613 -11 l 507 -11 q 317 33 401 -11 q 182 160 232 78 q 132 351 132 242 l 132 1004 l 265 1004 l 265 356 m 589 1268 l 413 1082 l 331 1082 l 446 1268 l 589 1268 m 797 1267 l 621 1081 l 539 1081 l 654 1267 l 797 1267 z "},"Ȗ":{"ha":1015,"x_min":132,"x_max":885,"o":"m 265 356 q 298 234 265 288 q 385 150 331 181 q 507 119 439 119 q 633 150 578 119 q 721 234 689 181 q 753 356 753 288 l 753 1004 l 885 1004 l 885 351 q 834 160 885 242 q 698 33 783 78 q 507 -11 613 -11 l 507 -11 q 317 33 401 -11 q 182 160 232 78 q 132 351 132 242 l 132 1004 l 265 1004 l 265 356 m 501 1286 q 604 1258 561 1286 q 675 1174 647 1229 q 711 1042 703 1119 l 624 1042 q 603 1122 618 1086 q 563 1177 588 1157 q 501 1197 539 1197 q 442 1177 467 1197 q 402 1122 417 1157 q 382 1042 388 1086 l 293 1042 q 330 1176 303 1121 q 401 1258 357 1231 q 501 1286 444 1286 z "},"Ū":{"ha":1015,"x_min":132,"x_max":885,"o":"m 265 356 q 298 234 265 288 q 385 150 331 181 q 507 119 439 119 q 633 150 578 119 q 721 234 689 181 q 753 356 753 288 l 753 1004 l 885 1004 l 885 351 q 834 160 885 242 q 698 33 783 78 q 507 -11 613 -11 l 507 -11 q 317 33 401 -11 q 182 160 232 78 q 132 351 132 242 l 132 1004 l 265 1004 l 265 356 m 333 1171 l 675 1171 l 675 1079 l 333 1079 l 333 1171 z "},"Ų":{"ha":1015,"x_min":132,"x_max":885,"o":"m 650 -299 q 535 -257 583 -299 q 488 -147 488 -215 q 516 -56 488 -101 q 594 15 544 -11 l 633 67 l 646 13 q 507 -11 582 -11 q 310 34 394 -11 q 179 160 226 79 q 132 351 132 242 l 132 1004 l 265 1004 l 265 356 q 298 234 265 288 q 385 150 331 181 q 507 119 439 119 q 633 150 578 119 q 721 234 689 181 q 753 356 753 288 l 753 1004 l 885 1004 l 885 343 q 860 210 885 267 q 797 111 836 153 q 715 38 758 69 q 630 -45 664 -4 q 596 -137 596 -86 q 617 -190 596 -174 q 663 -206 638 -206 q 714 -188 690 -206 q 757 -140 738 -171 l 807 -206 q 738 -272 782 -246 q 650 -299 694 -299 z "},"Ů":{"ha":1015,"x_min":132,"x_max":885,"o":"m 265 356 q 298 234 265 288 q 385 150 331 181 q 507 119 439 119 q 633 150 578 119 q 721 234 689 181 q 753 356 753 288 l 753 1004 l 885 1004 l 885 351 q 834 160 885 242 q 698 33 783 78 q 507 -11 613 -11 l 507 -11 q 317 33 401 -11 q 182 160 232 78 q 132 351 132 242 l 132 1004 l 265 1004 l 265 356 m 382 1199 q 419 1288 382 1254 q 513 1322 456 1322 q 604 1288 567 1322 q 642 1199 642 1254 q 604 1110 642 1144 q 511 1075 567 1075 q 419 1110 456 1075 q 382 1199 382 1144 m 453 1197 q 469 1153 453 1171 q 513 1136 486 1136 q 554 1153 538 1136 q 571 1197 571 1171 q 554 1242 571 1225 q 513 1258 538 1258 q 469 1242 486 1258 q 453 1197 453 1225 z "},"Ũ":{"ha":1015,"x_min":132,"x_max":885,"o":"m 265 356 q 298 234 265 288 q 385 150 331 181 q 507 119 439 119 q 633 150 578 119 q 721 234 689 181 q 753 356 753 288 l 753 1004 l 885 1004 l 885 351 q 834 160 885 242 q 698 33 783 78 q 507 -11 613 -11 l 507 -11 q 317 33 401 -11 q 182 160 232 78 q 132 351 132 242 l 132 1004 l 265 1004 l 265 356 m 614 1114 q 541 1134 569 1114 q 488 1176 513 1154 q 454 1205 471 1192 q 417 1218 438 1218 q 387 1205 400 1218 q 367 1169 374 1192 q 360 1113 360 1146 l 290 1114 q 302 1211 286 1168 q 349 1279 318 1254 q 424 1304 381 1304 q 486 1285 460 1304 q 535 1244 513 1265 q 572 1210 554 1225 q 611 1196 590 1196 q 651 1226 639 1196 q 663 1306 663 1256 l 732 1304 q 723 1204 738 1247 q 679 1138 708 1161 q 614 1114 650 1114 z "},"V":{"ha":999,"x_min":57,"x_max":942,"o":"m 217 1004 l 547 174 l 471 189 l 785 1004 l 942 1004 l 499 -46 l 57 1004 l 217 1004 z "},"W":{"ha":1400,"x_min":57,"x_max":1343,"o":"m 57 999 l 213 999 l 485 232 l 461 242 l 660 756 l 722 574 l 457 -46 l 57 999 m 539 999 l 674 999 l 968 243 l 940 249 l 1200 999 l 1343 999 l 949 -44 l 539 999 z "},"Ẃ":{"ha":1400,"x_min":57,"x_max":1343,"o":"m 57 999 l 213 999 l 485 232 l 461 242 l 660 756 l 722 574 l 457 -46 l 57 999 m 539 999 l 674 999 l 968 243 l 940 249 l 1200 999 l 1343 999 l 949 -44 l 539 999 m 915 1242 l 739 1056 l 657 1056 l 772 1242 l 915 1242 z "},"Ŵ":{"ha":1400,"x_min":57,"x_max":1343,"o":"m 57 999 l 213 999 l 485 232 l 461 242 l 660 756 l 722 574 l 457 -46 l 57 999 m 539 999 l 674 999 l 968 243 l 940 249 l 1200 999 l 1343 999 l 949 -44 l 539 999 m 806 1082 l 676 1218 l 714 1226 l 582 1082 l 463 1082 l 692 1319 l 693 1319 l 925 1082 l 806 1082 z "},"Ẅ":{"ha":1400,"x_min":57,"x_max":1343,"o":"m 57 999 l 213 999 l 485 232 l 461 242 l 660 756 l 722 574 l 457 -46 l 57 999 m 539 999 l 674 999 l 968 243 l 940 249 l 1200 999 l 1343 999 l 949 -44 l 539 999 m 493 1140 q 515 1192 493 1171 q 565 1214 538 1214 q 615 1192 592 1214 q 638 1139 638 1171 q 615 1087 638 1107 q 565 1067 592 1067 q 515 1088 538 1067 q 493 1140 493 1108 l 493 1140 m 753 1140 q 776 1192 753 1171 q 826 1214 799 1214 q 874 1192 851 1214 q 897 1139 897 1171 q 874 1087 897 1107 q 826 1067 851 1067 q 776 1088 799 1067 q 753 1140 753 1108 l 753 1140 z "},"Ẁ":{"ha":1400,"x_min":57,"x_max":1343,"o":"m 57 999 l 213 999 l 485 232 l 461 242 l 660 756 l 722 574 l 457 -46 l 57 999 m 539 999 l 674 999 l 968 243 l 940 249 l 1200 999 l 1343 999 l 949 -44 l 539 999 m 492 1251 l 635 1251 l 736 1065 l 653 1065 l 492 1251 z "},"X":{"ha":933,"x_min":47,"x_max":886,"o":"m 61 1004 l 232 1004 l 886 0 l 714 0 l 61 1004 m 47 0 l 396 546 l 461 415 l 214 0 l 47 0 m 465 594 l 710 1004 l 872 1004 l 538 482 l 465 594 z "},"Y":{"ha":960,"x_min":39,"x_max":921,"o":"m 411 335 l 39 1004 l 204 1004 l 503 450 l 461 447 l 757 1004 l 921 1004 l 546 335 l 546 0 l 411 0 l 411 335 z "},"Ý":{"ha":960,"x_min":39,"x_max":921,"o":"m 411 335 l 39 1004 l 204 1004 l 503 450 l 461 447 l 757 1004 l 921 1004 l 546 335 l 546 0 l 411 0 l 411 335 m 711 1247 l 535 1061 l 453 1061 l 568 1247 l 711 1247 z "},"Ŷ":{"ha":960,"x_min":39,"x_max":921,"o":"m 411 335 l 39 1004 l 204 1004 l 503 450 l 461 447 l 757 1004 l 921 1004 l 546 335 l 546 0 l 411 0 l 411 335 m 603 1088 l 474 1224 l 511 1232 l 379 1088 l 260 1088 l 489 1325 l 490 1325 l 722 1088 l 603 1088 z "},"Ÿ":{"ha":960,"x_min":39,"x_max":921,"o":"m 411 335 l 39 1004 l 204 1004 l 503 450 l 461 447 l 757 1004 l 921 1004 l 546 335 l 546 0 l 411 0 l 411 335 m 289 1146 q 311 1198 289 1176 q 361 1219 333 1219 q 410 1198 388 1219 q 433 1144 433 1176 q 410 1092 433 1113 q 361 1072 388 1072 q 311 1093 333 1072 q 289 1146 289 1114 l 289 1146 m 549 1146 q 572 1198 549 1176 q 622 1219 594 1219 q 670 1198 647 1219 q 693 1144 693 1176 q 670 1092 693 1113 q 622 1072 647 1072 q 572 1093 594 1072 q 549 1146 549 1114 l 549 1146 z "},"Ỵ":{"ha":960,"x_min":39,"x_max":921,"o":"m 411 335 l 39 1004 l 204 1004 l 503 450 l 461 447 l 757 1004 l 921 1004 l 546 335 l 546 0 l 411 0 l 411 335 m 401 -142 q 426 -90 401 -111 q 479 -69 450 -69 q 531 -90 508 -69 q 554 -142 554 -111 q 531 -194 554 -174 q 479 -214 508 -214 q 426 -193 450 -214 q 401 -142 401 -172 z "},"Ỳ":{"ha":960,"x_min":39,"x_max":921,"o":"m 411 335 l 39 1004 l 204 1004 l 503 450 l 461 447 l 757 1004 l 921 1004 l 546 335 l 546 0 l 411 0 l 411 335 m 289 1257 l 432 1257 l 533 1071 l 450 1071 l 289 1257 z "},"Ỷ":{"ha":960,"x_min":39,"x_max":921,"o":"m 411 335 l 39 1004 l 204 1004 l 503 450 l 461 447 l 757 1004 l 921 1004 l 546 335 l 546 0 l 411 0 l 411 335 m 489 1110 q 533 1149 515 1131 q 550 1194 550 1168 q 539 1229 550 1215 q 506 1243 528 1243 q 468 1231 483 1243 q 440 1200 453 1219 l 392 1232 q 449 1297 415 1276 q 522 1318 483 1318 q 580 1303 557 1318 q 615 1264 603 1289 q 626 1210 626 1239 q 595 1128 626 1161 q 521 1069 564 1096 l 489 1110 z "},"Ȳ":{"ha":960,"x_min":39,"x_max":921,"o":"m 411 335 l 39 1004 l 204 1004 l 503 450 l 461 447 l 757 1004 l 921 1004 l 546 335 l 546 0 l 411 0 l 411 335 m 324 1167 l 665 1167 l 665 1075 l 324 1075 l 324 1167 z "},"Ỹ":{"ha":960,"x_min":39,"x_max":921,"o":"m 411 335 l 39 1004 l 204 1004 l 503 450 l 461 447 l 757 1004 l 921 1004 l 546 335 l 546 0 l 411 0 l 411 335 m 604 1110 q 531 1130 560 1110 q 478 1172 503 1150 q 444 1201 461 1188 q 407 1214 428 1214 q 377 1201 390 1214 q 357 1165 364 1188 q 350 1108 350 1142 l 281 1110 q 292 1207 276 1164 q 340 1275 308 1250 q 414 1300 371 1300 q 476 1281 450 1300 q 525 1240 503 1261 q 563 1206 544 1221 q 601 1192 581 1192 q 641 1222 629 1192 q 653 1301 653 1251 l 722 1300 q 713 1200 728 1243 q 669 1133 699 1157 q 604 1110 640 1110 z "},"Z":{"ha":989,"x_min":71,"x_max":914,"o":"m 71 0 q 117 68 86 22 q 190 176 149 114 q 280 311 232 239 q 378 458 328 383 q 477 605 429 533 q 567 738 525 676 q 640 845 608 800 q 686 911 671 890 l 704 875 l 240 875 q 188 885 214 875 q 144 914 161 894 q 128 960 128 933 l 128 1054 l 253 1054 l 253 1036 q 263 1008 253 1011 q 296 1004 272 1004 l 897 1004 l 290 113 l 282 129 l 914 129 l 914 0 l 71 0 z "},"Ź":{"ha":989,"x_min":71,"x_max":914,"o":"m 71 0 q 117 68 86 22 q 190 176 149 114 q 280 311 232 239 q 378 458 328 383 q 477 605 429 533 q 567 738 525 676 q 640 845 608 800 q 686 911 671 890 l 704 875 l 240 875 q 188 885 214 875 q 144 914 161 894 q 128 960 128 933 l 128 1054 l 253 1054 l 253 1036 q 263 1008 253 1011 q 296 1004 272 1004 l 897 1004 l 290 113 l 282 129 l 914 129 l 914 0 l 71 0 m 708 1233 l 532 1047 l 450 1047 l 565 1233 l 708 1233 z "},"Ž":{"ha":989,"x_min":71,"x_max":914,"o":"m 71 0 q 117 68 86 22 q 190 176 149 114 q 280 311 232 239 q 378 458 328 383 q 477 605 429 533 q 567 738 525 676 q 640 845 608 800 q 686 911 671 890 l 704 875 l 240 875 q 188 885 214 875 q 144 914 161 894 q 128 960 128 933 l 128 1054 l 253 1054 l 253 1036 q 263 1008 253 1011 q 296 1004 272 1004 l 897 1004 l 290 113 l 282 129 l 914 129 l 914 0 l 71 0 m 379 1278 l 511 1140 l 472 1132 l 604 1278 l 724 1278 l 494 1039 l 493 1039 l 260 1278 l 379 1278 z "},"Ż":{"ha":989,"x_min":71,"x_max":914,"o":"m 71 0 q 117 68 86 22 q 190 176 149 114 q 280 311 232 239 q 378 458 328 383 q 477 605 429 533 q 567 738 525 676 q 640 845 608 800 q 686 911 671 890 l 704 875 l 240 875 q 188 885 214 875 q 144 914 161 894 q 128 960 128 933 l 128 1054 l 253 1054 l 253 1036 q 263 1008 253 1011 q 296 1004 272 1004 l 897 1004 l 290 113 l 282 129 l 914 129 l 914 0 l 71 0 m 418 1129 q 442 1181 418 1160 q 496 1201 467 1201 q 548 1181 525 1201 q 571 1129 571 1160 q 548 1077 571 1097 q 496 1057 525 1057 q 442 1078 467 1057 q 418 1129 418 1099 z "},"a":{"ha":814,"x_min":63,"x_max":703,"o":"m 351 -14 q 205 21 271 -14 q 101 123 139 56 q 63 288 63 190 q 103 453 63 383 q 210 561 143 524 q 358 599 278 599 q 494 562 439 599 q 579 475 550 525 l 571 453 l 583 575 l 703 575 l 703 0 l 574 0 l 574 150 l 588 117 q 563 81 582 103 q 513 38 544 60 q 442 1 482 15 q 351 -14 401 -14 m 386 93 q 474 111 435 93 q 538 162 513 129 q 574 240 564 194 l 574 353 q 535 426 563 394 q 468 474 507 457 q 382 492 429 492 q 288 467 331 492 q 219 397 244 442 q 193 293 193 353 q 219 192 193 238 q 290 119 246 146 q 386 93 335 93 z "},"á":{"ha":814,"x_min":63,"x_max":703,"o":"m 351 -14 q 205 21 271 -14 q 101 123 139 56 q 63 288 63 190 q 103 453 63 383 q 210 561 143 524 q 358 599 278 599 q 494 562 439 599 q 579 475 550 525 l 571 453 l 583 575 l 703 575 l 703 0 l 574 0 l 574 150 l 588 117 q 563 81 582 103 q 513 38 544 60 q 442 1 482 15 q 351 -14 401 -14 m 386 93 q 474 111 435 93 q 538 162 513 129 q 574 240 564 194 l 574 353 q 535 426 563 394 q 468 474 507 457 q 382 492 429 492 q 288 467 331 492 q 219 397 244 442 q 193 293 193 353 q 219 192 193 238 q 290 119 246 146 q 386 93 335 93 m 582 867 l 406 681 l 324 681 l 439 867 l 582 867 z "},"ă":{"ha":814,"x_min":63,"x_max":703,"o":"m 351 -14 q 205 21 271 -14 q 101 123 139 56 q 63 288 63 190 q 103 453 63 383 q 210 561 143 524 q 358 599 278 599 q 494 562 439 599 q 579 475 550 525 l 571 453 l 583 575 l 703 575 l 703 0 l 574 0 l 574 150 l 588 117 q 563 81 582 103 q 513 38 544 60 q 442 1 482 15 q 351 -14 401 -14 m 386 93 q 474 111 435 93 q 538 162 513 129 q 574 240 564 194 l 574 353 q 535 426 563 394 q 468 474 507 457 q 382 492 429 492 q 288 467 331 492 q 219 397 244 442 q 193 293 193 353 q 219 192 193 238 q 290 119 246 146 q 386 93 335 93 m 425 665 q 323 694 367 665 q 252 777 279 722 q 215 910 225 832 l 303 910 q 324 830 310 865 q 365 774 339 794 q 425 754 390 754 q 487 774 463 754 q 525 830 511 794 q 544 910 539 865 l 633 910 q 597 776 624 831 q 526 693 569 721 q 425 665 483 665 z "},"ắ":{"ha":814,"x_min":63,"x_max":703,"o":"m 351 -14 q 205 21 271 -14 q 101 123 139 56 q 63 288 63 190 q 103 453 63 383 q 210 561 143 524 q 358 599 278 599 q 494 562 439 599 q 579 475 550 525 l 571 453 l 583 575 l 703 575 l 703 0 l 574 0 l 574 150 l 588 117 q 563 81 582 103 q 513 38 544 60 q 442 1 482 15 q 351 -14 401 -14 m 386 93 q 474 111 435 93 q 538 162 513 129 q 574 240 564 194 l 574 353 q 535 426 563 394 q 468 474 507 457 q 382 492 429 492 q 288 467 331 492 q 219 397 244 442 q 193 293 193 353 q 219 192 193 238 q 290 119 246 146 q 386 93 335 93 m 425 665 q 323 694 367 665 q 252 777 279 722 q 215 910 225 832 l 303 910 q 324 830 310 865 q 365 774 339 794 q 425 754 390 754 q 487 774 463 754 q 525 830 511 794 q 544 910 539 865 l 633 910 q 597 776 624 831 q 526 693 569 721 q 425 665 483 665 m 565 1124 l 389 938 l 307 938 l 422 1124 l 565 1124 z "},"ặ":{"ha":814,"x_min":63,"x_max":703,"o":"m 351 -14 q 205 21 271 -14 q 101 123 139 56 q 63 288 63 190 q 103 453 63 383 q 210 561 143 524 q 358 599 278 599 q 494 562 439 599 q 579 475 550 525 l 571 453 l 583 575 l 703 575 l 703 0 l 574 0 l 574 150 l 588 117 q 563 81 582 103 q 513 38 544 60 q 442 1 482 15 q 351 -14 401 -14 m 386 93 q 474 111 435 93 q 538 162 513 129 q 574 240 564 194 l 574 353 q 535 426 563 394 q 468 474 507 457 q 382 492 429 492 q 288 467 331 492 q 219 397 244 442 q 193 293 193 353 q 219 192 193 238 q 290 119 246 146 q 386 93 335 93 m 339 -144 q 360 -100 339 -118 q 407 -82 381 -82 q 451 -100 431 -82 q 472 -144 472 -118 q 451 -190 472 -172 q 407 -207 431 -207 q 360 -189 381 -207 q 339 -144 339 -171 m 425 665 q 323 694 367 665 q 252 777 279 722 q 215 910 225 832 l 303 910 q 324 830 310 865 q 365 774 339 794 q 425 754 390 754 q 487 774 463 754 q 525 830 511 794 q 544 910 539 865 l 633 910 q 597 776 624 831 q 526 693 569 721 q 425 665 483 665 z "},"ằ":{"ha":814,"x_min":63,"x_max":703,"o":"m 351 -14 q 205 21 271 -14 q 101 123 139 56 q 63 288 63 190 q 103 453 63 383 q 210 561 143 524 q 358 599 278 599 q 494 562 439 599 q 579 475 550 525 l 571 453 l 583 575 l 703 575 l 703 0 l 574 0 l 574 150 l 588 117 q 563 81 582 103 q 513 38 544 60 q 442 1 482 15 q 351 -14 401 -14 m 386 93 q 474 111 435 93 q 538 162 513 129 q 574 240 564 194 l 574 353 q 535 426 563 394 q 468 474 507 457 q 382 492 429 492 q 288 467 331 492 q 219 397 244 442 q 193 293 193 353 q 219 192 193 238 q 290 119 246 146 q 386 93 335 93 m 425 665 q 323 694 367 665 q 252 777 279 722 q 215 910 225 832 l 303 910 q 324 830 310 865 q 365 774 339 794 q 425 754 390 754 q 487 774 463 754 q 525 830 511 794 q 544 910 539 865 l 633 910 q 597 776 624 831 q 526 693 569 721 q 425 665 483 665 m 225 1119 l 368 1119 l 469 933 l 386 933 l 225 1119 z "},"ẳ":{"ha":814,"x_min":63,"x_max":703,"o":"m 351 -14 q 205 21 271 -14 q 101 123 139 56 q 63 288 63 190 q 103 453 63 383 q 210 561 143 524 q 358 599 278 599 q 494 562 439 599 q 579 475 550 525 l 571 453 l 583 575 l 703 575 l 703 0 l 574 0 l 574 150 l 588 117 q 563 81 582 103 q 513 38 544 60 q 442 1 482 15 q 351 -14 401 -14 m 386 93 q 474 111 435 93 q 538 162 513 129 q 574 240 564 194 l 574 353 q 535 426 563 394 q 468 474 507 457 q 382 492 429 492 q 288 467 331 492 q 219 397 244 442 q 193 293 193 353 q 219 192 193 238 q 290 119 246 146 q 386 93 335 93 m 425 665 q 323 694 367 665 q 252 777 279 722 q 215 910 225 832 l 303 910 q 324 830 310 865 q 365 774 339 794 q 425 754 390 754 q 487 774 463 754 q 525 830 511 794 q 544 910 539 865 l 633 910 q 597 776 624 831 q 526 693 569 721 q 425 665 483 665 m 415 953 q 459 992 442 974 q 476 1038 476 1011 q 465 1072 476 1058 q 432 1086 454 1086 q 394 1074 410 1086 q 367 1043 379 1063 l 318 1075 q 376 1140 342 1119 q 449 1161 410 1161 q 506 1147 483 1161 q 541 1107 529 1132 q 553 1053 553 1082 q 522 972 553 1004 q 447 913 490 939 l 415 953 z "},"ẵ":{"ha":814,"x_min":63,"x_max":703,"o":"m 351 -14 q 205 21 271 -14 q 101 123 139 56 q 63 288 63 190 q 103 453 63 383 q 210 561 143 524 q 358 599 278 599 q 494 562 439 599 q 579 475 550 525 l 571 453 l 583 575 l 703 575 l 703 0 l 574 0 l 574 150 l 588 117 q 563 81 582 103 q 513 38 544 60 q 442 1 482 15 q 351 -14 401 -14 m 386 93 q 474 111 435 93 q 538 162 513 129 q 574 240 564 194 l 574 353 q 535 426 563 394 q 468 474 507 457 q 382 492 429 492 q 288 467 331 492 q 219 397 244 442 q 193 293 193 353 q 219 192 193 238 q 290 119 246 146 q 386 93 335 93 m 425 665 q 323 694 367 665 q 252 777 279 722 q 215 910 225 832 l 303 910 q 324 830 310 865 q 365 774 339 794 q 425 754 390 754 q 487 774 463 754 q 525 830 511 794 q 544 910 539 865 l 633 910 q 597 776 624 831 q 526 693 569 721 q 425 665 483 665 m 543 956 q 470 976 499 956 q 417 1018 442 996 q 383 1047 400 1033 q 346 1060 367 1060 q 316 1047 329 1060 q 296 1010 303 1033 q 289 954 289 986 l 219 954 q 231 1052 215 1008 q 278 1121 247 1096 q 353 1146 310 1146 q 415 1126 389 1146 q 464 1085 442 1106 q 501 1052 483 1067 q 540 1038 519 1038 q 580 1067 568 1038 q 592 1146 592 1096 l 661 1146 q 652 1044 667 1088 q 608 978 638 1001 q 543 956 579 956 z "},"â":{"ha":814,"x_min":63,"x_max":703,"o":"m 351 -14 q 205 21 271 -14 q 101 123 139 56 q 63 288 63 190 q 103 453 63 383 q 210 561 143 524 q 358 599 278 599 q 494 562 439 599 q 579 475 550 525 l 571 453 l 583 575 l 703 575 l 703 0 l 574 0 l 574 150 l 588 117 q 563 81 582 103 q 513 38 544 60 q 442 1 482 15 q 351 -14 401 -14 m 386 93 q 474 111 435 93 q 538 162 513 129 q 574 240 564 194 l 574 353 q 535 426 563 394 q 468 474 507 457 q 382 492 429 492 q 288 467 331 492 q 219 397 244 442 q 193 293 193 353 q 219 192 193 238 q 290 119 246 146 q 386 93 335 93 m 536 693 l 407 829 l 444 838 l 313 693 l 193 693 l 422 931 l 424 931 l 656 693 l 536 693 z "},"ấ":{"ha":814,"x_min":63,"x_max":806,"o":"m 351 -14 q 205 21 271 -14 q 101 123 139 56 q 63 288 63 190 q 103 453 63 383 q 210 561 143 524 q 358 599 278 599 q 494 562 439 599 q 579 475 550 525 l 571 453 l 583 575 l 703 575 l 703 0 l 574 0 l 574 150 l 588 117 q 563 81 582 103 q 513 38 544 60 q 442 1 482 15 q 351 -14 401 -14 m 386 93 q 474 111 435 93 q 538 162 513 129 q 574 240 564 194 l 574 353 q 535 426 563 394 q 468 474 507 457 q 382 492 429 492 q 288 467 331 492 q 219 397 244 442 q 193 293 193 353 q 219 192 193 238 q 290 119 246 146 q 386 93 335 93 m 539 686 l 410 822 l 447 831 l 315 686 l 196 686 l 425 924 l 426 924 l 658 686 l 539 686 m 804 1007 l 628 821 l 546 821 l 661 1007 l 804 1007 z "},"ậ":{"ha":814,"x_min":63,"x_max":703,"o":"m 351 -14 q 205 21 271 -14 q 101 123 139 56 q 63 288 63 190 q 103 453 63 383 q 210 561 143 524 q 358 599 278 599 q 494 562 439 599 q 579 475 550 525 l 571 453 l 583 575 l 703 575 l 703 0 l 574 0 l 574 150 l 588 117 q 563 81 582 103 q 513 38 544 60 q 442 1 482 15 q 351 -14 401 -14 m 386 93 q 474 111 435 93 q 538 162 513 129 q 574 240 564 194 l 574 353 q 535 426 563 394 q 468 474 507 457 q 382 492 429 492 q 288 467 331 492 q 219 397 244 442 q 193 293 193 353 q 219 192 193 238 q 290 119 246 146 q 386 93 335 93 m 339 -144 q 360 -100 339 -118 q 407 -82 381 -82 q 451 -100 431 -82 q 472 -144 472 -118 q 451 -190 472 -172 q 407 -207 431 -207 q 360 -189 381 -207 q 339 -144 339 -171 m 536 693 l 407 829 l 444 838 l 313 693 l 193 693 l 422 931 l 424 931 l 656 693 l 536 693 z "},"ầ":{"ha":814,"x_min":1,"x_max":703,"o":"m 351 -14 q 205 21 271 -14 q 101 123 139 56 q 63 288 63 190 q 103 453 63 383 q 210 561 143 524 q 358 599 278 599 q 494 562 439 599 q 579 475 550 525 l 571 453 l 583 575 l 703 575 l 703 0 l 574 0 l 574 150 l 588 117 q 563 81 582 103 q 513 38 544 60 q 442 1 482 15 q 351 -14 401 -14 m 386 93 q 474 111 435 93 q 538 162 513 129 q 574 240 564 194 l 574 353 q 535 426 563 394 q 468 474 507 457 q 382 492 429 492 q 288 467 331 492 q 219 397 244 442 q 193 293 193 353 q 219 192 193 238 q 290 119 246 146 q 386 93 335 93 m 529 682 l 400 818 l 438 826 l 306 682 l 186 682 l 415 919 l 417 919 l 649 682 l 529 682 m 1 1015 l 144 1015 l 246 829 l 163 829 l 1 1015 z "},"ẩ":{"ha":814,"x_min":63,"x_max":775,"o":"m 351 -14 q 205 21 271 -14 q 101 123 139 56 q 63 288 63 190 q 103 453 63 383 q 210 561 143 524 q 358 599 278 599 q 494 562 439 599 q 579 475 550 525 l 571 453 l 583 575 l 703 575 l 703 0 l 574 0 l 574 150 l 588 117 q 563 81 582 103 q 513 38 544 60 q 442 1 482 15 q 351 -14 401 -14 m 386 93 q 474 111 435 93 q 538 162 513 129 q 574 240 564 194 l 574 353 q 535 426 563 394 q 468 474 507 457 q 382 492 429 492 q 288 467 331 492 q 219 397 244 442 q 193 293 193 353 q 219 192 193 238 q 290 119 246 146 q 386 93 335 93 m 533 686 l 404 822 l 442 831 l 310 686 l 190 686 l 419 924 l 421 924 l 653 686 l 533 686 m 636 831 q 680 870 663 851 q 697 915 697 889 q 686 950 697 936 q 653 964 675 964 q 615 952 631 964 q 588 921 600 940 l 539 953 q 597 1018 563 997 q 669 1039 631 1039 q 727 1024 704 1039 q 762 985 750 1010 q 774 931 774 960 q 742 849 774 882 q 668 790 711 817 l 636 831 z "},"ẫ":{"ha":814,"x_min":63,"x_max":703,"o":"m 351 -14 q 205 21 271 -14 q 101 123 139 56 q 63 288 63 190 q 103 453 63 383 q 210 561 143 524 q 358 599 278 599 q 494 562 439 599 q 579 475 550 525 l 571 453 l 583 575 l 703 575 l 703 0 l 574 0 l 574 150 l 588 117 q 563 81 582 103 q 513 38 544 60 q 442 1 482 15 q 351 -14 401 -14 m 386 93 q 474 111 435 93 q 538 162 513 129 q 574 240 564 194 l 574 353 q 535 426 563 394 q 468 474 507 457 q 382 492 429 492 q 288 467 331 492 q 219 397 244 442 q 193 293 193 353 q 219 192 193 238 q 290 119 246 146 q 386 93 335 93 m 529 675 l 400 811 l 438 819 l 306 675 l 186 675 l 415 913 l 417 913 l 649 675 l 529 675 m 525 947 q 452 967 481 947 q 399 1010 424 988 q 365 1038 382 1025 q 328 1051 349 1051 q 298 1038 311 1051 q 278 1001 285 1025 q 271 946 271 978 l 201 946 q 213 1044 197 1000 q 260 1113 229 1088 q 335 1138 292 1138 q 397 1117 371 1138 q 446 1076 424 1097 q 483 1044 465 1058 q 522 1029 501 1029 q 562 1058 550 1029 q 574 1138 574 1088 l 643 1138 q 634 1036 649 1079 q 590 970 619 993 q 525 947 561 947 z "},"ȁ":{"ha":814,"x_min":63,"x_max":703,"o":"m 351 -14 q 205 21 271 -14 q 101 123 139 56 q 63 288 63 190 q 103 453 63 383 q 210 561 143 524 q 358 599 278 599 q 494 562 439 599 q 579 475 550 525 l 571 453 l 583 575 l 703 575 l 703 0 l 574 0 l 574 150 l 588 117 q 563 81 582 103 q 513 38 544 60 q 442 1 482 15 q 351 -14 401 -14 m 386 93 q 474 111 435 93 q 538 162 513 129 q 574 240 564 194 l 574 353 q 535 426 563 394 q 468 474 507 457 q 382 492 429 492 q 288 467 331 492 q 219 397 244 442 q 193 293 193 353 q 219 192 193 238 q 290 119 246 146 q 386 93 335 93 m 135 878 l 278 878 l 379 692 l 296 692 l 135 878 m 332 878 l 475 878 l 576 692 l 493 692 l 332 878 z "},"ä":{"ha":814,"x_min":63,"x_max":703,"o":"m 351 -14 q 205 21 271 -14 q 101 123 139 56 q 63 288 63 190 q 103 453 63 383 q 210 561 143 524 q 358 599 278 599 q 494 562 439 599 q 579 475 550 525 l 571 453 l 583 575 l 703 575 l 703 0 l 574 0 l 574 150 l 588 117 q 563 81 582 103 q 513 38 544 60 q 442 1 482 15 q 351 -14 401 -14 m 386 93 q 474 111 435 93 q 538 162 513 129 q 574 240 564 194 l 574 353 q 535 426 563 394 q 468 474 507 457 q 382 492 429 492 q 288 467 331 492 q 219 397 244 442 q 193 293 193 353 q 219 192 193 238 q 290 119 246 146 q 386 93 335 93 m 221 750 q 243 802 221 781 q 293 824 265 824 q 342 802 319 824 q 365 749 365 781 q 342 697 365 717 q 293 676 319 676 q 243 697 265 676 q 221 750 221 718 l 221 750 m 481 750 q 503 802 481 781 q 554 824 526 824 q 602 802 579 824 q 625 749 625 781 q 602 697 625 717 q 554 676 579 676 q 503 697 526 676 q 481 750 481 718 l 481 750 z "},"ạ":{"ha":814,"x_min":63,"x_max":703,"o":"m 351 -14 q 205 21 271 -14 q 101 123 139 56 q 63 288 63 190 q 103 453 63 383 q 210 561 143 524 q 358 599 278 599 q 494 562 439 599 q 579 475 550 525 l 571 453 l 583 575 l 703 575 l 703 0 l 574 0 l 574 150 l 588 117 q 563 81 582 103 q 513 38 544 60 q 442 1 482 15 q 351 -14 401 -14 m 386 93 q 474 111 435 93 q 538 162 513 129 q 574 240 564 194 l 574 353 q 535 426 563 394 q 468 474 507 457 q 382 492 429 492 q 288 467 331 492 q 219 397 244 442 q 193 293 193 353 q 219 192 193 238 q 290 119 246 146 q 386 93 335 93 m 339 -144 q 360 -100 339 -118 q 407 -82 381 -82 q 451 -100 431 -82 q 472 -144 472 -118 q 451 -190 472 -172 q 407 -207 431 -207 q 360 -189 381 -207 q 339 -144 339 -171 z "},"à":{"ha":814,"x_min":63,"x_max":703,"o":"m 351 -14 q 205 21 271 -14 q 101 123 139 56 q 63 288 63 190 q 103 453 63 383 q 210 561 143 524 q 358 599 278 599 q 494 562 439 599 q 579 475 550 525 l 571 453 l 583 575 l 703 575 l 703 0 l 574 0 l 574 150 l 588 117 q 563 81 582 103 q 513 38 544 60 q 442 1 482 15 q 351 -14 401 -14 m 386 93 q 474 111 435 93 q 538 162 513 129 q 574 240 564 194 l 574 353 q 535 426 563 394 q 468 474 507 457 q 382 492 429 492 q 288 467 331 492 q 219 397 244 442 q 193 293 193 353 q 219 192 193 238 q 290 119 246 146 q 386 93 335 93 m 224 878 l 367 878 l 468 692 l 385 692 l 224 878 z "},"ả":{"ha":814,"x_min":63,"x_max":703,"o":"m 351 -14 q 205 21 271 -14 q 101 123 139 56 q 63 288 63 190 q 103 453 63 383 q 210 561 143 524 q 358 599 278 599 q 494 562 439 599 q 579 475 550 525 l 571 453 l 583 575 l 703 575 l 703 0 l 574 0 l 574 150 l 588 117 q 563 81 582 103 q 513 38 544 60 q 442 1 482 15 q 351 -14 401 -14 m 386 93 q 474 111 435 93 q 538 162 513 129 q 574 240 564 194 l 574 353 q 535 426 563 394 q 468 474 507 457 q 382 492 429 492 q 288 467 331 492 q 219 397 244 442 q 193 293 193 353 q 219 192 193 238 q 290 119 246 146 q 386 93 335 93 m 397 699 q 441 738 424 719 q 458 783 458 757 q 447 818 458 804 q 414 832 436 832 q 376 820 392 832 q 349 789 361 808 l 300 821 q 358 886 324 865 q 431 907 392 907 q 488 892 465 907 q 523 853 511 878 q 535 799 535 828 q 503 717 535 750 q 429 658 472 685 l 397 699 z "},"ȃ":{"ha":814,"x_min":63,"x_max":703,"o":"m 351 -14 q 205 21 271 -14 q 101 123 139 56 q 63 288 63 190 q 103 453 63 383 q 210 561 143 524 q 358 599 278 599 q 494 562 439 599 q 579 475 550 525 l 571 453 l 583 575 l 703 575 l 703 0 l 574 0 l 574 150 l 588 117 q 563 81 582 103 q 513 38 544 60 q 442 1 482 15 q 351 -14 401 -14 m 386 93 q 474 111 435 93 q 538 162 513 129 q 574 240 564 194 l 574 353 q 535 426 563 394 q 468 474 507 457 q 382 492 429 492 q 288 467 331 492 q 219 397 244 442 q 193 293 193 353 q 219 192 193 238 q 290 119 246 146 q 386 93 335 93 m 429 900 q 531 872 488 900 q 602 788 575 843 q 639 656 629 733 l 551 656 q 531 736 546 701 q 490 791 515 771 q 429 811 465 811 q 368 791 393 811 q 329 736 343 771 q 310 656 315 701 l 221 656 q 258 790 231 735 q 328 872 285 844 q 429 900 371 900 z "},"ā":{"ha":814,"x_min":63,"x_max":703,"o":"m 351 -14 q 205 21 271 -14 q 101 123 139 56 q 63 288 63 190 q 103 453 63 383 q 210 561 143 524 q 358 599 278 599 q 494 562 439 599 q 579 475 550 525 l 571 453 l 583 575 l 703 575 l 703 0 l 574 0 l 574 150 l 588 117 q 563 81 582 103 q 513 38 544 60 q 442 1 482 15 q 351 -14 401 -14 m 386 93 q 474 111 435 93 q 538 162 513 129 q 574 240 564 194 l 574 353 q 535 426 563 394 q 468 474 507 457 q 382 492 429 492 q 288 467 331 492 q 219 397 244 442 q 193 293 193 353 q 219 192 193 238 q 290 119 246 146 q 386 93 335 93 m 254 772 l 596 772 l 596 681 l 254 681 l 254 772 z "},"ą":{"ha":821,"x_min":65,"x_max":778,"o":"m 351 -14 q 207 21 272 -14 q 103 123 142 56 q 65 288 65 190 q 105 453 65 383 q 210 561 144 524 q 351 599 275 599 q 454 582 411 599 q 528 538 497 565 q 578 475 558 510 l 588 575 l 706 575 l 706 1 q 606 -62 644 -29 q 567 -137 567 -94 q 588 -190 567 -174 q 633 -206 608 -206 q 685 -188 661 -206 q 728 -140 708 -171 l 778 -206 q 709 -272 753 -246 q 622 -299 665 -299 q 506 -257 554 -299 q 458 -147 458 -215 q 492 -56 458 -100 q 582 14 526 -11 l 593 -6 l 576 -22 l 576 149 l 586 117 q 538 61 569 92 q 460 8 506 31 q 351 -14 414 -14 m 386 93 q 474 111 435 93 q 540 162 514 129 q 576 240 567 194 l 576 353 q 538 426 565 394 q 472 474 511 457 q 386 492 432 492 q 291 467 335 492 q 222 397 247 442 q 196 293 196 353 q 222 192 196 238 q 291 119 247 146 q 386 93 335 93 z "},"å":{"ha":814,"x_min":63,"x_max":703,"o":"m 351 -14 q 205 21 271 -14 q 101 123 139 56 q 63 288 63 190 q 103 453 63 383 q 210 561 143 524 q 358 599 278 599 q 494 562 439 599 q 579 475 550 525 l 571 453 l 583 575 l 703 575 l 703 0 l 574 0 l 574 150 l 588 117 q 563 81 582 103 q 513 38 544 60 q 442 1 482 15 q 351 -14 401 -14 m 386 93 q 474 111 435 93 q 538 162 513 129 q 574 240 564 194 l 574 353 q 535 426 563 394 q 468 474 507 457 q 382 492 429 492 q 288 467 331 492 q 219 397 244 442 q 193 293 193 353 q 219 192 193 238 q 290 119 246 146 q 386 93 335 93 m 283 769 q 320 859 283 825 q 414 893 357 893 q 506 859 468 893 q 543 769 543 825 q 506 681 543 715 q 413 646 468 646 q 320 681 357 646 q 283 769 283 715 m 354 768 q 371 724 354 742 q 414 707 388 707 q 456 724 439 707 q 472 768 472 742 q 456 813 472 796 q 414 829 439 829 q 371 813 388 829 q 354 768 354 796 z "},"ǻ":{"ha":814,"x_min":63,"x_max":703,"o":"m 351 -14 q 205 21 271 -14 q 101 123 139 56 q 63 288 63 190 q 103 453 63 383 q 210 561 143 524 q 358 599 278 599 q 494 562 439 599 q 579 475 550 525 l 571 453 l 583 575 l 703 575 l 703 0 l 574 0 l 574 150 l 588 117 q 563 81 582 103 q 513 38 544 60 q 442 1 482 15 q 351 -14 401 -14 m 386 93 q 474 111 435 93 q 538 162 513 129 q 574 240 564 194 l 574 353 q 535 426 563 394 q 468 474 507 457 q 382 492 429 492 q 288 467 331 492 q 219 397 244 442 q 193 293 193 353 q 219 192 193 238 q 290 119 246 146 q 386 93 335 93 m 283 769 q 320 859 283 825 q 414 893 357 893 q 506 859 468 893 q 543 769 543 825 q 506 681 543 715 q 413 646 468 646 q 320 681 357 646 q 283 769 283 715 m 354 768 q 371 724 354 742 q 414 707 388 707 q 456 724 439 707 q 472 768 472 742 q 456 813 472 796 q 414 829 439 829 q 371 813 388 829 q 354 768 354 796 m 582 1168 l 406 982 l 324 982 l 439 1168 l 582 1168 z "},"ã":{"ha":814,"x_min":63,"x_max":703,"o":"m 351 -14 q 205 21 271 -14 q 101 123 139 56 q 63 288 63 190 q 103 453 63 383 q 210 561 143 524 q 358 599 278 599 q 494 562 439 599 q 579 475 550 525 l 571 453 l 583 575 l 703 575 l 703 0 l 574 0 l 574 150 l 588 117 q 563 81 582 103 q 513 38 544 60 q 442 1 482 15 q 351 -14 401 -14 m 386 93 q 474 111 435 93 q 538 162 513 129 q 574 240 564 194 l 574 353 q 535 426 563 394 q 468 474 507 457 q 382 492 429 492 q 288 467 331 492 q 219 397 244 442 q 193 293 193 353 q 219 192 193 238 q 290 119 246 146 q 386 93 335 93 m 531 656 q 458 676 486 656 q 404 718 429 696 q 371 747 388 733 q 333 760 354 760 q 303 747 317 760 q 283 710 290 733 q 276 654 276 686 l 207 654 q 219 752 203 708 q 266 821 235 796 q 340 846 297 846 q 403 826 376 846 q 451 785 429 806 q 489 752 471 767 q 528 738 507 738 q 567 767 556 738 q 579 846 579 796 l 649 846 q 640 744 654 788 q 596 678 625 701 q 531 656 567 656 z "},"æ":{"ha":1131,"x_min":63,"x_max":1082,"o":"m 288 -15 q 159 8 208 -15 q 86 72 110 32 q 63 163 63 113 q 96 259 63 219 q 183 319 129 299 q 296 340 236 340 q 423 318 361 340 q 518 261 485 296 l 496 186 q 416 238 454 221 q 325 254 378 254 q 265 245 293 254 q 221 217 238 236 q 204 167 204 197 q 234 101 204 126 q 322 76 264 76 q 378 85 349 76 q 435 109 408 93 q 479 144 463 125 l 479 232 l 535 232 l 536 89 q 465 28 507 51 q 377 -5 424 6 q 288 -15 331 -15 m 471 274 l 471 365 q 449 444 471 417 q 397 481 426 471 q 340 490 367 490 q 242 465 286 490 q 164 400 197 439 l 99 482 q 207 563 143 529 q 358 597 271 597 q 483 574 429 597 q 566 508 536 551 q 596 400 596 465 l 596 357 l 471 274 m 788 -14 q 619 26 690 -14 q 510 134 549 65 q 471 292 471 203 q 514 446 471 376 q 629 557 557 515 q 790 599 701 599 q 979 532 904 599 q 1082 349 1054 465 l 608 182 l 576 258 l 965 400 l 939 382 q 883 462 921 428 q 781 496 844 496 q 687 470 728 496 q 622 400 646 444 q 599 299 599 356 q 623 194 599 239 q 691 123 647 149 q 790 97 735 97 q 865 111 829 97 q 931 147 900 125 l 990 51 q 892 4 946 22 q 788 -14 839 -14 z "},"ǽ":{"ha":1131,"x_min":63,"x_max":1082,"o":"m 288 -15 q 159 8 208 -15 q 86 72 110 32 q 63 163 63 113 q 96 259 63 219 q 183 319 129 299 q 296 340 236 340 q 423 318 361 340 q 518 261 485 296 l 496 186 q 416 238 454 221 q 325 254 378 254 q 265 245 293 254 q 221 217 238 236 q 204 167 204 197 q 234 101 204 126 q 322 76 264 76 q 378 85 349 76 q 435 109 408 93 q 479 144 463 125 l 479 232 l 535 232 l 536 89 q 465 28 507 51 q 377 -5 424 6 q 288 -15 331 -15 m 471 274 l 471 365 q 449 444 471 417 q 397 481 426 471 q 340 490 367 490 q 242 465 286 490 q 164 400 197 439 l 99 482 q 207 563 143 529 q 358 597 271 597 q 483 574 429 597 q 566 508 536 551 q 596 400 596 465 l 596 357 l 471 274 m 788 -14 q 619 26 690 -14 q 510 134 549 65 q 471 292 471 203 q 514 446 471 376 q 629 557 557 515 q 790 599 701 599 q 979 532 904 599 q 1082 349 1054 465 l 608 182 l 576 258 l 965 400 l 939 382 q 883 462 921 428 q 781 496 844 496 q 687 470 728 496 q 622 400 646 444 q 599 299 599 356 q 623 194 599 239 q 691 123 647 149 q 790 97 735 97 q 865 111 829 97 q 931 147 900 125 l 990 51 q 892 4 946 22 q 788 -14 839 -14 m 721 849 l 544 663 l 463 663 l 578 849 l 721 849 z "},"b":{"ha":824,"x_min":113,"x_max":761,"o":"m 463 -14 q 323 21 383 -14 q 226 108 263 56 l 242 149 l 242 0 l 113 0 l 113 1075 l 240 1075 l 240 443 l 236 492 q 335 569 271 539 q 479 599 400 599 q 621 561 557 599 q 723 456 685 524 q 761 296 761 389 q 720 129 761 199 q 611 23 679 60 q 463 -14 543 -14 m 436 96 q 536 122 492 96 q 606 194 581 149 q 631 297 631 239 q 605 398 631 353 q 535 469 579 443 q 436 496 492 496 q 349 478 389 496 q 281 428 308 460 q 242 356 253 397 l 242 240 q 279 166 253 199 q 346 115 306 133 q 436 96 386 96 z "},"c":{"ha":633,"x_min":63,"x_max":582,"o":"m 579 53 q 486 4 540 22 q 378 -14 432 -14 q 213 24 283 -14 q 102 128 142 61 q 63 288 63 196 q 105 447 63 379 q 216 552 147 515 q 364 589 285 589 q 488 569 433 589 q 582 517 543 550 l 518 433 q 457 468 493 453 q 375 483 421 483 q 283 458 325 483 q 216 388 240 432 q 192 288 192 343 q 217 190 192 235 q 286 119 242 144 q 388 93 331 93 q 456 104 425 93 q 513 135 488 115 l 579 53 z "},"ć":{"ha":633,"x_min":63,"x_max":582,"o":"m 579 53 q 486 4 540 22 q 378 -14 432 -14 q 213 24 283 -14 q 102 128 142 61 q 63 288 63 196 q 105 447 63 379 q 216 552 147 515 q 364 589 285 589 q 488 569 433 589 q 582 517 543 550 l 518 433 q 457 468 493 453 q 375 483 421 483 q 283 458 325 483 q 216 388 240 432 q 192 288 192 343 q 217 190 192 235 q 286 119 242 144 q 388 93 331 93 q 456 104 425 93 q 513 135 488 115 l 579 53 m 510 858 l 333 672 l 251 672 l 367 858 l 510 858 z "},"č":{"ha":633,"x_min":63,"x_max":593,"o":"m 579 53 q 486 4 540 22 q 378 -14 432 -14 q 213 24 283 -14 q 102 128 142 61 q 63 288 63 196 q 105 447 63 379 q 216 552 147 515 q 364 589 285 589 q 488 569 433 589 q 582 517 543 550 l 518 433 q 457 468 493 453 q 375 483 421 483 q 283 458 325 483 q 216 388 240 432 q 192 288 192 343 q 217 190 192 235 q 286 119 242 144 q 388 93 331 93 q 456 104 425 93 q 513 135 488 115 l 579 53 m 249 893 l 381 756 l 342 747 l 474 893 l 593 893 l 364 654 l 363 654 l 129 893 l 249 893 z "},"ç":{"ha":633,"x_min":63,"x_max":582,"o":"m 579 53 q 486 4 540 22 q 378 -14 432 -14 q 213 24 283 -14 q 102 128 142 61 q 63 288 63 196 q 105 447 63 379 q 216 552 147 515 q 364 589 285 589 q 488 569 433 589 q 582 517 543 550 l 518 433 q 457 468 493 453 q 375 483 421 483 q 283 458 325 483 q 216 388 240 432 q 192 288 192 343 q 217 190 192 235 q 286 119 242 144 q 388 93 331 93 q 456 104 425 93 q 513 135 488 115 l 579 53 m 206 -211 q 244 -237 221 -226 q 299 -247 268 -247 q 364 -231 335 -247 q 393 -185 393 -215 q 374 -141 393 -161 q 303 -121 354 -121 q 256 -126 281 -121 q 213 -139 231 -132 l 189 -76 l 286 14 l 385 8 l 285 -108 l 254 -76 q 292 -66 269 -69 q 335 -61 314 -62 q 456 -90 408 -60 q 503 -182 503 -121 q 476 -259 503 -229 q 406 -303 449 -289 q 311 -318 363 -318 q 223 -302 260 -318 q 164 -265 186 -286 l 206 -211 z "},"ĉ":{"ha":633,"x_min":63,"x_max":583,"o":"m 579 53 q 486 4 540 22 q 378 -14 432 -14 q 213 24 283 -14 q 102 128 142 61 q 63 288 63 196 q 105 447 63 379 q 216 552 147 515 q 364 589 285 589 q 488 569 433 589 q 582 517 543 550 l 518 433 q 457 468 493 453 q 375 483 421 483 q 283 458 325 483 q 216 388 240 432 q 192 288 192 343 q 217 190 192 235 q 286 119 242 144 q 388 93 331 93 q 456 104 425 93 q 513 135 488 115 l 579 53 m 463 683 l 333 819 l 371 828 l 239 683 l 119 683 l 349 921 l 350 921 l 582 683 l 463 683 z "},"ċ":{"ha":633,"x_min":63,"x_max":582,"o":"m 579 53 q 486 4 540 22 q 378 -14 432 -14 q 213 24 283 -14 q 102 128 142 61 q 63 288 63 196 q 105 447 63 379 q 216 552 147 515 q 364 589 285 589 q 488 569 433 589 q 582 517 543 550 l 518 433 q 457 468 493 453 q 375 483 421 483 q 283 458 325 483 q 216 388 240 432 q 192 288 192 343 q 217 190 192 235 q 286 119 242 144 q 388 93 331 93 q 456 104 425 93 q 513 135 488 115 l 579 53 m 276 792 q 301 843 276 822 q 354 864 325 864 q 406 843 383 864 q 429 792 429 822 q 406 740 429 760 q 354 719 383 719 q 301 740 325 719 q 276 792 276 761 z "},"d":{"ha":824,"x_min":63,"x_max":711,"o":"m 346 -14 q 202 24 267 -14 q 100 133 138 63 q 63 294 63 203 q 102 458 63 390 q 210 563 142 526 q 363 599 278 599 q 492 569 431 599 q 589 489 554 540 l 583 443 l 583 1075 l 711 1075 l 711 0 l 582 0 l 582 143 l 596 107 q 492 20 556 54 q 346 -14 428 -14 m 386 96 q 478 115 438 96 q 544 167 518 133 q 582 246 571 200 l 582 354 q 542 427 571 396 q 474 477 514 458 q 386 496 435 496 q 290 470 333 496 q 219 400 246 444 q 193 297 193 356 q 219 195 193 240 q 290 123 246 150 q 386 96 335 96 z "},"ð":{"ha":757,"x_min":63,"x_max":694,"o":"m 367 -14 q 213 24 282 -14 q 103 131 143 63 q 63 293 63 200 q 101 449 63 379 q 204 558 139 518 q 349 599 269 599 q 451 575 406 599 q 531 513 497 551 q 583 430 564 475 q 608 340 603 385 l 563 351 q 531 542 558 454 q 456 707 503 631 q 344 851 408 783 q 203 979 281 918 l 297 1064 q 453 925 381 1007 q 579 746 525 843 q 664 545 633 649 q 694 342 694 442 q 672 210 694 274 q 608 95 650 146 q 505 15 565 44 q 367 -14 444 -14 m 378 93 q 474 119 432 93 q 540 191 517 146 q 564 292 564 236 q 540 392 564 347 q 474 465 517 438 q 378 492 432 492 q 283 464 325 492 q 216 391 240 436 q 192 292 192 346 q 217 191 192 236 q 283 119 242 146 q 378 93 325 93 m 590 938 l 263 732 l 218 818 l 546 1021 l 590 938 z "},"ď":{"ha":960,"x_min":63,"x_max":974,"o":"m 346 -14 q 202 24 267 -14 q 100 133 138 63 q 63 294 63 203 q 102 458 63 390 q 210 563 142 526 q 363 599 278 599 q 492 569 431 599 q 589 489 554 540 l 583 443 l 583 1075 l 711 1075 l 711 0 l 582 0 l 582 143 l 596 107 q 492 20 556 54 q 346 -14 428 -14 m 386 96 q 478 115 438 96 q 544 167 518 133 q 582 246 571 200 l 582 354 q 542 427 571 396 q 474 477 514 458 q 386 496 435 496 q 290 470 333 496 q 219 400 246 444 q 193 297 193 356 q 219 195 193 240 q 290 123 246 150 q 386 96 335 96 m 872 844 l 807 878 q 853 954 836 906 q 861 1051 871 1003 l 964 1061 q 961 980 972 1022 q 926 901 950 938 q 872 844 903 865 l 872 844 z "},"đ":{"ha":824,"x_min":63,"x_max":832,"o":"m 346 -14 q 202 24 267 -14 q 100 133 138 63 q 63 294 63 203 q 102 458 63 390 q 210 563 142 526 q 363 599 278 599 q 492 569 431 599 q 589 489 554 540 l 583 443 l 583 1075 l 711 1075 l 711 0 l 582 0 l 582 143 l 596 107 q 492 20 556 54 q 346 -14 428 -14 m 386 96 q 478 115 438 96 q 544 167 518 133 q 582 246 571 200 l 582 354 q 542 427 571 396 q 474 477 514 458 q 386 496 435 496 q 290 470 333 496 q 219 400 246 444 q 193 297 193 356 q 219 195 193 240 q 290 123 246 150 q 386 96 335 96 m 446 940 l 831 940 l 831 819 l 446 819 l 446 940 z "},"ǳ":{"ha":1467,"x_min":63,"x_max":1399,"o":"m 346 -14 q 202 24 267 -14 q 100 133 138 63 q 63 294 63 203 q 102 458 63 390 q 210 563 142 526 q 363 599 278 599 q 492 569 431 599 q 589 489 554 540 l 583 443 l 583 1075 l 711 1075 l 711 0 l 582 0 l 582 143 l 596 107 q 492 20 556 54 q 346 -14 428 -14 m 386 96 q 478 115 438 96 q 544 167 518 133 q 582 246 571 200 l 582 354 q 542 427 571 396 q 474 477 514 458 q 386 496 435 496 q 290 470 333 496 q 219 400 246 444 q 193 297 193 356 q 219 195 193 240 q 290 123 246 150 q 386 96 335 96 m 989 469 q 915 496 946 469 q 885 575 885 522 l 885 629 l 983 629 l 983 611 q 994 582 983 589 q 1031 575 1006 575 l 1399 575 l 1054 79 l 1029 107 l 1394 107 l 1394 0 l 863 0 l 1214 506 l 1236 469 l 989 469 z "},"ǆ":{"ha":1467,"x_min":63,"x_max":1399,"o":"m 346 -14 q 202 24 267 -14 q 100 133 138 63 q 63 294 63 203 q 102 458 63 390 q 210 563 142 526 q 363 599 278 599 q 492 569 431 599 q 589 489 554 540 l 583 443 l 583 1075 l 711 1075 l 711 0 l 582 0 l 582 143 l 596 107 q 492 20 556 54 q 346 -14 428 -14 m 386 96 q 478 115 438 96 q 544 167 518 133 q 582 246 571 200 l 582 354 q 542 427 571 396 q 474 477 514 458 q 386 496 435 496 q 290 470 333 496 q 219 400 246 444 q 193 297 193 356 q 219 195 193 240 q 290 123 246 150 q 386 96 335 96 m 989 469 q 915 496 946 469 q 885 575 885 522 l 885 629 l 983 629 l 983 611 q 994 582 983 589 q 1031 575 1006 575 l 1399 575 l 1054 79 l 1029 107 l 1394 107 l 1394 0 l 863 0 l 1214 506 l 1236 469 l 989 469 m 1046 885 l 1178 747 l 1139 739 l 1271 885 l 1390 885 l 1161 646 l 1160 646 l 926 885 l 1046 885 z "},"e":{"ha":722,"x_min":63,"x_max":672,"o":"m 379 -14 q 210 26 281 -14 q 101 134 139 65 q 63 292 63 203 q 106 446 63 376 q 221 557 149 515 q 382 599 293 599 q 571 532 496 599 q 672 349 646 465 l 199 182 l 168 258 l 557 400 l 529 382 q 474 462 513 428 q 372 496 435 496 q 278 470 319 496 q 213 400 236 444 q 189 299 189 356 q 214 194 189 239 q 283 123 239 149 q 382 97 326 97 q 455 111 419 97 q 521 147 490 125 l 581 51 q 484 4 538 22 q 379 -14 431 -14 z "},"é":{"ha":722,"x_min":63,"x_max":672,"o":"m 379 -14 q 210 26 281 -14 q 101 134 139 65 q 63 292 63 203 q 106 446 63 376 q 221 557 149 515 q 382 599 293 599 q 571 532 496 599 q 672 349 646 465 l 199 182 l 168 258 l 557 400 l 529 382 q 474 462 513 428 q 372 496 435 496 q 278 470 319 496 q 213 400 236 444 q 189 299 189 356 q 214 194 189 239 q 283 123 239 149 q 382 97 326 97 q 455 111 419 97 q 521 147 490 125 l 581 51 q 484 4 538 22 q 379 -14 431 -14 m 531 868 l 354 682 l 272 682 l 388 868 l 531 868 z "},"ĕ":{"ha":722,"x_min":63,"x_max":672,"o":"m 379 -14 q 210 26 281 -14 q 101 134 139 65 q 63 292 63 203 q 106 446 63 376 q 221 557 149 515 q 382 599 293 599 q 571 532 496 599 q 672 349 646 465 l 199 182 l 168 258 l 557 400 l 529 382 q 474 462 513 428 q 372 496 435 496 q 278 470 319 496 q 213 400 236 444 q 189 299 189 356 q 214 194 189 239 q 283 123 239 149 q 382 97 326 97 q 455 111 419 97 q 521 147 490 125 l 581 51 q 484 4 538 22 q 379 -14 431 -14 m 372 665 q 270 694 314 665 q 199 777 226 722 q 163 910 172 832 l 250 910 q 272 830 257 865 q 312 774 286 794 q 372 754 338 754 q 434 774 410 754 q 472 830 458 794 q 492 910 486 865 l 581 910 q 544 776 571 831 q 474 693 517 721 q 372 665 431 665 z "},"ě":{"ha":722,"x_min":63,"x_max":672,"o":"m 379 -14 q 210 26 281 -14 q 101 134 139 65 q 63 292 63 203 q 106 446 63 376 q 221 557 149 515 q 382 599 293 599 q 571 532 496 599 q 672 349 646 465 l 199 182 l 168 258 l 557 400 l 529 382 q 474 462 513 428 q 372 496 435 496 q 278 470 319 496 q 213 400 236 444 q 189 299 189 356 q 214 194 189 239 q 283 123 239 149 q 382 97 326 97 q 455 111 419 97 q 521 147 490 125 l 581 51 q 484 4 538 22 q 379 -14 431 -14 m 269 903 l 401 765 l 363 757 l 494 903 l 614 903 l 385 664 l 383 664 l 150 903 l 269 903 z "},"ê":{"ha":722,"x_min":63,"x_max":672,"o":"m 379 -14 q 210 26 281 -14 q 101 134 139 65 q 63 292 63 203 q 106 446 63 376 q 221 557 149 515 q 382 599 293 599 q 571 532 496 599 q 672 349 646 465 l 199 182 l 168 258 l 557 400 l 529 382 q 474 462 513 428 q 372 496 435 496 q 278 470 319 496 q 213 400 236 444 q 189 299 189 356 q 214 194 189 239 q 283 123 239 149 q 382 97 326 97 q 455 111 419 97 q 521 147 490 125 l 581 51 q 484 4 538 22 q 379 -14 431 -14 m 483 693 l 354 829 l 392 838 l 260 693 l 140 693 l 369 931 l 371 931 l 603 693 l 483 693 z "},"ế":{"ha":722,"x_min":63,"x_max":753,"o":"m 379 -14 q 210 26 281 -14 q 101 134 139 65 q 63 292 63 203 q 106 446 63 376 q 221 557 149 515 q 382 599 293 599 q 571 532 496 599 q 672 349 646 465 l 199 182 l 168 258 l 557 400 l 529 382 q 474 462 513 428 q 372 496 435 496 q 278 470 319 496 q 213 400 236 444 q 189 299 189 356 q 214 194 189 239 q 283 123 239 149 q 382 97 326 97 q 455 111 419 97 q 521 147 490 125 l 581 51 q 484 4 538 22 q 379 -14 431 -14 m 486 686 l 357 822 l 394 831 l 263 686 l 143 686 l 372 924 l 374 924 l 606 686 l 486 686 m 753 1007 l 576 821 l 494 821 l 610 1007 l 753 1007 z "},"ệ":{"ha":722,"x_min":63,"x_max":672,"o":"m 379 -14 q 210 26 281 -14 q 101 134 139 65 q 63 292 63 203 q 106 446 63 376 q 221 557 149 515 q 382 599 293 599 q 571 532 496 599 q 672 349 646 465 l 199 182 l 168 258 l 557 400 l 529 382 q 474 462 513 428 q 372 496 435 496 q 278 470 319 496 q 213 400 236 444 q 189 299 189 356 q 214 194 189 239 q 283 123 239 149 q 382 97 326 97 q 455 111 419 97 q 521 147 490 125 l 581 51 q 484 4 538 22 q 379 -14 431 -14 m 294 -144 q 315 -100 294 -118 q 363 -82 336 -82 q 407 -100 386 -82 q 428 -144 428 -118 q 407 -190 428 -172 q 363 -207 386 -207 q 315 -189 336 -207 q 294 -144 294 -171 m 483 693 l 354 829 l 392 838 l 260 693 l 140 693 l 369 931 l 371 931 l 603 693 l 483 693 z "},"ề":{"ha":722,"x_min":-51,"x_max":672,"o":"m 379 -14 q 210 26 281 -14 q 101 134 139 65 q 63 292 63 203 q 106 446 63 376 q 221 557 149 515 q 382 599 293 599 q 571 532 496 599 q 672 349 646 465 l 199 182 l 168 258 l 557 400 l 529 382 q 474 462 513 428 q 372 496 435 496 q 278 470 319 496 q 213 400 236 444 q 189 299 189 356 q 214 194 189 239 q 283 123 239 149 q 382 97 326 97 q 455 111 419 97 q 521 147 490 125 l 581 51 q 484 4 538 22 q 379 -14 431 -14 m 478 682 l 349 818 l 386 826 l 254 682 l 135 682 l 364 919 l 365 919 l 597 682 l 478 682 m -51 1015 l 92 1015 l 193 829 l 110 829 l -51 1015 z "},"ể":{"ha":722,"x_min":63,"x_max":722,"o":"m 379 -14 q 210 26 281 -14 q 101 134 139 65 q 63 292 63 203 q 106 446 63 376 q 221 557 149 515 q 382 599 293 599 q 571 532 496 599 q 672 349 646 465 l 199 182 l 168 258 l 557 400 l 529 382 q 474 462 513 428 q 372 496 435 496 q 278 470 319 496 q 213 400 236 444 q 189 299 189 356 q 214 194 189 239 q 283 123 239 149 q 382 97 326 97 q 455 111 419 97 q 521 147 490 125 l 581 51 q 484 4 538 22 q 379 -14 431 -14 m 481 686 l 351 822 l 389 831 l 257 686 l 138 686 l 367 924 l 368 924 l 600 686 l 481 686 m 585 831 q 628 870 611 851 q 646 915 646 889 q 635 950 646 936 q 601 964 624 964 q 564 952 579 964 q 536 921 549 940 l 488 953 q 545 1018 511 997 q 618 1039 579 1039 q 676 1024 653 1039 q 710 985 699 1010 q 722 931 722 960 q 691 849 722 882 q 617 790 660 817 l 585 831 z "},"ễ":{"ha":722,"x_min":63,"x_max":672,"o":"m 379 -14 q 210 26 281 -14 q 101 134 139 65 q 63 292 63 203 q 106 446 63 376 q 221 557 149 515 q 382 599 293 599 q 571 532 496 599 q 672 349 646 465 l 199 182 l 168 258 l 557 400 l 529 382 q 474 462 513 428 q 372 496 435 496 q 278 470 319 496 q 213 400 236 444 q 189 299 189 356 q 214 194 189 239 q 283 123 239 149 q 382 97 326 97 q 455 111 419 97 q 521 147 490 125 l 581 51 q 484 4 538 22 q 379 -14 431 -14 m 476 676 l 347 813 l 385 821 l 253 676 l 133 676 l 363 914 l 364 914 l 596 676 l 476 676 m 472 949 q 399 969 428 949 q 346 1011 371 989 q 313 1040 329 1026 q 275 1053 296 1053 q 245 1040 258 1053 q 225 1003 232 1026 q 218 947 218 979 l 149 947 q 160 1045 144 1001 q 208 1114 176 1089 q 282 1139 239 1139 q 344 1119 318 1139 q 393 1078 371 1099 q 431 1045 413 1060 q 469 1031 449 1031 q 509 1060 497 1031 q 521 1139 521 1089 l 590 1139 q 581 1038 596 1081 q 538 972 567 994 q 472 949 508 949 z "},"ȅ":{"ha":722,"x_min":63,"x_max":672,"o":"m 379 -14 q 210 26 281 -14 q 101 134 139 65 q 63 292 63 203 q 106 446 63 376 q 221 557 149 515 q 382 599 293 599 q 571 532 496 599 q 672 349 646 465 l 199 182 l 168 258 l 557 400 l 529 382 q 474 462 513 428 q 372 496 435 496 q 278 470 319 496 q 213 400 236 444 q 189 299 189 356 q 214 194 189 239 q 283 123 239 149 q 382 97 326 97 q 455 111 419 97 q 521 147 490 125 l 581 51 q 484 4 538 22 q 379 -14 431 -14 m 83 878 l 226 878 l 328 692 l 244 692 l 83 878 m 281 878 l 424 878 l 525 692 l 442 692 l 281 878 z "},"ë":{"ha":722,"x_min":63,"x_max":672,"o":"m 379 -14 q 210 26 281 -14 q 101 134 139 65 q 63 292 63 203 q 106 446 63 376 q 221 557 149 515 q 382 599 293 599 q 571 532 496 599 q 672 349 646 465 l 199 182 l 168 258 l 557 400 l 529 382 q 474 462 513 428 q 372 496 435 496 q 278 470 319 496 q 213 400 236 444 q 189 299 189 356 q 214 194 189 239 q 283 123 239 149 q 382 97 326 97 q 455 111 419 97 q 521 147 490 125 l 581 51 q 484 4 538 22 q 379 -14 431 -14 m 168 750 q 190 802 168 781 q 240 824 213 824 q 290 802 267 824 q 313 749 313 781 q 290 697 313 717 q 240 676 267 676 q 190 697 213 676 q 168 750 168 718 l 168 750 m 428 750 q 451 802 428 781 q 501 824 474 824 q 549 802 526 824 q 572 749 572 781 q 549 697 572 717 q 501 676 526 676 q 451 697 474 676 q 428 750 428 718 l 428 750 z "},"ė":{"ha":722,"x_min":63,"x_max":672,"o":"m 379 -14 q 210 26 281 -14 q 101 134 139 65 q 63 292 63 203 q 106 446 63 376 q 221 557 149 515 q 382 599 293 599 q 571 532 496 599 q 672 349 646 465 l 199 182 l 168 258 l 557 400 l 529 382 q 474 462 513 428 q 372 496 435 496 q 278 470 319 496 q 213 400 236 444 q 189 299 189 356 q 214 194 189 239 q 283 123 239 149 q 382 97 326 97 q 455 111 419 97 q 521 147 490 125 l 581 51 q 484 4 538 22 q 379 -14 431 -14 m 297 801 q 322 853 297 832 q 375 874 346 874 q 427 853 404 874 q 450 801 450 832 q 427 749 450 769 q 375 729 404 729 q 322 750 346 729 q 297 801 297 771 z "},"ẹ":{"ha":722,"x_min":63,"x_max":672,"o":"m 379 -14 q 210 26 281 -14 q 101 134 139 65 q 63 292 63 203 q 106 446 63 376 q 221 557 149 515 q 382 599 293 599 q 571 532 496 599 q 672 349 646 465 l 199 182 l 168 258 l 557 400 l 529 382 q 474 462 513 428 q 372 496 435 496 q 278 470 319 496 q 213 400 236 444 q 189 299 189 356 q 214 194 189 239 q 283 123 239 149 q 382 97 326 97 q 455 111 419 97 q 521 147 490 125 l 581 51 q 484 4 538 22 q 379 -14 431 -14 m 294 -144 q 315 -100 294 -118 q 363 -82 336 -82 q 407 -100 386 -82 q 428 -144 428 -118 q 407 -190 428 -172 q 363 -207 386 -207 q 315 -189 336 -207 q 294 -144 294 -171 z "},"è":{"ha":722,"x_min":63,"x_max":672,"o":"m 379 -14 q 210 26 281 -14 q 101 134 139 65 q 63 292 63 203 q 106 446 63 376 q 221 557 149 515 q 382 599 293 599 q 571 532 496 599 q 672 349 646 465 l 199 182 l 168 258 l 557 400 l 529 382 q 474 462 513 428 q 372 496 435 496 q 278 470 319 496 q 213 400 236 444 q 189 299 189 356 q 214 194 189 239 q 283 123 239 149 q 382 97 326 97 q 455 111 419 97 q 521 147 490 125 l 581 51 q 484 4 538 22 q 379 -14 431 -14 m 171 878 l 314 878 l 415 692 l 332 692 l 171 878 z "},"ẻ":{"ha":722,"x_min":63,"x_max":672,"o":"m 379 -14 q 210 26 281 -14 q 101 134 139 65 q 63 292 63 203 q 106 446 63 376 q 221 557 149 515 q 382 599 293 599 q 571 532 496 599 q 672 349 646 465 l 199 182 l 168 258 l 557 400 l 529 382 q 474 462 513 428 q 372 496 435 496 q 278 470 319 496 q 213 400 236 444 q 189 299 189 356 q 214 194 189 239 q 283 123 239 149 q 382 97 326 97 q 455 111 419 97 q 521 147 490 125 l 581 51 q 484 4 538 22 q 379 -14 431 -14 m 344 700 q 388 740 371 721 q 406 785 406 758 q 394 819 406 806 q 361 833 383 833 q 324 822 339 833 q 296 790 308 810 l 247 822 q 305 888 271 867 q 378 908 339 908 q 435 894 413 908 q 470 854 458 879 q 482 800 482 829 q 451 719 482 751 q 376 660 419 686 l 344 700 z "},"ȇ":{"ha":722,"x_min":63,"x_max":672,"o":"m 379 -14 q 210 26 281 -14 q 101 134 139 65 q 63 292 63 203 q 106 446 63 376 q 221 557 149 515 q 382 599 293 599 q 571 532 496 599 q 672 349 646 465 l 199 182 l 168 258 l 557 400 l 529 382 q 474 462 513 428 q 372 496 435 496 q 278 470 319 496 q 213 400 236 444 q 189 299 189 356 q 214 194 189 239 q 283 123 239 149 q 382 97 326 97 q 455 111 419 97 q 521 147 490 125 l 581 51 q 484 4 538 22 q 379 -14 431 -14 m 378 900 q 480 872 436 900 q 551 788 524 843 q 588 656 578 733 l 500 656 q 479 736 494 701 q 439 791 464 771 q 378 811 414 811 q 317 791 342 811 q 278 736 292 771 q 258 656 264 701 l 169 656 q 206 790 179 735 q 276 872 233 844 q 378 900 319 900 z "},"ē":{"ha":722,"x_min":63,"x_max":672,"o":"m 379 -14 q 210 26 281 -14 q 101 134 139 65 q 63 292 63 203 q 106 446 63 376 q 221 557 149 515 q 382 599 293 599 q 571 532 496 599 q 672 349 646 465 l 199 182 l 168 258 l 557 400 l 529 382 q 474 462 513 428 q 372 496 435 496 q 278 470 319 496 q 213 400 236 444 q 189 299 189 356 q 214 194 189 239 q 283 123 239 149 q 382 97 326 97 q 455 111 419 97 q 521 147 490 125 l 581 51 q 484 4 538 22 q 379 -14 431 -14 m 203 772 l 544 772 l 544 681 l 203 681 l 203 772 z "},"ę":{"ha":725,"x_min":65,"x_max":676,"o":"m 457 -299 q 331 -256 379 -299 q 283 -142 283 -212 q 310 -56 283 -99 q 386 13 336 -14 l 518 32 q 480 8 506 18 q 428 -8 454 -1 q 382 -14 401 -14 q 214 26 285 -14 q 104 134 143 65 q 65 292 65 203 q 108 446 65 376 q 224 557 151 515 q 385 599 296 599 q 574 532 499 599 q 676 349 649 465 l 203 182 l 174 256 l 561 397 l 533 382 q 476 463 514 429 q 375 496 438 496 q 281 470 322 496 q 217 400 240 444 q 193 299 193 356 q 218 193 193 239 q 287 122 243 147 q 385 97 331 97 q 459 111 424 97 q 525 147 494 125 l 585 51 q 517 15 551 31 q 455 -19 483 -1 q 409 -62 426 -37 q 392 -124 392 -86 q 416 -183 392 -161 q 468 -206 440 -206 q 516 -192 494 -206 q 557 -149 538 -178 l 604 -217 q 539 -276 581 -253 q 457 -299 497 -299 z "},"ẽ":{"ha":722,"x_min":63,"x_max":672,"o":"m 379 -14 q 210 26 281 -14 q 101 134 139 65 q 63 292 63 203 q 106 446 63 376 q 221 557 149 515 q 382 599 293 599 q 571 532 496 599 q 672 349 646 465 l 199 182 l 168 258 l 557 400 l 529 382 q 474 462 513 428 q 372 496 435 496 q 278 470 319 496 q 213 400 236 444 q 189 299 189 356 q 214 194 189 239 q 283 123 239 149 q 382 97 326 97 q 455 111 419 97 q 521 147 490 125 l 581 51 q 484 4 538 22 q 379 -14 431 -14 m 479 656 q 406 676 435 656 q 353 718 378 696 q 319 747 336 733 q 282 760 303 760 q 252 747 265 760 q 232 710 239 733 q 225 654 225 686 l 156 654 q 167 752 151 708 q 215 821 183 796 q 289 846 246 846 q 351 826 325 846 q 400 785 378 806 q 438 752 419 767 q 476 738 456 738 q 516 767 504 738 q 528 846 528 796 l 597 846 q 588 744 603 788 q 544 678 574 701 q 479 656 515 656 z "},"ə":{"ha":722,"x_min":50,"x_max":660,"o":"m 343 589 q 512 549 440 589 q 622 440 583 510 q 660 283 660 371 q 617 129 660 199 q 501 18 574 60 q 340 -24 429 -24 q 151 42 226 -24 q 50 226 76 108 l 524 393 l 554 317 l 165 174 l 193 193 q 248 113 210 147 q 350 79 286 79 q 444 105 403 79 q 510 175 486 131 q 533 276 533 219 q 508 381 533 336 q 440 452 483 426 q 340 478 396 478 q 266 465 301 478 q 200 428 231 451 l 140 524 q 238 571 185 553 q 343 589 292 589 z "},"f":{"ha":526,"x_min":61,"x_max":508,"o":"m 160 0 l 160 460 l 61 460 l 61 575 l 160 575 l 160 818 q 216 1010 160 943 q 382 1076 272 1076 q 447 1068 411 1076 q 508 1040 482 1060 l 454 947 q 426 965 442 960 q 396 969 411 969 q 317 935 344 969 q 289 817 289 900 l 289 575 l 471 575 l 471 460 l 289 460 l 289 0 l 160 0 z "},"g":{"ha":831,"x_min":63,"x_max":719,"o":"m 389 -285 q 276 -270 325 -285 q 188 -229 228 -256 q 113 -169 149 -203 l 188 -82 q 281 -149 233 -125 q 386 -172 328 -172 q 497 -151 451 -172 q 565 -91 542 -129 q 589 -3 589 -53 l 590 153 l 601 128 q 511 27 576 68 q 353 -14 446 -14 q 208 26 274 -14 q 102 135 142 67 q 63 290 63 204 q 104 449 63 381 q 214 558 146 518 q 363 599 282 599 q 502 567 439 599 q 594 488 565 536 l 588 464 l 601 575 l 719 575 l 719 -4 q 679 -146 719 -82 q 565 -247 639 -210 q 389 -285 492 -285 m 192 293 q 218 192 192 238 q 290 119 244 146 q 390 93 335 93 q 483 112 442 93 q 551 163 524 131 q 590 239 579 196 l 590 353 q 549 426 578 394 q 479 474 519 457 q 390 492 439 492 q 290 467 335 492 q 218 397 244 442 q 192 293 192 351 z "},"ğ":{"ha":831,"x_min":63,"x_max":719,"o":"m 389 -285 q 276 -270 325 -285 q 188 -229 228 -256 q 113 -169 149 -203 l 188 -82 q 281 -149 233 -125 q 386 -172 328 -172 q 497 -151 451 -172 q 565 -91 542 -129 q 589 -3 589 -53 l 590 153 l 601 128 q 511 27 576 68 q 353 -14 446 -14 q 208 26 274 -14 q 102 135 142 67 q 63 290 63 204 q 104 449 63 381 q 214 558 146 518 q 363 599 282 599 q 502 567 439 599 q 594 488 565 536 l 588 464 l 601 575 l 719 575 l 719 -4 q 679 -146 719 -82 q 565 -247 639 -210 q 389 -285 492 -285 m 192 293 q 218 192 192 238 q 290 119 244 146 q 390 93 335 93 q 483 112 442 93 q 551 163 524 131 q 590 239 579 196 l 590 353 q 549 426 578 394 q 479 474 519 457 q 390 492 439 492 q 290 467 335 492 q 218 397 244 442 q 192 293 192 351 m 415 665 q 313 694 357 665 q 242 777 269 722 q 206 910 215 832 l 293 910 q 315 830 300 865 q 355 774 329 794 q 415 754 381 754 q 477 774 453 754 q 515 830 501 794 q 535 910 529 865 l 624 910 q 587 776 614 831 q 517 693 560 721 q 415 665 474 665 z "},"ǧ":{"ha":831,"x_min":63,"x_max":719,"o":"m 389 -285 q 276 -270 325 -285 q 188 -229 228 -256 q 113 -169 149 -203 l 188 -82 q 281 -149 233 -125 q 386 -172 328 -172 q 497 -151 451 -172 q 565 -91 542 -129 q 589 -3 589 -53 l 590 153 l 601 128 q 511 27 576 68 q 353 -14 446 -14 q 208 26 274 -14 q 102 135 142 67 q 63 290 63 204 q 104 449 63 381 q 214 558 146 518 q 363 599 282 599 q 502 567 439 599 q 594 488 565 536 l 588 464 l 601 575 l 719 575 l 719 -4 q 679 -146 719 -82 q 565 -247 639 -210 q 389 -285 492 -285 m 192 293 q 218 192 192 238 q 290 119 244 146 q 390 93 335 93 q 483 112 442 93 q 551 163 524 131 q 590 239 579 196 l 590 353 q 549 426 578 394 q 479 474 519 457 q 390 492 439 492 q 290 467 335 492 q 218 397 244 442 q 192 293 192 351 m 311 903 l 443 765 l 404 757 l 536 903 l 656 903 l 426 664 l 425 664 l 192 903 l 311 903 z "},"ĝ":{"ha":831,"x_min":63,"x_max":719,"o":"m 389 -285 q 276 -270 325 -285 q 188 -229 228 -256 q 113 -169 149 -203 l 188 -82 q 281 -149 233 -125 q 386 -172 328 -172 q 497 -151 451 -172 q 565 -91 542 -129 q 589 -3 589 -53 l 590 153 l 601 128 q 511 27 576 68 q 353 -14 446 -14 q 208 26 274 -14 q 102 135 142 67 q 63 290 63 204 q 104 449 63 381 q 214 558 146 518 q 363 599 282 599 q 502 567 439 599 q 594 488 565 536 l 588 464 l 601 575 l 719 575 l 719 -4 q 679 -146 719 -82 q 565 -247 639 -210 q 389 -285 492 -285 m 192 293 q 218 192 192 238 q 290 119 244 146 q 390 93 335 93 q 483 112 442 93 q 551 163 524 131 q 590 239 579 196 l 590 353 q 549 426 578 394 q 479 474 519 457 q 390 492 439 492 q 290 467 335 492 q 218 397 244 442 q 192 293 192 351 m 526 693 l 397 829 l 435 838 l 303 693 l 183 693 l 413 931 l 414 931 l 646 693 l 526 693 z "},"ģ":{"ha":788,"x_min":63,"x_max":719,"o":"m 321 704 q 381 850 351 778 q 442 994 411 922 l 546 994 q 492 850 519 922 q 438 704 465 778 l 321 704 m 389 -285 q 276 -270 325 -285 q 188 -229 228 -256 q 113 -169 149 -203 l 188 -82 q 281 -149 233 -125 q 386 -172 328 -172 q 497 -151 451 -172 q 565 -91 542 -129 q 589 -3 589 -53 l 590 153 l 601 128 q 511 27 576 68 q 353 -14 446 -14 q 208 26 274 -14 q 102 135 142 67 q 63 290 63 204 q 104 449 63 381 q 214 558 146 518 q 363 599 282 599 q 502 567 439 599 q 594 488 565 536 l 588 464 l 601 575 l 719 575 l 719 -4 q 679 -146 719 -82 q 565 -247 639 -210 q 389 -285 492 -285 m 192 293 q 218 192 192 238 q 290 119 244 146 q 390 93 335 93 q 483 112 442 93 q 551 163 524 131 q 590 239 579 196 l 590 353 q 549 426 578 394 q 479 474 519 457 q 390 492 439 492 q 290 467 335 492 q 218 397 244 442 q 192 293 192 351 z "},"ġ":{"ha":831,"x_min":63,"x_max":719,"o":"m 389 -285 q 276 -270 325 -285 q 188 -229 228 -256 q 113 -169 149 -203 l 188 -82 q 281 -149 233 -125 q 386 -172 328 -172 q 497 -151 451 -172 q 565 -91 542 -129 q 589 -3 589 -53 l 590 153 l 601 128 q 511 27 576 68 q 353 -14 446 -14 q 208 26 274 -14 q 102 135 142 67 q 63 290 63 204 q 104 449 63 381 q 214 558 146 518 q 363 599 282 599 q 502 567 439 599 q 594 488 565 536 l 588 464 l 601 575 l 719 575 l 719 -4 q 679 -146 719 -82 q 565 -247 639 -210 q 389 -285 492 -285 m 192 293 q 218 192 192 238 q 290 119 244 146 q 390 93 335 93 q 483 112 442 93 q 551 163 524 131 q 590 239 579 196 l 590 353 q 549 426 578 394 q 479 474 519 457 q 390 492 439 492 q 290 467 335 492 q 218 397 244 442 q 192 293 192 351 m 339 801 q 363 853 339 832 q 417 874 388 874 q 469 853 446 874 q 492 801 492 832 q 469 749 492 769 q 417 729 446 729 q 363 750 388 729 q 339 801 339 771 z "},"h":{"ha":768,"x_min":113,"x_max":656,"o":"m 113 0 l 113 1075 l 239 1075 l 239 442 l 236 465 q 326 560 265 522 q 468 597 386 597 q 602 549 550 597 q 656 425 654 501 l 656 0 l 525 0 l 525 379 q 498 456 524 426 q 418 486 472 486 q 328 458 368 486 q 265 381 288 429 q 242 269 242 332 l 242 0 l 113 0 z "},"ħ":{"ha":768,"x_min":-8,"x_max":656,"o":"m 113 0 l 113 1075 l 239 1075 l 239 442 l 236 465 q 326 560 265 522 q 468 597 386 597 q 602 549 550 597 q 656 425 654 501 l 656 0 l 525 0 l 525 379 q 498 456 524 426 q 418 486 472 486 q 328 458 368 486 q 265 381 288 429 q 242 269 242 332 l 242 0 l 113 0 m -8 892 l 376 892 l 376 771 l -8 771 l -8 892 z "},"ĥ":{"ha":768,"x_min":-65,"x_max":656,"o":"m 113 0 l 113 1075 l 239 1075 l 239 442 l 236 465 q 326 560 265 522 q 468 597 386 597 q 602 549 550 597 q 656 425 654 501 l 656 0 l 525 0 l 525 379 q 498 456 524 426 q 418 486 472 486 q 328 458 368 486 q 265 381 288 429 q 242 269 242 332 l 242 0 l 113 0 m 276 1138 l 147 1274 l 185 1282 l 53 1138 l -67 1138 l 163 1375 l 164 1375 l 396 1138 l 276 1138 z "},"i":{"ha":353,"x_min":103,"x_max":256,"o":"m 113 575 l 242 575 l 242 0 l 113 0 l 113 575 m 103 783 q 127 835 103 814 q 181 856 151 856 q 233 835 210 856 q 256 783 256 814 q 233 731 256 751 q 181 711 210 711 q 127 732 151 711 q 103 783 103 753 z "},"ı":{"ha":353,"x_min":113,"x_max":242,"o":"m 113 575 l 242 575 l 242 0 l 113 0 l 113 575 z "},"í":{"ha":353,"x_min":78,"x_max":336,"o":"m 113 575 l 242 575 l 242 0 l 113 0 l 113 575 m 336 849 l 160 663 l 78 663 l 193 849 l 336 849 z "},"ĭ":{"ha":353,"x_min":-32,"x_max":388,"o":"m 113 575 l 242 575 l 242 0 l 113 0 l 113 575 m 178 647 q 76 676 119 647 q 5 759 32 704 q -32 892 -22 814 l 56 892 q 77 812 63 847 q 117 756 92 776 q 178 736 143 736 q 240 756 215 736 q 278 812 264 776 q 297 892 292 847 l 386 892 q 349 758 376 813 q 279 675 322 703 q 178 647 236 647 z "},"î":{"ha":353,"x_min":-53,"x_max":410,"o":"m 113 575 l 242 575 l 242 0 l 113 0 l 113 575 m 289 675 l 160 811 l 197 819 l 65 675 l -54 675 l 175 913 l 176 913 l 408 675 l 289 675 z "},"ȉ":{"ha":353,"x_min":-111,"x_max":329,"o":"m 113 575 l 242 575 l 242 0 l 113 0 l 113 575 m -111 860 l 32 860 l 133 674 l 50 674 l -111 860 m 86 860 l 229 860 l 331 674 l 247 674 l 86 860 z "},"ï":{"ha":353,"x_min":-25,"x_max":379,"o":"m 113 575 l 242 575 l 242 0 l 113 0 l 113 575 m -26 732 q -4 784 -26 763 q 46 806 18 806 q 95 784 72 806 q 118 731 118 763 q 95 678 118 699 q 46 658 72 658 q -4 679 18 658 q -26 732 -26 700 l -26 732 m 233 732 q 256 784 233 763 q 307 806 279 806 q 355 784 332 806 q 378 731 378 763 q 355 678 378 699 q 307 658 332 658 q 256 679 279 658 q 233 732 233 700 l 233 732 z "},"ị":{"ha":353,"x_min":103,"x_max":256,"o":"m 113 575 l 242 575 l 242 0 l 113 0 l 113 575 m 103 783 q 127 835 103 814 q 181 856 151 856 q 233 835 210 856 q 256 783 256 814 q 233 731 256 751 q 181 711 210 711 q 127 732 151 711 q 103 783 103 753 m 107 -144 q 128 -100 107 -118 q 175 -82 149 -82 q 219 -100 199 -82 q 240 -144 240 -118 q 219 -190 240 -172 q 175 -207 199 -207 q 128 -189 149 -207 q 107 -144 107 -171 z "},"ì":{"ha":353,"x_min":-24,"x_max":242,"o":"m 113 575 l 242 575 l 242 0 l 113 0 l 113 575 m -24 860 l 119 860 l 221 674 l 138 674 l -24 860 z "},"ỉ":{"ha":353,"x_min":53,"x_max":288,"o":"m 113 575 l 242 575 l 242 0 l 113 0 l 113 575 m 150 681 q 194 720 176 701 q 211 765 211 739 q 200 800 211 786 q 167 814 189 814 q 129 802 144 814 q 101 771 114 790 l 53 803 q 110 868 76 847 q 183 889 144 889 q 241 874 218 889 q 276 835 264 860 q 288 781 288 810 q 256 699 288 732 q 182 640 225 667 l 150 681 z "},"ȋ":{"ha":353,"x_min":-25,"x_max":393,"o":"m 113 575 l 242 575 l 242 0 l 113 0 l 113 575 m 183 882 q 285 853 242 882 q 356 770 329 825 q 393 638 383 715 l 306 638 q 285 718 300 683 q 244 773 269 753 q 183 793 219 793 q 122 773 147 793 q 83 718 97 753 q 64 638 69 683 l -25 638 q 12 772 -15 717 q 82 854 39 826 q 183 882 125 882 z "},"ĳ":{"ha":700,"x_min":103,"x_max":601,"o":"m 113 575 l 242 575 l 242 0 l 113 0 l 113 575 m 103 783 q 127 835 103 814 q 181 856 151 856 q 233 835 210 856 q 256 783 256 814 q 233 731 256 751 q 181 711 210 711 q 127 732 151 711 q 103 783 103 753 m 451 -276 l 375 -197 q 436 -115 414 -164 q 458 1 458 -65 l 458 575 l 589 575 l 589 -4 q 556 -169 589 -101 q 451 -276 524 -236 m 449 783 q 473 835 449 814 q 526 856 497 856 q 578 835 556 856 q 601 783 601 814 q 578 731 601 751 q 526 711 556 711 q 473 732 497 711 q 449 783 449 753 z "},"ī":{"ha":353,"x_min":8,"x_max":349,"o":"m 113 575 l 242 575 l 242 0 l 113 0 l 113 575 m 8 754 l 350 754 l 350 663 l 8 663 l 8 754 z "},"į":{"ha":358,"x_min":-3,"x_max":317,"o":"m 160 -299 q 45 -257 93 -299 q -3 -147 -3 -215 q 32 -54 -3 -99 q 122 15 67 -10 l 218 11 l 243 0 q 142 -62 179 -31 q 106 -137 106 -94 q 126 -190 106 -174 q 172 -206 147 -206 q 224 -188 200 -206 q 267 -140 247 -171 l 317 -206 q 248 -272 292 -246 q 160 -299 204 -299 m 113 575 l 242 575 l 242 0 l 113 0 l 113 575 m 101 764 q 126 815 101 794 q 178 836 150 836 q 231 815 207 836 q 254 764 254 794 q 231 712 254 732 q 178 692 207 692 q 126 712 150 692 q 101 764 101 732 z "},"ĩ":{"ha":353,"x_min":-43,"x_max":408,"o":"m 113 575 l 242 575 l 242 0 l 113 0 l 113 575 m 285 638 q 212 658 240 638 q 158 700 183 678 q 125 728 142 715 q 88 742 108 742 q 58 728 71 742 q 38 692 44 715 q 31 636 31 668 l -39 636 q -27 734 -43 690 q 20 803 -11 778 q 94 828 51 828 q 157 808 131 828 q 206 767 183 788 q 243 734 225 749 q 282 719 261 719 q 322 749 310 719 q 333 828 333 778 l 403 828 q 394 726 408 769 q 350 660 379 683 q 285 638 321 638 z "},"j":{"ha":360,"x_min":43,"x_max":269,"o":"m 119 -276 l 43 -197 q 104 -115 82 -164 q 126 1 126 -65 l 126 575 l 257 575 l 257 -4 q 224 -169 257 -101 q 119 -276 192 -236 m 115 783 q 140 835 115 814 q 193 856 164 856 q 245 835 222 856 q 268 783 268 814 q 245 731 268 751 q 193 711 222 711 q 140 732 164 711 q 115 783 115 753 z "},"ȷ":{"ha":360,"x_min":43,"x_max":257,"o":"m 119 -276 l 43 -197 q 104 -115 82 -164 q 126 1 126 -65 l 126 575 l 257 575 l 257 -4 q 224 -169 257 -101 q 119 -276 192 -236 z "},"ĵ":{"ha":360,"x_min":-40,"x_max":422,"o":"m 119 -276 l 43 -197 q 104 -115 82 -164 q 126 1 126 -65 l 126 575 l 257 575 l 257 -4 q 224 -169 257 -101 q 119 -276 192 -236 m 303 675 l 174 811 l 211 819 l 79 675 l -40 675 l 189 913 l 190 913 l 422 675 l 303 675 z "},"k":{"ha":692,"x_min":113,"x_max":644,"o":"m 113 0 l 113 1075 l 242 1075 l 242 0 l 113 0 m 381 382 l 644 0 l 493 0 l 294 310 l 381 382 m 201 183 l 189 307 l 538 588 l 617 519 l 201 183 z "},"ķ":{"ha":692,"x_min":113,"x_max":644,"o":"m 113 0 l 113 1075 l 242 1075 l 242 0 l 113 0 m 381 382 l 644 0 l 493 0 l 294 310 l 381 382 m 201 183 l 189 307 l 538 588 l 617 519 l 201 183 m 300 -281 l 233 -235 q 282 -154 268 -207 q 288 -50 296 -101 l 403 -50 q 399 -132 408 -87 q 365 -216 389 -176 q 300 -281 340 -256 z "},"ĸ":{"ha":704,"x_min":113,"x_max":642,"o":"m 231 175 l 211 289 l 483 575 l 640 575 l 231 175 m 242 0 l 113 0 l 113 575 l 242 575 l 242 0 m 369 329 l 642 0 l 490 0 l 271 272 l 369 329 z "},"l":{"ha":353,"x_min":113,"x_max":242,"o":"m 113 1075 l 242 1075 l 242 0 l 113 0 l 113 1075 z "},"ĺ":{"ha":353,"x_min":113,"x_max":394,"o":"m 113 1075 l 242 1075 l 242 0 l 113 0 l 113 1075 m 394 1321 l 218 1135 l 136 1135 l 251 1321 l 394 1321 z "},"ľ":{"ha":526,"x_min":113,"x_max":517,"o":"m 113 1075 l 242 1075 l 242 0 l 113 0 l 113 1075 m 415 836 l 350 869 q 397 946 379 897 q 404 1043 414 994 l 507 1053 q 504 972 515 1014 q 469 893 493 929 q 415 836 446 857 l 415 836 z "},"ļ":{"ha":353,"x_min":65,"x_max":242,"o":"m 113 1075 l 242 1075 l 242 0 l 113 0 l 113 1075 m 132 -281 l 65 -235 q 114 -154 100 -207 q 119 -50 128 -101 l 235 -50 q 231 -132 240 -87 q 197 -216 221 -176 q 132 -281 172 -256 z "},"ŀ":{"ha":481,"x_min":113,"x_max":490,"o":"m 113 1075 l 242 1075 l 242 0 l 113 0 l 113 1075 m 346 440 q 369 492 346 471 q 419 514 392 514 q 467 492 444 514 q 490 440 490 471 q 467 387 490 407 q 419 367 444 367 q 369 387 392 367 q 346 440 346 407 l 346 440 z "},"ǉ":{"ha":714,"x_min":113,"x_max":622,"o":"m 113 1075 l 242 1075 l 242 0 l 113 0 l 113 1075 m 472 -276 l 396 -197 q 457 -115 435 -164 q 479 1 479 -65 l 479 575 l 610 575 l 610 -4 q 577 -169 610 -101 q 472 -276 544 -236 m 469 783 q 494 835 469 814 q 547 856 518 856 q 599 835 576 856 q 622 783 622 814 q 599 731 622 751 q 547 711 576 711 q 494 732 518 711 q 469 783 469 753 z "},"ł":{"ha":371,"x_min":28,"x_max":354,"o":"m 354 540 l 354 428 l 28 340 l 28 453 l 354 540 m 121 1075 l 250 1075 l 250 0 l 121 0 l 121 1075 z "},"m":{"ha":1146,"x_min":113,"x_max":1033,"o":"m 228 575 l 239 446 l 233 457 q 324 560 265 522 q 460 597 383 597 q 546 582 508 597 q 608 538 583 567 q 639 468 632 510 l 632 464 q 724 562 665 526 q 849 597 783 597 q 983 549 933 597 q 1033 425 1032 501 l 1033 0 l 904 0 l 904 379 q 883 453 903 424 q 813 486 863 483 q 723 456 763 486 q 661 377 683 425 q 638 274 639 329 l 638 0 l 508 0 l 508 379 q 485 453 507 424 q 414 486 464 483 q 324 456 363 486 q 263 376 285 425 q 242 272 242 328 l 242 0 l 113 0 l 113 575 l 228 575 z "},"n":{"ha":768,"x_min":113,"x_max":656,"o":"m 228 575 l 239 435 l 233 457 q 324 559 261 521 q 468 597 386 597 q 602 549 550 597 q 656 425 654 501 l 656 0 l 525 0 l 525 379 q 498 456 524 426 q 418 486 472 486 q 328 458 368 486 q 265 382 288 431 q 242 269 242 333 l 242 0 l 113 0 l 113 575 l 228 575 z "},"ń":{"ha":768,"x_min":113,"x_max":656,"o":"m 228 575 l 239 435 l 233 457 q 324 559 261 521 q 468 597 386 597 q 602 549 550 597 q 656 425 654 501 l 656 0 l 525 0 l 525 379 q 498 456 524 426 q 418 486 472 486 q 328 458 368 486 q 265 382 288 431 q 242 269 242 333 l 242 0 l 113 0 l 113 575 l 228 575 m 542 858 l 365 672 l 283 672 l 399 858 l 542 858 z "},"ŉ":{"ha":786,"x_min":-71,"x_max":674,"o":"m -4 568 l -71 614 q -22 694 -36 642 q -17 799 -8 747 l 99 799 q 94 717 104 761 q 60 633 85 672 q -4 568 36 593 m 246 575 l 257 435 l 251 457 q 342 559 279 521 q 486 597 404 597 q 620 549 568 597 q 674 425 672 501 l 674 0 l 543 0 l 543 379 q 516 456 542 426 q 436 486 490 486 q 346 458 386 486 q 283 382 306 431 q 260 269 260 333 l 260 0 l 131 0 l 131 575 l 246 575 z "},"ň":{"ha":768,"x_min":113,"x_max":656,"o":"m 228 575 l 239 435 l 233 457 q 324 559 261 521 q 468 597 386 597 q 602 549 550 597 q 656 425 654 501 l 656 0 l 525 0 l 525 379 q 498 456 524 426 q 418 486 472 486 q 328 458 368 486 q 265 382 288 431 q 242 269 242 333 l 242 0 l 113 0 l 113 575 l 228 575 m 281 893 l 413 756 l 374 747 l 506 893 l 625 893 l 396 654 l 394 654 l 161 893 l 281 893 z "},"ņ":{"ha":768,"x_min":113,"x_max":656,"o":"m 228 575 l 239 435 l 233 457 q 324 559 261 521 q 468 597 386 597 q 602 549 550 597 q 656 425 654 501 l 656 0 l 525 0 l 525 379 q 498 456 524 426 q 418 486 472 486 q 328 458 368 486 q 265 382 288 431 q 242 269 242 333 l 242 0 l 113 0 l 113 575 l 228 575 m 339 -281 l 272 -235 q 321 -154 307 -207 q 326 -50 335 -101 l 442 -50 q 438 -132 447 -87 q 403 -216 428 -176 q 339 -281 379 -256 z "},"ŋ":{"ha":768,"x_min":113,"x_max":656,"o":"m 656 3 q 622 -161 656 -89 q 519 -276 589 -233 l 443 -197 q 503 -115 482 -164 q 525 1 525 -65 l 525 379 q 498 456 524 426 q 418 486 472 486 q 328 458 368 486 q 265 382 288 431 q 242 269 242 333 l 242 0 l 113 0 l 113 575 l 228 575 l 239 457 q 326 559 267 521 q 468 597 386 597 q 602 549 550 597 q 656 425 654 501 l 656 3 z "},"ɲ":{"ha":768,"x_min":32,"x_max":656,"o":"m 108 -276 l 32 -197 q 93 -115 71 -164 q 115 1 115 -65 l 115 63 l 244 63 l 244 -4 q 207 -165 244 -97 q 108 -276 169 -233 m 228 575 l 239 435 l 233 457 q 324 559 261 521 q 468 597 386 597 q 602 549 550 597 q 656 425 654 501 l 656 0 l 525 0 l 525 379 q 498 456 524 426 q 418 486 472 486 q 328 458 368 486 q 265 382 288 431 q 242 269 242 333 l 242 0 l 113 0 l 113 575 l 228 575 z "},"ǌ":{"ha":1118,"x_min":113,"x_max":1019,"o":"m 228 575 l 239 435 l 233 457 q 324 559 261 521 q 468 597 386 597 q 602 549 550 597 q 656 425 654 501 l 656 0 l 525 0 l 525 379 q 498 456 524 426 q 418 486 472 486 q 328 458 368 486 q 265 382 288 431 q 242 269 242 333 l 242 0 l 113 0 l 113 575 l 228 575 m 869 -276 l 793 -197 q 854 -115 832 -164 q 876 1 876 -65 l 876 575 l 1007 575 l 1007 -4 q 974 -169 1007 -101 q 869 -276 942 -236 m 865 783 q 890 835 865 814 q 943 856 914 856 q 995 835 972 856 q 1018 783 1018 814 q 995 731 1018 751 q 943 711 972 711 q 890 732 914 711 q 865 783 865 753 z "},"ñ":{"ha":768,"x_min":113,"x_max":656,"o":"m 228 575 l 239 435 l 233 457 q 324 559 261 521 q 468 597 386 597 q 602 549 550 597 q 656 425 654 501 l 656 0 l 525 0 l 525 379 q 498 456 524 426 q 418 486 472 486 q 328 458 368 486 q 265 382 288 431 q 242 269 242 333 l 242 0 l 113 0 l 113 575 l 228 575 m 490 646 q 417 666 446 646 q 364 708 389 686 q 331 737 347 724 q 293 750 314 750 q 263 737 276 750 q 243 700 250 724 q 236 644 236 676 l 167 644 q 178 742 163 699 q 226 811 194 786 q 300 836 257 836 q 363 816 336 836 q 411 775 389 796 q 449 742 431 757 q 488 728 467 728 q 527 757 515 728 q 539 836 539 786 l 608 836 q 599 735 614 778 q 556 669 585 692 q 490 646 526 646 z "},"o":{"ha":757,"x_min":63,"x_max":694,"o":"m 63 293 q 103 449 63 379 q 217 558 144 518 q 381 599 289 599 q 546 558 475 599 q 656 449 617 518 q 694 293 694 379 q 656 137 694 207 q 545 26 617 67 q 379 -14 474 -14 q 216 24 288 -14 q 103 131 144 63 q 63 293 63 200 m 192 292 q 217 191 192 236 q 284 119 242 146 q 378 93 326 93 q 474 119 432 93 q 540 191 517 146 q 564 292 564 236 q 540 392 564 347 q 474 465 517 438 q 378 492 432 492 q 283 464 325 492 q 216 391 240 436 q 192 292 192 346 z "},"ó":{"ha":757,"x_min":63,"x_max":694,"o":"m 63 293 q 103 449 63 379 q 217 558 144 518 q 381 599 289 599 q 546 558 475 599 q 656 449 617 518 q 694 293 694 379 q 656 137 694 207 q 545 26 617 67 q 379 -14 474 -14 q 216 24 288 -14 q 103 131 144 63 q 63 293 63 200 m 192 292 q 217 191 192 236 q 284 119 242 146 q 378 93 326 93 q 474 119 432 93 q 540 191 517 146 q 564 292 564 236 q 540 392 564 347 q 474 465 517 438 q 378 492 432 492 q 283 464 325 492 q 216 391 240 436 q 192 292 192 346 m 536 867 l 360 681 l 278 681 l 393 867 l 536 867 z "},"ŏ":{"ha":757,"x_min":63,"x_max":694,"o":"m 63 293 q 103 449 63 379 q 217 558 144 518 q 381 599 289 599 q 546 558 475 599 q 656 449 617 518 q 694 293 694 379 q 656 137 694 207 q 545 26 617 67 q 379 -14 474 -14 q 216 24 288 -14 q 103 131 144 63 q 63 293 63 200 m 192 292 q 217 191 192 236 q 284 119 242 146 q 378 93 326 93 q 474 119 432 93 q 540 191 517 146 q 564 292 564 236 q 540 392 564 347 q 474 465 517 438 q 378 492 432 492 q 283 464 325 492 q 216 391 240 436 q 192 292 192 346 m 379 665 q 277 694 321 665 q 206 777 233 722 q 169 910 179 832 l 257 910 q 278 830 264 865 q 319 774 293 794 q 379 754 344 754 q 441 774 417 754 q 479 830 465 794 q 499 910 493 865 l 588 910 q 551 776 578 831 q 481 693 524 721 q 379 665 438 665 z "},"ô":{"ha":757,"x_min":63,"x_max":694,"o":"m 63 293 q 103 449 63 379 q 217 558 144 518 q 381 599 289 599 q 546 558 475 599 q 656 449 617 518 q 694 293 694 379 q 656 137 694 207 q 545 26 617 67 q 379 -14 474 -14 q 216 24 288 -14 q 103 131 144 63 q 63 293 63 200 m 192 292 q 217 191 192 236 q 284 119 242 146 q 378 93 326 93 q 474 119 432 93 q 540 191 517 146 q 564 292 564 236 q 540 392 564 347 q 474 465 517 438 q 378 492 432 492 q 283 464 325 492 q 216 391 240 436 q 192 292 192 346 m 490 693 l 361 829 l 399 838 l 267 693 l 147 693 l 376 931 l 378 931 l 610 693 l 490 693 z "},"ố":{"ha":757,"x_min":63,"x_max":760,"o":"m 63 293 q 103 449 63 379 q 217 558 144 518 q 381 599 289 599 q 546 558 475 599 q 656 449 617 518 q 694 293 694 379 q 656 137 694 207 q 545 26 617 67 q 379 -14 474 -14 q 216 24 288 -14 q 103 131 144 63 q 63 293 63 200 m 192 292 q 217 191 192 236 q 284 119 242 146 q 378 93 326 93 q 474 119 432 93 q 540 191 517 146 q 564 292 564 236 q 540 392 564 347 q 474 465 517 438 q 378 492 432 492 q 283 464 325 492 q 216 391 240 436 q 192 292 192 346 m 493 686 l 364 822 l 401 831 l 269 686 l 150 686 l 379 924 l 381 924 l 613 686 l 493 686 m 758 1007 l 582 821 l 500 821 l 615 1007 l 758 1007 z "},"ộ":{"ha":757,"x_min":63,"x_max":694,"o":"m 63 293 q 103 449 63 379 q 217 558 144 518 q 381 599 289 599 q 546 558 475 599 q 656 449 617 518 q 694 293 694 379 q 656 137 694 207 q 545 26 617 67 q 379 -14 474 -14 q 216 24 288 -14 q 103 131 144 63 q 63 293 63 200 m 192 292 q 217 191 192 236 q 284 119 242 146 q 378 93 326 93 q 474 119 432 93 q 540 191 517 146 q 564 292 564 236 q 540 392 564 347 q 474 465 517 438 q 378 492 432 492 q 283 464 325 492 q 216 391 240 436 q 192 292 192 346 m 311 -144 q 332 -100 311 -118 q 379 -82 353 -82 q 424 -100 403 -82 q 444 -144 444 -118 q 424 -190 444 -172 q 379 -207 403 -207 q 332 -189 353 -207 q 311 -144 311 -171 m 490 693 l 361 829 l 399 838 l 267 693 l 147 693 l 376 931 l 378 931 l 610 693 l 490 693 z "},"ồ":{"ha":757,"x_min":-44,"x_max":694,"o":"m 63 293 q 103 449 63 379 q 217 558 144 518 q 381 599 289 599 q 546 558 475 599 q 656 449 617 518 q 694 293 694 379 q 656 137 694 207 q 545 26 617 67 q 379 -14 474 -14 q 216 24 288 -14 q 103 131 144 63 q 63 293 63 200 m 192 292 q 217 191 192 236 q 284 119 242 146 q 378 93 326 93 q 474 119 432 93 q 540 191 517 146 q 564 292 564 236 q 540 392 564 347 q 474 465 517 438 q 378 492 432 492 q 283 464 325 492 q 216 391 240 436 q 192 292 192 346 m 483 682 l 354 818 l 392 826 l 260 682 l 140 682 l 369 919 l 371 919 l 603 682 l 483 682 m -44 1015 l 99 1015 l 200 829 l 117 829 l -44 1015 z "},"ổ":{"ha":757,"x_min":63,"x_max":729,"o":"m 63 293 q 103 449 63 379 q 217 558 144 518 q 381 599 289 599 q 546 558 475 599 q 656 449 617 518 q 694 293 694 379 q 656 137 694 207 q 545 26 617 67 q 379 -14 474 -14 q 216 24 288 -14 q 103 131 144 63 q 63 293 63 200 m 192 292 q 217 191 192 236 q 284 119 242 146 q 378 93 326 93 q 474 119 432 93 q 540 191 517 146 q 564 292 564 236 q 540 392 564 347 q 474 465 517 438 q 378 492 432 492 q 283 464 325 492 q 216 391 240 436 q 192 292 192 346 m 488 686 l 358 822 l 396 831 l 264 686 l 144 686 l 374 924 l 375 924 l 607 686 l 488 686 m 590 831 q 634 870 617 851 q 651 915 651 889 q 640 950 651 936 q 607 964 629 964 q 569 952 585 964 q 542 921 554 940 l 493 953 q 551 1018 517 997 q 624 1039 585 1039 q 681 1024 658 1039 q 716 985 704 1010 q 728 931 728 960 q 697 849 728 882 q 622 790 665 817 l 590 831 z "},"ỗ":{"ha":757,"x_min":63,"x_max":694,"o":"m 63 293 q 103 449 63 379 q 217 558 144 518 q 381 599 289 599 q 546 558 475 599 q 656 449 617 518 q 694 293 694 379 q 656 137 694 207 q 545 26 617 67 q 379 -14 474 -14 q 216 24 288 -14 q 103 131 144 63 q 63 293 63 200 m 192 292 q 217 191 192 236 q 284 119 242 146 q 378 93 326 93 q 474 119 432 93 q 540 191 517 146 q 564 292 564 236 q 540 392 564 347 q 474 465 517 438 q 378 492 432 492 q 283 464 325 492 q 216 391 240 436 q 192 292 192 346 m 483 675 l 354 811 l 392 819 l 260 675 l 140 675 l 369 913 l 371 913 l 603 675 l 483 675 m 479 947 q 406 967 435 947 q 353 1010 378 988 q 319 1038 336 1025 q 282 1051 303 1051 q 252 1038 265 1051 q 232 1001 239 1025 q 225 946 225 978 l 156 946 q 167 1044 151 1000 q 215 1113 183 1088 q 289 1138 246 1138 q 351 1117 325 1138 q 400 1076 378 1097 q 438 1044 419 1058 q 476 1029 456 1029 q 516 1058 504 1029 q 528 1138 528 1088 l 597 1138 q 588 1036 603 1079 q 544 970 574 993 q 479 947 515 947 z "},"ȍ":{"ha":757,"x_min":63,"x_max":694,"o":"m 63 293 q 103 449 63 379 q 217 558 144 518 q 381 599 289 599 q 546 558 475 599 q 656 449 617 518 q 694 293 694 379 q 656 137 694 207 q 545 26 617 67 q 379 -14 474 -14 q 216 24 288 -14 q 103 131 144 63 q 63 293 63 200 m 192 292 q 217 191 192 236 q 284 119 242 146 q 378 93 326 93 q 474 119 432 93 q 540 191 517 146 q 564 292 564 236 q 540 392 564 347 q 474 465 517 438 q 378 492 432 492 q 283 464 325 492 q 216 391 240 436 q 192 292 192 346 m 89 878 l 232 878 l 333 692 l 250 692 l 89 878 m 286 878 l 429 878 l 531 692 l 447 692 l 286 878 z "},"ö":{"ha":757,"x_min":63,"x_max":694,"o":"m 63 293 q 103 449 63 379 q 217 558 144 518 q 381 599 289 599 q 546 558 475 599 q 656 449 617 518 q 694 293 694 379 q 656 137 694 207 q 545 26 617 67 q 379 -14 474 -14 q 216 24 288 -14 q 103 131 144 63 q 63 293 63 200 m 192 292 q 217 191 192 236 q 284 119 242 146 q 378 93 326 93 q 474 119 432 93 q 540 191 517 146 q 564 292 564 236 q 540 392 564 347 q 474 465 517 438 q 378 492 432 492 q 283 464 325 492 q 216 391 240 436 q 192 292 192 346 m 175 750 q 197 802 175 781 q 247 824 219 824 q 297 802 274 824 q 319 749 319 781 q 297 697 319 717 q 247 676 274 676 q 197 697 219 676 q 175 750 175 718 l 175 750 m 435 750 q 458 802 435 781 q 508 824 481 824 q 556 802 533 824 q 579 749 579 781 q 556 697 579 717 q 508 676 533 676 q 458 697 481 676 q 435 750 435 718 l 435 750 z "},"ȫ":{"ha":757,"x_min":63,"x_max":694,"o":"m 63 293 q 103 449 63 379 q 217 558 144 518 q 381 599 289 599 q 546 558 475 599 q 656 449 617 518 q 694 293 694 379 q 656 137 694 207 q 545 26 617 67 q 379 -14 474 -14 q 216 24 288 -14 q 103 131 144 63 q 63 293 63 200 m 192 292 q 217 191 192 236 q 284 119 242 146 q 378 93 326 93 q 474 119 432 93 q 540 191 517 146 q 564 292 564 236 q 540 392 564 347 q 474 465 517 438 q 378 492 432 492 q 283 464 325 492 q 216 391 240 436 q 192 292 192 346 m 175 750 q 197 802 175 781 q 247 824 219 824 q 297 802 274 824 q 319 749 319 781 q 297 697 319 717 q 247 676 274 676 q 197 697 219 676 q 175 750 175 718 l 175 750 m 435 750 q 458 802 435 781 q 508 824 481 824 q 556 802 533 824 q 579 749 579 781 q 556 697 579 717 q 508 676 533 676 q 458 697 481 676 q 435 750 435 718 l 435 750 m 208 1003 l 550 1003 l 550 911 l 208 911 l 208 1003 z "},"ȱ":{"ha":757,"x_min":63,"x_max":694,"o":"m 63 293 q 103 449 63 379 q 217 558 144 518 q 381 599 289 599 q 546 558 475 599 q 656 449 617 518 q 694 293 694 379 q 656 137 694 207 q 545 26 617 67 q 379 -14 474 -14 q 216 24 288 -14 q 103 131 144 63 q 63 293 63 200 m 192 292 q 217 191 192 236 q 284 119 242 146 q 378 93 326 93 q 474 119 432 93 q 540 191 517 146 q 564 292 564 236 q 540 392 564 347 q 474 465 517 438 q 378 492 432 492 q 283 464 325 492 q 216 391 240 436 q 192 292 192 346 m 303 801 q 327 853 303 832 q 381 874 351 874 q 433 853 410 874 q 456 801 456 832 q 433 749 456 769 q 381 729 410 729 q 327 750 351 729 q 303 801 303 771 m 208 1051 l 550 1051 l 550 960 l 208 960 l 208 1051 z "},"ọ":{"ha":757,"x_min":63,"x_max":694,"o":"m 63 293 q 103 449 63 379 q 217 558 144 518 q 381 599 289 599 q 546 558 475 599 q 656 449 617 518 q 694 293 694 379 q 656 137 694 207 q 545 26 617 67 q 379 -14 474 -14 q 216 24 288 -14 q 103 131 144 63 q 63 293 63 200 m 192 292 q 217 191 192 236 q 284 119 242 146 q 378 93 326 93 q 474 119 432 93 q 540 191 517 146 q 564 292 564 236 q 540 392 564 347 q 474 465 517 438 q 378 492 432 492 q 283 464 325 492 q 216 391 240 436 q 192 292 192 346 m 311 -144 q 332 -100 311 -118 q 379 -82 353 -82 q 424 -100 403 -82 q 444 -144 444 -118 q 424 -190 444 -172 q 379 -207 403 -207 q 332 -189 353 -207 q 311 -144 311 -171 z "},"ò":{"ha":757,"x_min":63,"x_max":694,"o":"m 63 293 q 103 449 63 379 q 217 558 144 518 q 381 599 289 599 q 546 558 475 599 q 656 449 617 518 q 694 293 694 379 q 656 137 694 207 q 545 26 617 67 q 379 -14 474 -14 q 216 24 288 -14 q 103 131 144 63 q 63 293 63 200 m 192 292 q 217 191 192 236 q 284 119 242 146 q 378 93 326 93 q 474 119 432 93 q 540 191 517 146 q 564 292 564 236 q 540 392 564 347 q 474 465 517 438 q 378 492 432 492 q 283 464 325 492 q 216 391 240 436 q 192 292 192 346 m 178 878 l 321 878 l 422 692 l 339 692 l 178 878 z "},"ỏ":{"ha":757,"x_min":63,"x_max":694,"o":"m 63 293 q 103 449 63 379 q 217 558 144 518 q 381 599 289 599 q 546 558 475 599 q 656 449 617 518 q 694 293 694 379 q 656 137 694 207 q 545 26 617 67 q 379 -14 474 -14 q 216 24 288 -14 q 103 131 144 63 q 63 293 63 200 m 192 292 q 217 191 192 236 q 284 119 242 146 q 378 93 326 93 q 474 119 432 93 q 540 191 517 146 q 564 292 564 236 q 540 392 564 347 q 474 465 517 438 q 378 492 432 492 q 283 464 325 492 q 216 391 240 436 q 192 292 192 346 m 351 699 q 395 738 378 719 q 413 783 413 757 q 401 818 413 804 q 368 832 390 832 q 331 820 346 832 q 303 789 315 808 l 254 821 q 312 886 278 865 q 385 907 346 907 q 442 892 419 907 q 477 853 465 878 q 489 799 489 828 q 458 717 489 750 q 383 658 426 685 l 351 699 z "},"ơ":{"ha":757,"x_min":63,"x_max":713,"o":"m 63 293 q 103 449 63 379 q 217 558 144 518 q 381 599 289 599 q 546 558 475 599 q 656 449 617 518 q 694 293 694 379 q 656 137 694 207 q 545 26 617 67 q 379 -14 474 -14 q 216 24 288 -14 q 103 131 144 63 q 63 293 63 200 m 192 292 q 217 191 192 236 q 284 119 242 146 q 378 93 326 93 q 474 119 432 93 q 540 191 517 146 q 564 292 564 236 q 540 392 564 347 q 474 465 517 438 q 378 492 432 492 q 283 464 325 492 q 216 391 240 436 q 192 292 192 346 m 488 575 q 576 605 546 575 q 615 704 607 635 l 713 704 q 672 574 703 619 q 594 513 640 529 q 488 496 547 496 l 488 575 z "},"ớ":{"ha":757,"x_min":63,"x_max":713,"o":"m 63 293 q 103 449 63 379 q 217 558 144 518 q 381 599 289 599 q 546 558 475 599 q 656 449 617 518 q 694 293 694 379 q 656 137 694 207 q 545 26 617 67 q 379 -14 474 -14 q 216 24 288 -14 q 103 131 144 63 q 63 293 63 200 m 192 292 q 217 191 192 236 q 284 119 242 146 q 378 93 326 93 q 474 119 432 93 q 540 191 517 146 q 564 292 564 236 q 540 392 564 347 q 474 465 517 438 q 378 492 432 492 q 283 464 325 492 q 216 391 240 436 q 192 292 192 346 m 488 575 q 576 605 546 575 q 615 704 607 635 l 713 704 q 672 574 703 619 q 594 513 640 529 q 488 496 547 496 l 488 575 m 536 853 l 360 667 l 278 667 l 393 853 l 536 853 z "},"ợ":{"ha":757,"x_min":63,"x_max":713,"o":"m 63 293 q 103 449 63 379 q 217 558 144 518 q 381 599 289 599 q 546 558 475 599 q 656 449 617 518 q 694 293 694 379 q 656 137 694 207 q 545 26 617 67 q 379 -14 474 -14 q 216 24 288 -14 q 103 131 144 63 q 63 293 63 200 m 192 292 q 217 191 192 236 q 284 119 242 146 q 378 93 326 93 q 474 119 432 93 q 540 191 517 146 q 564 292 564 236 q 540 392 564 347 q 474 465 517 438 q 378 492 432 492 q 283 464 325 492 q 216 391 240 436 q 192 292 192 346 m 488 575 q 576 605 546 575 q 615 704 607 635 l 713 704 q 672 574 703 619 q 594 513 640 529 q 488 496 547 496 l 488 575 m 311 -144 q 332 -100 311 -118 q 379 -82 353 -82 q 424 -100 403 -82 q 444 -144 444 -118 q 424 -190 444 -172 q 379 -207 403 -207 q 332 -189 353 -207 q 311 -144 311 -171 z "},"ờ":{"ha":757,"x_min":63,"x_max":713,"o":"m 63 293 q 103 449 63 379 q 217 558 144 518 q 381 599 289 599 q 546 558 475 599 q 656 449 617 518 q 694 293 694 379 q 656 137 694 207 q 545 26 617 67 q 379 -14 474 -14 q 216 24 288 -14 q 103 131 144 63 q 63 293 63 200 m 192 292 q 217 191 192 236 q 284 119 242 146 q 378 93 326 93 q 474 119 432 93 q 540 191 517 146 q 564 292 564 236 q 540 392 564 347 q 474 465 517 438 q 378 492 432 492 q 283 464 325 492 q 216 391 240 436 q 192 292 192 346 m 488 575 q 576 605 546 575 q 615 704 607 635 l 713 704 q 672 574 703 619 q 594 513 640 529 q 488 496 547 496 l 488 575 m 178 878 l 321 878 l 422 692 l 339 692 l 178 878 z "},"ở":{"ha":757,"x_min":63,"x_max":713,"o":"m 63 293 q 103 449 63 379 q 217 558 144 518 q 381 599 289 599 q 546 558 475 599 q 656 449 617 518 q 694 293 694 379 q 656 137 694 207 q 545 26 617 67 q 379 -14 474 -14 q 216 24 288 -14 q 103 131 144 63 q 63 293 63 200 m 192 292 q 217 191 192 236 q 284 119 242 146 q 378 93 326 93 q 474 119 432 93 q 540 191 517 146 q 564 292 564 236 q 540 392 564 347 q 474 465 517 438 q 378 492 432 492 q 283 464 325 492 q 216 391 240 436 q 192 292 192 346 m 488 575 q 576 605 546 575 q 615 704 607 635 l 713 704 q 672 574 703 619 q 594 513 640 529 q 488 496 547 496 l 488 575 m 351 699 q 395 738 378 719 q 413 783 413 757 q 401 818 413 804 q 368 832 390 832 q 331 820 346 832 q 303 789 315 808 l 254 821 q 312 886 278 865 q 385 907 346 907 q 442 892 419 907 q 477 853 465 878 q 489 799 489 828 q 458 717 489 750 q 383 658 426 685 l 351 699 z "},"ỡ":{"ha":757,"x_min":63,"x_max":713,"o":"m 454 661 q 390 679 415 661 q 343 717 364 697 q 313 742 328 731 q 279 753 299 753 q 251 742 263 753 q 233 710 239 731 q 226 660 226 689 l 167 660 q 178 747 165 708 q 219 806 192 785 q 285 828 247 828 q 340 810 317 828 q 383 774 363 793 q 416 744 400 757 q 453 732 432 732 q 488 758 476 732 q 499 829 499 783 l 558 829 q 551 739 564 776 q 512 681 538 701 q 454 661 486 661 m 63 293 q 103 449 63 379 q 217 558 144 518 q 381 599 289 599 q 546 558 475 599 q 656 449 617 518 q 694 293 694 379 q 656 137 694 207 q 545 26 617 67 q 379 -14 474 -14 q 216 24 288 -14 q 103 131 144 63 q 63 293 63 200 m 192 292 q 217 191 192 236 q 284 119 242 146 q 378 93 326 93 q 474 119 432 93 q 540 191 517 146 q 564 292 564 236 q 540 392 564 347 q 474 465 517 438 q 378 492 432 492 q 283 464 325 492 q 216 391 240 436 q 192 292 192 346 m 488 575 q 576 605 544 575 q 615 704 607 635 l 713 704 q 672 574 703 619 q 594 513 640 529 q 488 496 547 496 l 488 575 z "},"ő":{"ha":757,"x_min":63,"x_max":694,"o":"m 63 293 q 103 449 63 379 q 217 558 144 518 q 381 599 289 599 q 546 558 475 599 q 656 449 617 518 q 694 293 694 379 q 656 137 694 207 q 545 26 617 67 q 379 -14 474 -14 q 216 24 288 -14 q 103 131 144 63 q 63 293 63 200 m 192 292 q 217 191 192 236 q 284 119 242 146 q 378 93 326 93 q 474 119 432 93 q 540 191 517 146 q 564 292 564 236 q 540 392 564 347 q 474 465 517 438 q 378 492 432 492 q 283 464 325 492 q 216 391 240 436 q 192 292 192 346 m 472 878 l 296 692 l 214 692 l 329 878 l 472 878 m 679 875 l 503 689 l 421 689 l 536 875 l 679 875 z "},"ȏ":{"ha":757,"x_min":63,"x_max":694,"o":"m 63 293 q 103 449 63 379 q 217 558 144 518 q 381 599 289 599 q 546 558 475 599 q 656 449 617 518 q 694 293 694 379 q 656 137 694 207 q 545 26 617 67 q 379 -14 474 -14 q 216 24 288 -14 q 103 131 144 63 q 63 293 63 200 m 192 292 q 217 191 192 236 q 284 119 242 146 q 378 93 326 93 q 474 119 432 93 q 540 191 517 146 q 564 292 564 236 q 540 392 564 347 q 474 465 517 438 q 378 492 432 492 q 283 464 325 492 q 216 391 240 436 q 192 292 192 346 m 385 900 q 487 872 443 900 q 558 788 531 843 q 594 656 585 733 l 507 656 q 486 736 501 701 q 446 791 471 771 q 385 811 421 811 q 324 791 349 811 q 285 736 299 771 q 265 656 271 701 l 176 656 q 213 790 186 735 q 283 872 240 844 q 385 900 326 900 z "},"ō":{"ha":757,"x_min":63,"x_max":694,"o":"m 63 293 q 103 449 63 379 q 217 558 144 518 q 381 599 289 599 q 546 558 475 599 q 656 449 617 518 q 694 293 694 379 q 656 137 694 207 q 545 26 617 67 q 379 -14 474 -14 q 216 24 288 -14 q 103 131 144 63 q 63 293 63 200 m 192 292 q 217 191 192 236 q 284 119 242 146 q 378 93 326 93 q 474 119 432 93 q 540 191 517 146 q 564 292 564 236 q 540 392 564 347 q 474 465 517 438 q 378 492 432 492 q 283 464 325 492 q 216 391 240 436 q 192 292 192 346 m 208 772 l 550 772 l 550 681 l 208 681 l 208 772 z "},"ǫ":{"ha":763,"x_min":65,"x_max":697,"o":"m 486 -299 q 409 -280 444 -299 q 351 -226 374 -261 q 329 -140 329 -192 q 364 -39 329 -83 q 454 33 399 6 l 508 35 q 452 1 486 15 q 382 -14 418 -14 q 219 24 290 -14 q 106 131 147 63 q 65 293 65 200 q 106 448 65 379 q 219 558 147 517 q 383 599 292 599 q 549 558 478 599 q 658 449 619 518 q 697 293 697 379 q 659 144 697 213 q 556 29 621 76 q 472 -45 506 -10 q 438 -131 438 -81 q 458 -186 438 -167 q 504 -206 479 -206 q 556 -188 532 -206 q 599 -140 579 -171 l 649 -206 q 578 -272 624 -246 q 486 -299 533 -299 m 381 93 q 477 119 435 93 q 543 191 519 146 q 567 292 567 236 q 543 392 567 347 q 477 465 519 438 q 381 492 435 492 q 285 464 328 492 q 219 391 243 436 q 194 292 194 346 q 219 191 194 236 q 286 119 244 146 q 381 93 328 93 z "},"ø":{"ha":724,"x_min":63,"x_max":694,"o":"m 658 561 l 142 -32 l 79 26 l 592 617 l 658 561 m 63 293 q 103 449 63 379 q 217 558 144 518 q 381 599 289 599 q 546 558 475 599 q 656 449 617 518 q 694 293 694 379 q 656 137 694 207 q 545 26 617 67 q 379 -14 474 -14 q 216 24 288 -14 q 103 131 144 63 q 63 293 63 200 m 192 292 q 217 191 192 236 q 284 119 242 146 q 378 93 326 93 q 474 119 432 93 q 540 191 517 146 q 564 292 564 236 q 540 392 564 347 q 474 465 517 438 q 378 492 432 492 q 283 464 325 492 q 216 391 240 436 q 192 292 192 346 z "},"ǿ":{"ha":724,"x_min":63,"x_max":694,"o":"m 658 561 l 142 -32 l 79 26 l 592 617 l 658 561 m 63 293 q 103 449 63 379 q 217 558 144 518 q 381 599 289 599 q 546 558 475 599 q 656 449 617 518 q 694 293 694 379 q 656 137 694 207 q 545 26 617 67 q 379 -14 474 -14 q 216 24 288 -14 q 103 131 144 63 q 63 293 63 200 m 192 292 q 217 191 192 236 q 284 119 242 146 q 378 93 326 93 q 474 119 432 93 q 540 191 517 146 q 564 292 564 236 q 540 392 564 347 q 474 465 517 438 q 378 492 432 492 q 283 464 325 492 q 216 391 240 436 q 192 292 192 346 m 519 849 l 343 663 l 261 663 l 376 849 l 519 849 z "},"õ":{"ha":757,"x_min":63,"x_max":694,"o":"m 63 293 q 103 449 63 379 q 217 558 144 518 q 381 599 289 599 q 546 558 475 599 q 656 449 617 518 q 694 293 694 379 q 656 137 694 207 q 545 26 617 67 q 379 -14 474 -14 q 216 24 288 -14 q 103 131 144 63 q 63 293 63 200 m 192 292 q 217 191 192 236 q 284 119 242 146 q 378 93 326 93 q 474 119 432 93 q 540 191 517 146 q 564 292 564 236 q 540 392 564 347 q 474 465 517 438 q 378 492 432 492 q 283 464 325 492 q 216 391 240 436 q 192 292 192 346 m 486 656 q 413 676 442 656 q 360 718 385 696 q 326 747 343 733 q 289 760 310 760 q 259 747 272 760 q 239 710 246 733 q 232 654 232 686 l 163 654 q 174 752 158 708 q 222 821 190 796 q 296 846 253 846 q 358 826 332 846 q 407 785 385 806 q 444 752 426 767 q 483 738 463 738 q 523 767 511 738 q 535 846 535 796 l 604 846 q 595 744 610 788 q 551 678 581 701 q 486 656 522 656 z "},"ȭ":{"ha":757,"x_min":63,"x_max":694,"o":"m 63 293 q 103 449 63 379 q 217 558 144 518 q 381 599 289 599 q 546 558 475 599 q 656 449 617 518 q 694 293 694 379 q 656 137 694 207 q 545 26 617 67 q 379 -14 474 -14 q 216 24 288 -14 q 103 131 144 63 q 63 293 63 200 m 192 292 q 217 191 192 236 q 284 119 242 146 q 378 93 326 93 q 474 119 432 93 q 540 191 517 146 q 564 292 564 236 q 540 392 564 347 q 474 465 517 438 q 378 492 432 492 q 283 464 325 492 q 216 391 240 436 q 192 292 192 346 m 486 656 q 413 676 442 656 q 360 718 385 696 q 326 747 343 733 q 289 760 310 760 q 259 747 272 760 q 239 710 246 733 q 232 654 232 686 l 163 654 q 174 752 158 708 q 222 821 190 796 q 296 846 253 846 q 358 826 332 846 q 407 785 385 806 q 444 752 426 767 q 483 738 463 738 q 523 767 511 738 q 535 846 535 796 l 604 846 q 595 744 610 788 q 551 678 581 701 q 486 656 522 656 m 221 1031 l 563 1031 l 563 939 l 221 939 l 221 1031 z "},"œ":{"ha":1110,"x_min":63,"x_max":1060,"o":"m 579 53 q 486 4 540 22 q 378 -14 432 -14 q 213 24 283 -14 q 102 128 142 61 q 63 288 63 196 q 105 447 63 379 q 216 552 147 515 q 364 589 285 589 q 488 569 433 589 q 582 517 543 550 l 518 433 q 457 468 493 453 q 375 483 421 483 q 283 458 325 483 q 216 388 240 432 q 192 288 192 343 q 217 190 192 235 q 286 119 242 144 q 388 93 331 93 q 456 104 425 93 q 513 135 488 115 l 579 53 m 767 -14 q 597 26 668 -14 q 488 134 526 65 q 450 292 450 203 q 493 446 450 376 q 608 557 536 515 q 769 599 681 599 q 958 532 883 599 q 1060 349 1033 465 l 586 182 l 556 258 l 944 400 l 917 382 q 861 462 900 428 q 760 496 822 496 q 665 470 707 496 q 600 400 624 444 q 576 299 576 356 q 601 194 576 239 q 670 123 626 149 q 769 97 714 97 q 842 111 807 97 q 908 147 878 125 l 968 51 q 872 4 925 22 q 767 -14 818 -14 z "},"p":{"ha":824,"x_min":113,"x_max":761,"o":"m 451 -14 q 326 17 386 -14 q 232 99 265 47 l 240 139 l 240 -276 l 113 -276 l 113 583 l 224 583 l 242 436 l 228 476 q 333 564 269 529 q 476 599 397 599 q 622 560 557 599 q 724 451 686 521 q 761 289 761 382 q 721 128 761 196 q 610 23 681 60 q 451 -14 540 -14 m 426 89 q 528 115 482 89 q 603 185 575 140 q 631 288 631 231 q 604 391 631 346 q 534 463 578 436 q 436 489 490 489 q 346 469 386 489 q 279 416 306 450 q 242 338 253 382 l 242 242 q 275 163 249 197 q 341 108 301 128 q 426 89 381 89 z "},"þ":{"ha":811,"x_min":110,"x_max":758,"o":"m 449 -14 q 363 1 406 -14 q 287 40 321 15 q 233 100 253 65 l 238 149 l 238 -276 l 110 -276 l 110 1075 l 239 1075 l 239 439 l 224 469 q 287 535 249 507 q 373 581 325 564 q 474 599 421 599 q 619 560 556 599 q 721 451 683 521 q 758 289 758 382 q 718 128 758 196 q 608 23 678 60 q 449 -14 538 -14 m 425 90 q 526 116 481 90 q 600 186 572 142 q 628 288 628 231 q 601 390 628 344 q 530 463 574 436 q 433 489 486 489 q 343 469 383 489 q 276 416 303 450 q 239 338 250 382 l 239 238 q 274 161 247 194 q 339 109 300 128 q 425 90 378 90 z "},"q":{"ha":824,"x_min":63,"x_max":711,"o":"m 343 -14 q 203 24 267 -14 q 101 128 139 61 q 63 288 63 196 q 103 451 63 382 q 213 560 144 521 q 364 599 282 599 q 501 565 442 599 q 597 476 561 531 l 582 436 l 582 583 l 711 583 l 711 -276 l 583 -276 l 583 147 l 589 93 q 490 16 556 46 q 343 -14 425 -14 m 386 89 q 478 108 436 89 q 547 162 519 128 q 582 240 574 196 l 582 338 q 544 416 571 382 q 478 469 518 450 q 386 489 438 489 q 290 463 335 489 q 219 390 246 436 q 193 288 193 344 q 219 186 193 231 q 290 115 246 142 q 386 89 335 89 z "},"r":{"ha":522,"x_min":113,"x_max":468,"o":"m 228 575 l 240 408 l 233 431 q 298 520 256 483 q 387 577 340 557 q 468 597 433 597 l 461 469 q 347 444 396 474 q 269 367 297 415 q 240 263 240 318 l 240 0 l 113 0 l 113 575 l 228 575 z "},"ŕ":{"ha":522,"x_min":113,"x_max":468,"o":"m 228 575 l 240 408 l 233 431 q 298 520 256 483 q 387 577 340 557 q 468 597 433 597 l 461 469 q 347 444 396 474 q 269 367 297 415 q 240 263 240 318 l 240 0 l 113 0 l 113 575 l 228 575 m 408 849 l 232 663 l 150 663 l 265 849 l 408 849 z "},"ř":{"ha":522,"x_min":29,"x_max":492,"o":"m 228 575 l 240 408 l 233 431 q 298 520 256 483 q 387 577 340 557 q 468 597 433 597 l 461 469 q 347 444 396 474 q 269 367 297 415 q 240 263 240 318 l 240 0 l 113 0 l 113 575 l 228 575 m 147 885 l 279 747 l 240 739 l 372 885 l 492 885 l 263 646 l 261 646 l 28 885 l 147 885 z "},"ŗ":{"ha":522,"x_min":82,"x_max":468,"o":"m 228 575 l 240 408 l 233 431 q 298 520 256 483 q 387 577 340 557 q 468 597 433 597 l 461 469 q 347 444 396 474 q 269 367 297 415 q 240 263 240 318 l 240 0 l 113 0 l 113 575 l 228 575 m 149 -281 l 82 -235 q 131 -154 117 -207 q 136 -50 144 -101 l 251 -50 q 247 -132 257 -87 q 213 -216 238 -176 q 149 -281 189 -256 z "},"ȑ":{"ha":522,"x_min":-39,"x_max":468,"o":"m 228 575 l 240 408 l 233 431 q 298 520 256 483 q 387 577 340 557 q 468 597 433 597 l 461 469 q 347 444 396 474 q 269 367 297 415 q 240 263 240 318 l 240 0 l 113 0 l 113 575 l 228 575 m -39 860 l 104 860 l 206 674 l 122 674 l -39 860 m 158 860 l 301 860 l 403 674 l 319 674 l 158 860 z "},"ȓ":{"ha":522,"x_min":49,"x_max":468,"o":"m 228 575 l 240 408 l 233 431 q 298 520 256 483 q 387 577 340 557 q 468 597 433 597 l 461 469 q 347 444 396 474 q 269 367 297 415 q 240 263 240 318 l 240 0 l 113 0 l 113 575 l 228 575 m 257 882 q 359 853 315 882 q 430 770 403 825 q 467 638 457 715 l 379 638 q 358 718 374 683 q 318 773 343 753 q 257 793 293 793 q 196 773 221 793 q 157 718 171 753 q 138 638 143 683 l 49 638 q 85 772 58 717 q 156 854 113 826 q 257 882 199 882 z "},"s":{"ha":565,"x_min":60,"x_max":497,"o":"m 274 -11 q 155 10 213 -11 q 60 75 97 32 l 114 150 q 188 98 150 115 q 264 81 226 81 q 315 88 292 81 q 353 110 339 94 q 368 154 368 126 q 348 203 368 185 q 297 232 328 221 q 231 253 265 243 q 122 318 160 276 q 85 419 85 360 q 108 505 85 465 q 176 569 131 544 q 288 594 221 594 q 394 580 347 594 q 483 532 442 565 l 432 451 q 372 490 407 478 q 310 504 338 503 q 265 497 286 506 q 229 474 243 489 q 215 438 215 458 q 235 390 215 408 q 285 362 254 372 q 347 340 317 351 q 424 307 390 328 q 477 256 457 286 q 497 179 497 225 q 473 84 497 128 q 399 15 449 40 q 274 -11 350 -11 z "},"ś":{"ha":565,"x_min":60,"x_max":497,"o":"m 274 -11 q 155 10 213 -11 q 60 75 97 32 l 114 150 q 188 98 150 115 q 264 81 226 81 q 315 88 292 81 q 353 110 339 94 q 368 154 368 126 q 348 203 368 185 q 297 232 328 221 q 231 253 265 243 q 122 318 160 276 q 85 419 85 360 q 108 505 85 465 q 176 569 131 544 q 288 594 221 594 q 394 580 347 594 q 483 532 442 565 l 432 451 q 372 490 407 478 q 310 504 338 503 q 265 497 286 506 q 229 474 243 489 q 215 438 215 458 q 235 390 215 408 q 285 362 254 372 q 347 340 317 351 q 424 307 390 328 q 477 256 457 286 q 497 179 497 225 q 473 84 497 128 q 399 15 449 40 q 274 -11 350 -11 m 442 858 l 265 672 l 183 672 l 299 858 l 442 858 z "},"š":{"ha":565,"x_min":60,"x_max":525,"o":"m 274 -11 q 155 10 213 -11 q 60 75 97 32 l 114 150 q 188 98 150 115 q 264 81 226 81 q 315 88 292 81 q 353 110 339 94 q 368 154 368 126 q 348 203 368 185 q 297 232 328 221 q 231 253 265 243 q 122 318 160 276 q 85 419 85 360 q 108 505 85 465 q 176 569 131 544 q 288 594 221 594 q 394 580 347 594 q 483 532 442 565 l 432 451 q 372 490 407 478 q 310 504 338 503 q 265 497 286 506 q 229 474 243 489 q 215 438 215 458 q 235 390 215 408 q 285 362 254 372 q 347 340 317 351 q 424 307 390 328 q 477 256 457 286 q 497 179 497 225 q 473 84 497 128 q 399 15 449 40 q 274 -11 350 -11 m 181 893 l 313 756 l 274 747 l 406 893 l 525 893 l 296 654 l 294 654 l 61 893 l 181 893 z "},"ş":{"ha":565,"x_min":60,"x_max":497,"o":"m 274 -11 q 155 10 213 -11 q 60 75 97 32 l 114 150 q 188 98 150 115 q 264 81 226 81 q 315 88 292 81 q 353 110 339 94 q 368 154 368 126 q 348 203 368 185 q 297 232 328 221 q 231 253 265 243 q 122 318 160 276 q 85 419 85 360 q 108 505 85 465 q 176 569 131 544 q 288 594 221 594 q 394 580 347 594 q 483 532 442 565 l 432 451 q 372 490 407 478 q 310 504 338 503 q 265 497 286 506 q 229 474 243 489 q 215 438 215 458 q 235 390 215 408 q 285 362 254 372 q 347 340 317 351 q 424 307 390 328 q 477 256 457 286 q 497 179 497 225 q 473 84 497 128 q 399 15 449 40 q 274 -11 350 -11 m 168 -219 q 207 -245 183 -235 q 261 -256 231 -256 q 326 -240 297 -256 q 356 -193 356 -224 q 336 -149 356 -169 q 265 -129 317 -129 q 218 -135 243 -129 q 175 -147 193 -140 l 151 -85 l 249 6 l 347 0 l 247 -117 l 217 -85 q 254 -74 232 -78 q 297 -69 276 -71 q 418 -99 371 -68 q 465 -190 465 -129 q 438 -267 465 -237 q 368 -312 411 -297 q 274 -326 325 -326 q 185 -310 222 -326 q 126 -274 149 -294 l 168 -219 z "},"ŝ":{"ha":565,"x_min":53,"x_max":515,"o":"m 274 -11 q 155 10 213 -11 q 60 75 97 32 l 114 150 q 188 98 150 115 q 264 81 226 81 q 315 88 292 81 q 353 110 339 94 q 368 154 368 126 q 348 203 368 185 q 297 232 328 221 q 231 253 265 243 q 122 318 160 276 q 85 419 85 360 q 108 505 85 465 q 176 569 131 544 q 288 594 221 594 q 394 580 347 594 q 483 532 442 565 l 432 451 q 372 490 407 478 q 310 504 338 503 q 265 497 286 506 q 229 474 243 489 q 215 438 215 458 q 235 390 215 408 q 285 362 254 372 q 347 340 317 351 q 424 307 390 328 q 477 256 457 286 q 497 179 497 225 q 473 84 497 128 q 399 15 449 40 q 274 -11 350 -11 m 396 683 l 267 819 l 304 828 l 172 683 l 53 683 l 282 921 l 283 921 l 515 683 l 396 683 z "},"ș":{"ha":565,"x_min":60,"x_max":497,"o":"m 274 -11 q 155 10 213 -11 q 60 75 97 32 l 114 150 q 188 98 150 115 q 264 81 226 81 q 315 88 292 81 q 353 110 339 94 q 368 154 368 126 q 348 203 368 185 q 297 232 328 221 q 231 253 265 243 q 122 318 160 276 q 85 419 85 360 q 108 505 85 465 q 176 569 131 544 q 288 594 221 594 q 394 580 347 594 q 483 532 442 565 l 432 451 q 372 490 407 478 q 310 504 338 503 q 265 497 286 506 q 229 474 243 489 q 215 438 215 458 q 235 390 215 408 q 285 362 254 372 q 347 340 317 351 q 424 307 390 328 q 477 256 457 286 q 497 179 497 225 q 473 84 497 128 q 399 15 449 40 q 274 -11 350 -11 m 233 -289 l 167 -243 q 215 -162 201 -215 q 221 -58 229 -110 l 336 -58 q 332 -140 342 -96 q 298 -224 322 -185 q 233 -289 274 -264 z "}}}
